<svg width="415" height="67" viewBox="0 0 415 67" fill="none" xmlns="http://www.w3.org/2000/svg">
<rect x="6" y="10" width="403" height="47" rx="6" fill="#357AFF"/>
<path d="M163.508 29.3594V33.2109H165.781C167.062 33.2109 167.805 32.5 167.805 31.2812C167.805 30.0938 167.016 29.3594 165.742 29.3594H163.508ZM163.508 34.7578V39H161.492V27.7266H165.969C168.406 27.7266 169.867 29.0781 169.867 31.2344C169.867 32.7266 169.086 33.9688 167.742 34.4531L170.203 39H167.906L165.688 34.7578H163.508ZM174.82 32.0547C173.727 32.0547 172.938 32.8906 172.859 34.0469H176.727C176.688 32.875 175.938 32.0547 174.82 32.0547ZM176.734 36.5234H178.555C178.305 38.0859 176.852 39.1641 174.891 39.1641C172.406 39.1641 170.906 37.5312 170.906 34.8906C170.906 32.2734 172.422 30.5469 174.812 30.5469C177.164 30.5469 178.633 32.1797 178.633 34.6953V35.3281H172.844V35.4453C172.844 36.7734 173.656 37.6641 174.93 37.6641C175.836 37.6641 176.523 37.2109 176.734 36.5234ZM187.188 33.6719H185.352C185.195 32.7891 184.578 32.125 183.539 32.125C182.312 32.125 181.523 33.1562 181.523 34.8594C181.523 36.5938 182.32 37.5938 183.555 37.5938C184.539 37.5938 185.18 37.0312 185.359 36.0938H187.195C187.039 37.9453 185.609 39.1641 183.531 39.1641C181.109 39.1641 179.547 37.5469 179.547 34.8594C179.547 32.2109 181.109 30.5469 183.516 30.5469C185.703 30.5469 187.055 31.9297 187.188 33.6719ZM191.383 37.6641C192.484 37.6641 193.367 36.9297 193.367 35.9297V35.2969L191.453 35.4141C190.516 35.4766 189.977 35.8984 189.977 36.5547C189.977 37.2344 190.539 37.6641 191.383 37.6641ZM190.797 39.1328C189.195 39.1328 188.031 38.125 188.031 36.6328C188.031 35.1641 189.164 34.2812 191.18 34.1562L193.367 34.0312V33.4375C193.367 32.5703 192.781 32.0703 191.82 32.0703C190.898 32.0703 190.312 32.5156 190.188 33.2031H188.383C188.469 31.6562 189.789 30.5469 191.898 30.5469C193.953 30.5469 195.289 31.6328 195.289 33.2969V39H193.414V37.6797H193.375C192.898 38.5781 191.859 39.1328 190.797 39.1328ZM196.859 39V30.7188H198.727V32.1641H198.766C199.047 31.1562 199.773 30.5781 200.75 30.5781C201 30.5781 201.219 30.625 201.359 30.6562V32.4141C201.195 32.3516 200.898 32.3047 200.57 32.3047C199.469 32.3047 198.805 33.0156 198.805 34.1797V39H196.859ZM212.859 33.6719H211.023C210.867 32.7891 210.25 32.125 209.211 32.125C207.984 32.125 207.195 33.1562 207.195 34.8594C207.195 36.5938 207.992 37.5938 209.227 37.5938C210.211 37.5938 210.852 37.0312 211.031 36.0938H212.867C212.711 37.9453 211.281 39.1641 209.203 39.1641C206.781 39.1641 205.219 37.5469 205.219 34.8594C205.219 32.2109 206.781 30.5469 209.188 30.5469C211.375 30.5469 212.727 31.9297 212.859 33.6719ZM221.375 30.7188V39H219.5V37.5625H219.461C219.023 38.5703 218.188 39.1484 216.93 39.1484C215.133 39.1484 213.992 37.9844 213.992 36.0703V30.7188H215.938V35.6797C215.938 36.8672 216.516 37.5078 217.609 37.5078C218.734 37.5078 219.43 36.7109 219.43 35.5078V30.7188H221.375ZM226.539 32.0547C225.445 32.0547 224.656 32.8906 224.578 34.0469H228.445C228.406 32.875 227.656 32.0547 226.539 32.0547ZM228.453 36.5234H230.273C230.023 38.0859 228.57 39.1641 226.609 39.1641C224.125 39.1641 222.625 37.5312 222.625 34.8906C222.625 32.2734 224.141 30.5469 226.531 30.5469C228.883 30.5469 230.352 32.1797 230.352 34.6953V35.3281H224.562V35.4453C224.562 36.7734 225.375 37.6641 226.648 37.6641C227.555 37.6641 228.242 37.2109 228.453 36.5234ZM231.609 39V30.7188H233.477V32.1406H233.516C233.961 31.1562 234.844 30.5625 236.117 30.5625C237.945 30.5625 238.984 31.7344 238.984 33.6484V39H237.039V34.0391C237.039 32.8672 236.492 32.2109 235.383 32.2109C234.266 32.2109 233.555 33.0156 233.555 34.2031V39H231.609ZM241.086 28.7812H243.031V30.7188H244.594V32.2188H243.031V36.5234C243.031 37.2031 243.344 37.5156 244.031 37.5156C244.211 37.5156 244.461 37.5 244.586 37.4766V38.9609C244.375 39.0078 243.992 39.0391 243.578 39.0391C241.789 39.0391 241.086 38.4062 241.086 36.7969V32.2188H239.898V30.7188H241.086V28.7812ZM248.836 37.6641C249.938 37.6641 250.82 36.9297 250.82 35.9297V35.2969L248.906 35.4141C247.969 35.4766 247.43 35.8984 247.43 36.5547C247.43 37.2344 247.992 37.6641 248.836 37.6641ZM248.25 39.1328C246.648 39.1328 245.484 38.125 245.484 36.6328C245.484 35.1641 246.617 34.2812 248.633 34.1562L250.82 34.0312V33.4375C250.82 32.5703 250.234 32.0703 249.273 32.0703C248.352 32.0703 247.766 32.5156 247.641 33.2031H245.836C245.922 31.6562 247.242 30.5469 249.352 30.5469C251.406 30.5469 252.742 31.6328 252.742 33.2969V39H250.867V37.6797H250.828C250.352 38.5781 249.312 39.1328 248.25 39.1328Z" fill="white"/>
</svg>
