<svg width="1166" height="244" viewBox="0 0 1166 244" fill="none" xmlns="http://www.w3.org/2000/svg">
<rect width="1166" height="244" rx="16" fill="white"/>
<path d="M34.291 72.8711V75H25.375V60.9082H27.8945V72.8711H34.291ZM35.9121 75V64.6484H38.3438V75H35.9121ZM37.123 63.291C36.3711 63.291 35.7754 62.7051 35.7754 61.9727C35.7754 61.2305 36.3711 60.6445 37.123 60.6445C37.8848 60.6445 38.4805 61.2305 38.4805 61.9727C38.4805 62.7051 37.8848 63.291 37.123 63.291ZM40.1992 67.6172C40.1992 65.7227 41.8691 64.4336 44.3887 64.4336C46.8203 64.4336 48.4707 65.7422 48.5293 67.6562H46.2637C46.1855 66.7676 45.4727 66.2207 44.3398 66.2207C43.2656 66.2207 42.5625 66.7285 42.5625 67.4805C42.5625 68.0664 43.0312 68.457 44.0469 68.7012L45.8926 69.1113C47.9629 69.5996 48.7734 70.4004 48.7734 71.9336C48.7734 73.8867 46.9668 75.2051 44.3496 75.2051C41.752 75.2051 40.1016 73.916 39.9355 71.9531H42.3281C42.4746 72.9004 43.207 73.4277 44.4375 73.4277C45.6191 73.4277 46.3516 72.9492 46.3516 72.1777C46.3516 71.5723 45.9707 71.25 44.9648 70.9961L43.0801 70.5566C41.166 70.1074 40.1992 69.1113 40.1992 67.6172ZM51 62.2266H53.4316V64.6484H55.3848V66.5234H53.4316V71.9043C53.4316 72.7539 53.8223 73.1445 54.6816 73.1445C54.9062 73.1445 55.2188 73.125 55.375 73.0957V74.9512C55.1113 75.0098 54.6328 75.0488 54.1152 75.0488C51.8789 75.0488 51 74.2578 51 72.2461V66.5234H49.5156V64.6484H51V62.2266ZM60.6875 73.3301C62.0645 73.3301 63.168 72.4121 63.168 71.1621V70.3711L60.7754 70.5176C59.6035 70.5957 58.9297 71.123 58.9297 71.9434C58.9297 72.793 59.6328 73.3301 60.6875 73.3301ZM59.9551 75.166C57.9531 75.166 56.498 73.9062 56.498 72.041C56.498 70.2051 57.9141 69.1016 60.4336 68.9453L63.168 68.7891V68.0469C63.168 66.9629 62.4355 66.3379 61.2344 66.3379C60.082 66.3379 59.3496 66.8945 59.1934 67.7539H56.9375C57.0449 65.8203 58.6953 64.4336 61.332 64.4336C63.9004 64.4336 65.5703 65.791 65.5703 67.8711V75H63.2266V73.3496H63.1777C62.582 74.4727 61.2832 75.166 59.9551 75.166ZM75.4043 75.166C72.7969 75.166 71.1074 73.1055 71.1074 69.8145C71.1074 66.543 72.7969 64.4727 75.4043 64.4727C76.8887 64.4727 78.0605 65.2441 78.6074 66.3867H78.666V60.9082H81.0977V75H78.7148V73.2324H78.6758C78.1094 74.3945 76.918 75.166 75.4043 75.166ZM76.1367 66.4746C74.5742 66.4746 73.5977 67.7734 73.5977 69.8242C73.5977 71.8848 74.5645 73.1738 76.1367 73.1738C77.6699 73.1738 78.6758 71.875 78.6758 69.8242C78.6758 67.793 77.6699 66.4746 76.1367 66.4746ZM87.6016 66.3184C86.2344 66.3184 85.248 67.3633 85.1504 68.8086H89.9844C89.9355 67.3438 88.998 66.3184 87.6016 66.3184ZM89.9941 71.9043H92.2695C91.957 73.8574 90.1406 75.2051 87.6895 75.2051C84.584 75.2051 82.709 73.1641 82.709 69.8633C82.709 66.5918 84.6035 64.4336 87.5918 64.4336C90.5312 64.4336 92.3672 66.4746 92.3672 69.6191V70.4102H85.1309V70.5566C85.1309 72.2168 86.1465 73.3301 87.7383 73.3301C88.8711 73.3301 89.7305 72.7637 89.9941 71.9043ZM107.396 75L106.195 71.3574H101.01L99.8086 75H97.2109L102.211 60.9082H105.053L110.053 75H107.396ZM103.568 63.3984L101.596 69.4141H105.6L103.637 63.3984H103.568ZM120.111 68.3398H117.816C117.621 67.2363 116.85 66.4062 115.551 66.4062C114.018 66.4062 113.031 67.6953 113.031 69.8242C113.031 71.9922 114.027 73.2422 115.57 73.2422C116.801 73.2422 117.602 72.5391 117.826 71.3672H120.121C119.926 73.6816 118.139 75.2051 115.541 75.2051C112.514 75.2051 110.561 73.1836 110.561 69.8242C110.561 66.5137 112.514 64.4336 115.521 64.4336C118.256 64.4336 119.945 66.1621 120.111 68.3398ZM122.25 62.2266H124.682V64.6484H126.635V66.5234H124.682V71.9043C124.682 72.7539 125.072 73.1445 125.932 73.1445C126.156 73.1445 126.469 73.125 126.625 73.0957V74.9512C126.361 75.0098 125.883 75.0488 125.365 75.0488C123.129 75.0488 122.25 74.2578 122.25 72.2461V66.5234H120.766V64.6484H122.25V62.2266ZM128.354 75V64.6484H130.785V75H128.354ZM129.564 63.291C128.812 63.291 128.217 62.7051 128.217 61.9727C128.217 61.2305 128.812 60.6445 129.564 60.6445C130.326 60.6445 130.922 61.2305 130.922 61.9727C130.922 62.7051 130.326 63.291 129.564 63.291ZM141.938 64.6484L138.295 75H135.619L131.947 64.6484H134.545L136.947 72.7441H136.996L139.398 64.6484H141.938ZM147.348 75.2051C144.311 75.2051 142.338 73.1836 142.338 69.8242C142.338 66.4844 144.33 64.4336 147.348 64.4336C150.365 64.4336 152.357 66.4746 152.357 69.8242C152.357 73.1836 150.385 75.2051 147.348 75.2051ZM147.348 73.2812C148.891 73.2812 149.887 72.0312 149.887 69.8242C149.887 67.627 148.891 66.3672 147.348 66.3672C145.814 66.3672 144.809 67.627 144.809 69.8242C144.809 72.0312 145.805 73.2812 147.348 73.2812ZM153.734 67.6172C153.734 65.7227 155.404 64.4336 157.924 64.4336C160.355 64.4336 162.006 65.7422 162.064 67.6562H159.799C159.721 66.7676 159.008 66.2207 157.875 66.2207C156.801 66.2207 156.098 66.7285 156.098 67.4805C156.098 68.0664 156.566 68.457 157.582 68.7012L159.428 69.1113C161.498 69.5996 162.309 70.4004 162.309 71.9336C162.309 73.8867 160.502 75.2051 157.885 75.2051C155.287 75.2051 153.637 73.916 153.471 71.9531H155.863C156.01 72.9004 156.742 73.4277 157.973 73.4277C159.154 73.4277 159.887 72.9492 159.887 72.1777C159.887 71.5723 159.506 71.25 158.5 70.9961L156.615 70.5566C154.701 70.1074 153.734 69.1113 153.734 67.6172Z" fill="black"/>
<rect x="747" y="48" width="180" height="40" rx="20" fill="#F6F7F8"/>
<path fill-rule="evenodd" clip-rule="evenodd" d="M770.079 72.0209C769.052 72.8422 767.75 73.3333 766.333 73.3333C763.02 73.3333 760.333 70.647 760.333 67.3333C760.333 64.0195 763.02 61.3333 766.333 61.3333C769.647 61.3333 772.333 64.0195 772.333 67.3333C772.333 68.7498 771.843 70.0517 771.022 71.0781L772.599 72.6557C772.86 72.9161 772.86 73.3382 772.599 73.5985C772.339 73.8589 771.917 73.8589 771.657 73.5985L770.079 72.0209ZM771 67.3333C771 64.7559 768.911 62.6666 766.333 62.6666C763.756 62.6666 761.667 64.7559 761.667 67.3333C761.667 69.9106 763.756 71.9999 766.333 71.9999C768.911 71.9999 771 69.9106 771 67.3333Z" fill="#A2A9B6"/>
<path d="M787.683 72.5H783.957V62.6357H787.696C789.385 62.6357 790.526 63.6201 790.526 65.0967C790.526 66.1221 789.774 67.0791 788.824 67.25V67.3047C790.164 67.4756 791.025 68.4189 791.025 69.7314C791.025 71.4678 789.781 72.5 787.683 72.5ZM785.188 63.7227V66.8877H787.033C788.489 66.8877 789.282 66.3066 789.282 65.2402C789.282 64.2627 788.612 63.7227 787.416 63.7227H785.188ZM785.188 71.4131H787.498C788.981 71.4131 789.761 70.8115 789.761 69.6699C789.761 68.5283 788.954 67.9473 787.382 67.9473H785.188V71.4131ZM798.073 65.3906V72.5H796.945V71.3447H796.918C796.494 72.165 795.756 72.623 794.662 72.623C793.11 72.623 792.201 71.6182 792.201 70.0049V65.3906H793.391V69.793C793.391 70.9482 793.931 71.5703 795.031 71.5703C796.187 71.5703 796.884 70.7773 796.884 69.5674V65.3906H798.073ZM799.495 67.3525C799.495 66.1357 800.582 65.2676 802.147 65.2676C803.617 65.2676 804.697 66.1426 804.752 67.3457H803.617C803.535 66.6621 802.981 66.2383 802.106 66.2383C801.238 66.2383 800.664 66.6689 800.664 67.291C800.664 67.7832 801.04 68.1113 801.847 68.3164L802.947 68.583C804.383 68.9453 804.902 69.4648 804.902 70.5107C804.902 71.748 803.733 72.623 802.072 72.623C800.514 72.623 799.427 71.7754 799.304 70.5176H800.493C800.623 71.2559 801.184 71.6523 802.147 71.6523C803.111 71.6523 803.706 71.2422 803.706 70.5996C803.706 70.0938 803.412 69.8203 802.612 69.6084L801.361 69.2871C800.11 68.9658 799.495 68.3232 799.495 67.3525ZM812.046 67.7217H810.884C810.713 66.9492 810.111 66.3135 809.065 66.3135C807.835 66.3135 807.001 67.332 807.001 68.9453C807.001 70.5996 807.849 71.5771 809.079 71.5771C810.05 71.5771 810.686 71.0645 810.891 70.21H812.06C811.875 71.625 810.686 72.623 809.072 72.623C807.104 72.623 805.791 71.2354 805.791 68.9453C805.791 66.7031 807.097 65.2676 809.059 65.2676C810.836 65.2676 811.896 66.4434 812.046 67.7217ZM815.498 71.6113C816.619 71.6113 817.48 70.8252 817.48 69.7998V69.2188L815.58 69.335C814.623 69.3965 814.076 69.8203 814.076 70.4902C814.076 71.167 814.644 71.6113 815.498 71.6113ZM815.231 72.623C813.816 72.623 812.866 71.7686 812.866 70.4902C812.866 69.2734 813.803 68.5078 815.443 68.4121L817.48 68.2959V67.7012C817.48 66.833 816.906 66.3135 815.922 66.3135C815.006 66.3135 814.432 66.7441 814.281 67.4414H813.133C813.215 66.2109 814.268 65.2676 815.949 65.2676C817.617 65.2676 818.67 66.1699 818.67 67.585V72.5H817.542V71.2764H817.515C817.091 72.0898 816.188 72.623 815.231 72.623ZM820.181 72.5V65.3906H821.302V66.5527H821.329C821.562 65.7666 822.218 65.2676 823.052 65.2676C823.257 65.2676 823.435 65.3018 823.53 65.3154V66.4707C823.435 66.4365 823.182 66.4023 822.895 66.4023C821.972 66.4023 821.37 67.0654 821.37 68.0703V72.5H820.181Z" fill="#A2A9B6"/>
<rect x="951.5" y="60" width="15" height="15" rx="1.5" stroke="#A2A9B6"/>
<path d="M976.12 62.4717C978.916 62.4717 980.666 64.4404 980.666 67.5713C980.666 70.7021 978.916 72.6641 976.12 72.6641C973.324 72.6641 971.574 70.7021 971.574 67.5713C971.574 64.4404 973.324 62.4717 976.12 62.4717ZM976.12 63.6064C974.104 63.6064 972.839 65.1377 972.839 67.5713C972.839 69.998 974.104 71.5293 976.12 71.5293C978.137 71.5293 979.401 69.998 979.401 67.5713C979.401 65.1377 978.137 63.6064 976.12 63.6064ZM987.919 67.7217H986.757C986.586 66.9492 985.984 66.3135 984.938 66.3135C983.708 66.3135 982.874 67.332 982.874 68.9453C982.874 70.5996 983.722 71.5771 984.952 71.5771C985.923 71.5771 986.559 71.0645 986.764 70.21H987.933C987.748 71.625 986.559 72.623 984.945 72.623C982.977 72.623 981.664 71.2354 981.664 68.9453C981.664 66.7031 982.97 65.2676 984.932 65.2676C986.709 65.2676 987.769 66.4434 987.919 67.7217ZM994.864 65.3906V72.5H993.736V71.3447H993.709C993.285 72.165 992.547 72.623 991.453 72.623C989.901 72.623 988.992 71.6182 988.992 70.0049V65.3906H990.182V69.793C990.182 70.9482 990.722 71.5703 991.822 71.5703C992.978 71.5703 993.675 70.7773 993.675 69.5674V65.3906H994.864ZM996.471 72.5V62.6357H997.66V72.5H996.471ZM999.649 63.6748H1000.84V65.3906H1002.22V66.3682H1000.84V70.5928C1000.84 71.2422 1001.11 71.5361 1001.72 71.5361C1001.86 71.5361 1002.13 71.5156 1002.21 71.502V72.5C1002.07 72.5342 1001.74 72.5547 1001.46 72.5547C1000.16 72.5547 999.649 72.0215 999.649 70.6543V66.3682H998.59V65.3906H999.649V63.6748ZM1005.7 71.6113C1006.82 71.6113 1007.68 70.8252 1007.68 69.7998V69.2188L1005.78 69.335C1004.82 69.3965 1004.28 69.8203 1004.28 70.4902C1004.28 71.167 1004.84 71.6113 1005.7 71.6113ZM1005.43 72.623C1004.02 72.623 1003.07 71.7686 1003.07 70.4902C1003.07 69.2734 1004 68.5078 1005.64 68.4121L1007.68 68.2959V67.7012C1007.68 66.833 1007.11 66.3135 1006.12 66.3135C1005.21 66.3135 1004.63 66.7441 1004.48 67.4414H1003.33C1003.42 66.2109 1004.47 65.2676 1006.15 65.2676C1007.82 65.2676 1008.87 66.1699 1008.87 67.585V72.5H1007.74V71.2764H1007.72C1007.29 72.0898 1006.39 72.623 1005.43 72.623ZM1010.38 72.5V65.3906H1011.5V66.5527H1011.53C1011.76 65.7666 1012.42 65.2676 1013.25 65.2676C1013.46 65.2676 1013.64 65.3018 1013.73 65.3154V66.4707C1013.64 66.4365 1013.38 66.4023 1013.1 66.4023C1012.17 66.4023 1011.57 67.0654 1011.57 68.0703V72.5H1010.38ZM1017.76 62.6357H1021.28C1023.13 62.6357 1024.44 63.9346 1024.44 65.8008C1024.44 67.6738 1023.12 68.9795 1021.26 68.9795H1018.99V72.5H1017.76V62.6357ZM1018.99 63.7295V67.8857H1020.96C1022.37 67.8857 1023.17 67.1133 1023.17 65.8008C1023.17 64.4951 1022.37 63.7295 1020.96 63.7295H1018.99ZM1028.18 66.2998C1027.06 66.2998 1026.28 67.1543 1026.21 68.3369H1030.07C1030.04 67.1475 1029.3 66.2998 1028.18 66.2998ZM1030.04 70.4629H1031.21C1031.01 71.707 1029.8 72.623 1028.25 72.623C1026.21 72.623 1024.98 71.208 1024.98 68.9727C1024.98 66.7646 1026.23 65.2676 1028.2 65.2676C1030.12 65.2676 1031.3 66.6621 1031.3 68.8154V69.2666H1026.2V69.335C1026.2 70.6953 1027 71.5908 1028.28 71.5908C1029.18 71.5908 1029.84 71.1328 1030.04 70.4629ZM1035.18 65.2676C1036.21 65.2676 1037.03 65.7734 1037.49 66.5938H1037.51V65.3906H1038.65V74.8721H1037.46V71.3105H1037.43C1036.99 72.124 1036.16 72.623 1035.16 72.623C1033.36 72.623 1032.15 71.1738 1032.15 68.9453C1032.15 66.71 1033.36 65.2676 1035.18 65.2676ZM1035.39 71.5771C1036.61 71.5771 1037.46 70.5312 1037.46 68.9453C1037.46 67.3594 1036.61 66.3135 1035.39 66.3135C1034.15 66.3135 1033.37 67.3184 1033.37 68.9453C1033.37 70.5654 1034.15 71.5771 1035.39 71.5771ZM1046.04 65.3906V72.5H1044.91V71.3447H1044.88C1044.46 72.165 1043.72 72.623 1042.63 72.623C1041.08 72.623 1040.17 71.6182 1040.17 70.0049V65.3906H1041.36V69.793C1041.36 70.9482 1041.9 71.5703 1043 71.5703C1044.15 71.5703 1044.85 70.7773 1044.85 69.5674V65.3906H1046.04ZM1050.43 66.2998C1049.32 66.2998 1048.54 67.1543 1048.46 68.3369H1052.33C1052.3 67.1475 1051.55 66.2998 1050.43 66.2998ZM1052.3 70.4629H1053.47C1053.26 71.707 1052.06 72.623 1050.51 72.623C1048.47 72.623 1047.23 71.208 1047.23 68.9727C1047.23 66.7646 1048.49 65.2676 1050.45 65.2676C1052.38 65.2676 1053.56 66.6621 1053.56 68.8154V69.2666H1048.46V69.335C1048.46 70.6953 1049.26 71.5908 1050.54 71.5908C1051.44 71.5908 1052.1 71.1328 1052.3 70.4629ZM1054.76 72.5V65.3906H1055.88V66.5254H1055.91C1056.31 65.7598 1057.06 65.2676 1058.17 65.2676C1059.72 65.2676 1060.63 66.2725 1060.63 67.8857V72.5H1059.44V68.0977C1059.44 66.9492 1058.9 66.3203 1057.8 66.3203C1056.68 66.3203 1055.95 67.1133 1055.95 68.3164V72.5H1054.76ZM1058.62 64.3105C1057.71 64.3105 1057.37 63.2715 1056.83 63.2715C1056.52 63.2715 1056.32 63.6064 1056.35 64.2422H1055.54C1055.54 63.1211 1056.06 62.499 1056.84 62.499C1057.8 62.499 1058.11 63.5381 1058.62 63.5381C1058.91 63.5381 1059.09 63.2168 1059.09 62.5605H1059.9C1059.9 63.6543 1059.36 64.3105 1058.62 64.3105ZM1065.09 72.623C1063.12 72.623 1061.79 71.208 1061.79 68.9453C1061.79 66.6758 1063.12 65.2676 1065.09 65.2676C1067.05 65.2676 1068.38 66.6758 1068.38 68.9453C1068.38 71.208 1067.05 72.623 1065.09 72.623ZM1065.09 71.5771C1066.35 71.5771 1067.17 70.6201 1067.17 68.9453C1067.17 67.2705 1066.35 66.3135 1065.09 66.3135C1063.83 66.3135 1063 67.2705 1063 68.9453C1063 70.6201 1063.83 71.5771 1065.09 71.5771ZM1069.46 67.3525C1069.46 66.1357 1070.54 65.2676 1072.11 65.2676C1073.58 65.2676 1074.66 66.1426 1074.71 67.3457H1073.58C1073.5 66.6621 1072.94 66.2383 1072.07 66.2383C1071.2 66.2383 1070.63 66.6689 1070.63 67.291C1070.63 67.7832 1071 68.1113 1071.81 68.3164L1072.91 68.583C1074.35 68.9453 1074.87 69.4648 1074.87 70.5107C1074.87 71.748 1073.7 72.623 1072.04 72.623C1070.48 72.623 1069.39 71.7754 1069.27 70.5176H1070.46C1070.59 71.2559 1071.15 71.6523 1072.11 71.6523C1073.07 71.6523 1073.67 71.2422 1073.67 70.5996C1073.67 70.0938 1073.38 69.8203 1072.58 69.6084L1071.32 69.2871C1070.07 68.9658 1069.46 68.3232 1069.46 67.3525ZM1085.57 72.5L1084.58 69.6768H1080.66L1079.66 72.5H1078.37L1082.01 62.6357H1083.23L1086.86 72.5H1085.57ZM1082.6 64.1328L1081.02 68.6309H1084.22L1082.64 64.1328H1082.6ZM1093.58 67.7217H1092.41C1092.24 66.9492 1091.64 66.3135 1090.59 66.3135C1089.36 66.3135 1088.53 67.332 1088.53 68.9453C1088.53 70.5996 1089.38 71.5771 1090.61 71.5771C1091.58 71.5771 1092.21 71.0645 1092.42 70.21H1093.59C1093.4 71.625 1092.21 72.623 1090.6 72.623C1088.63 72.623 1087.32 71.2354 1087.32 68.9453C1087.32 66.7031 1088.63 65.2676 1090.59 65.2676C1092.37 65.2676 1093.42 66.4434 1093.58 67.7217ZM1095.07 63.6748H1096.25V65.3906H1097.64V66.3682H1096.25V70.5928C1096.25 71.2422 1096.53 71.5361 1097.14 71.5361C1097.27 71.5361 1097.55 71.5156 1097.63 71.502V72.5C1097.49 72.5342 1097.16 72.5547 1096.88 72.5547C1095.57 72.5547 1095.07 72.0215 1095.07 70.6543V66.3682H1094.01V65.3906H1095.07V63.6748ZM1098.97 72.5V65.3906H1100.16V72.5H1098.97ZM1099.56 64.1943C1099.16 64.1943 1098.83 63.8594 1098.83 63.4561C1098.83 63.0459 1099.16 62.7178 1099.56 62.7178C1099.97 62.7178 1100.31 63.0459 1100.31 63.4561C1100.31 63.8594 1099.97 64.1943 1099.56 64.1943ZM1107.6 65.3906L1104.98 72.5H1103.77L1101.15 65.3906H1102.4L1104.36 71.2354H1104.39L1106.36 65.3906H1107.6ZM1111.27 72.623C1109.3 72.623 1107.98 71.208 1107.98 68.9453C1107.98 66.6758 1109.3 65.2676 1111.27 65.2676C1113.24 65.2676 1114.56 66.6758 1114.56 68.9453C1114.56 71.208 1113.24 72.623 1111.27 72.623ZM1111.27 71.5771C1112.53 71.5771 1113.35 70.6201 1113.35 68.9453C1113.35 67.2705 1112.53 66.3135 1111.27 66.3135C1110.02 66.3135 1109.19 67.2705 1109.19 68.9453C1109.19 70.6201 1110.02 71.5771 1111.27 71.5771ZM1115.64 67.3525C1115.64 66.1357 1116.73 65.2676 1118.29 65.2676C1119.76 65.2676 1120.84 66.1426 1120.9 67.3457H1119.76C1119.68 66.6621 1119.13 66.2383 1118.25 66.2383C1117.38 66.2383 1116.81 66.6689 1116.81 67.291C1116.81 67.7832 1117.19 68.1113 1117.99 68.3164L1119.09 68.583C1120.53 68.9453 1121.05 69.4648 1121.05 70.5107C1121.05 71.748 1119.88 72.623 1118.22 72.623C1116.66 72.623 1115.57 71.7754 1115.45 70.5176H1116.64C1116.77 71.2559 1117.33 71.6523 1118.29 71.6523C1119.26 71.6523 1119.85 71.2422 1119.85 70.5996C1119.85 70.0938 1119.56 69.8203 1118.76 69.6084L1117.51 69.2871C1116.26 68.9658 1115.64 68.3232 1115.64 67.3525Z" fill="#232425"/>
<path d="M1134 63.9275C1134.48 63.9275 1134.86 64.2931 1134.86 64.7441C1134.86 65.1951 1134.48 65.5607 1134 65.5607C1133.52 65.5607 1133.14 65.1951 1133.14 64.7441C1133.14 64.2931 1133.52 63.9275 1134 63.9275Z" fill="#A2A9B6"/>
<path d="M1134 71.5931C1133.59 71.5931 1133.25 71.2573 1133.25 70.8431V67.1411C1133.25 66.7269 1133.59 66.3911 1134 66.3911C1134.42 66.3911 1134.75 66.7269 1134.75 67.1411V70.8431C1134.75 71.2573 1134.42 71.5931 1134 71.5931Z" fill="#A2A9B6"/>
<path fill-rule="evenodd" clip-rule="evenodd" d="M1141 67.5C1141 71.366 1137.87 74.5 1134 74.5C1130.13 74.5 1127 71.366 1127 67.5C1127 63.634 1130.13 60.5 1134 60.5C1137.87 60.5 1141 63.634 1141 67.5ZM1139.5 67.5C1139.5 64.4624 1137.04 62 1134 62C1130.96 62 1128.5 64.4624 1128.5 67.5C1128.5 70.5376 1130.96 73 1134 73C1137.04 73 1139.5 70.5376 1139.5 67.5Z" fill="#A2A9B6"/>
<rect x="24" y="126" width="1118" height="40" rx="6" fill="#F7F8FA"/>
<path d="M44.2188 150.135C41.916 150.135 40.4512 148.43 40.4512 145.752C40.4512 143.104 41.9219 141.41 44.2188 141.41C46.0059 141.41 47.418 142.576 47.6465 144.229H46.8438C46.6094 143.01 45.5312 142.154 44.2188 142.154C42.4258 142.154 41.2715 143.555 41.2715 145.752C41.2715 147.979 42.4258 149.391 44.2246 149.391C45.5723 149.391 46.5918 148.67 46.8438 147.498H47.6465C47.3477 149.145 46.0527 150.135 44.2188 150.135ZM48.707 150V143.906H49.4395V144.99H49.457C49.6797 144.246 50.248 143.807 50.998 143.807C51.2031 143.807 51.3848 143.848 51.4785 143.871V144.633C51.3789 144.586 51.1621 144.545 50.8984 144.545C50.0312 144.545 49.4805 145.219 49.4805 146.203V150H48.707ZM52.3691 150V143.906H53.1426V150H52.3691ZM52.7559 142.676C52.4746 142.676 52.2402 142.447 52.2402 142.16C52.2402 141.879 52.4746 141.65 52.7559 141.65C53.043 141.65 53.2773 141.879 53.2773 142.16C53.2773 142.447 53.043 142.676 52.7559 142.676ZM57.3848 143.807C58.9258 143.807 59.9805 145.061 59.9805 146.953C59.9805 148.852 58.9316 150.1 57.4023 150.1C56.418 150.1 55.6504 149.537 55.3281 148.746H55.3047V152.016H54.5312V143.906H55.2637V145.195H55.2871C55.6211 144.387 56.3945 143.807 57.3848 143.807ZM57.25 149.414C58.4277 149.414 59.1895 148.441 59.1895 146.953C59.1895 145.471 58.4277 144.492 57.25 144.492C56.0957 144.492 55.3047 145.488 55.3047 146.953C55.3047 148.424 56.0957 149.414 57.25 149.414ZM61.3574 142.383H62.1309V143.906H63.332V144.551H62.1309V148.465C62.1309 149.092 62.377 149.361 62.9395 149.361C63.0215 149.361 63.3145 149.35 63.3613 149.338V150C63.2793 150.018 62.9512 150.035 62.7871 150.035C61.7676 150.035 61.3574 149.602 61.3574 148.5V144.551H60.4492V143.906H61.3574V142.383ZM66.6953 150.1C65.0371 150.1 63.918 148.887 63.918 146.953C63.918 145.014 65.043 143.807 66.6953 143.807C68.3535 143.807 69.4727 145.014 69.4727 146.953C69.4727 148.887 68.3535 150.1 66.6953 150.1ZM66.6953 149.414C67.8906 149.414 68.6875 148.5 68.6875 146.953C68.6875 145.406 67.8906 144.492 66.6953 144.492C65.5 144.492 64.709 145.406 64.709 146.953C64.709 148.5 65.5 149.414 66.6953 149.414Z" fill="#87909F"/>
<path d="M74 144L76.5 141L79 144H74Z" fill="#BFBFBF"/>
<path d="M79 148L76.5 151L74 148L79 148Z" fill="#BFBFBF"/>
<path d="M314.415 150H313.612V142.271H310.823V141.545H317.209V142.271H314.415V150ZM319.073 150.1C317.415 150.1 316.295 148.887 316.295 146.953C316.295 145.014 317.42 143.807 319.073 143.807C320.731 143.807 321.85 145.014 321.85 146.953C321.85 148.887 320.731 150.1 319.073 150.1ZM319.073 149.414C320.268 149.414 321.065 148.5 321.065 146.953C321.065 145.406 320.268 144.492 319.073 144.492C317.877 144.492 317.086 145.406 317.086 146.953C317.086 148.5 317.877 149.414 319.073 149.414ZM323.215 142.383H323.989V143.906H325.19V144.551H323.989V148.465C323.989 149.092 324.235 149.361 324.797 149.361C324.879 149.361 325.172 149.35 325.219 149.338V150C325.137 150.018 324.809 150.035 324.645 150.035C323.625 150.035 323.215 149.602 323.215 148.5V144.551H322.307V143.906H323.215V142.383ZM328.079 149.432C329.145 149.432 329.983 148.676 329.983 147.709V147.035L328.178 147.158C327.217 147.223 326.684 147.639 326.684 148.312C326.684 148.975 327.252 149.432 328.079 149.432ZM327.92 150.1C326.719 150.1 325.899 149.379 325.899 148.312C325.899 147.27 326.678 146.637 328.084 146.543L329.983 146.426V145.898C329.983 145.02 329.426 144.492 328.477 144.492C327.581 144.492 327.006 144.932 326.872 145.67H326.122C326.209 144.58 327.106 143.807 328.495 143.807C329.883 143.807 330.756 144.586 330.756 145.828V150H330.018V148.84H330C329.661 149.596 328.829 150.1 327.92 150.1ZM332.11 150V141.545H332.883V150H332.11Z" fill="#87909F"/>
<path d="M338.6 144L341.1 141L343.6 144H338.6Z" fill="#BFBFBF"/>
<path d="M343.6 148L341.1 151L338.6 148L343.6 148Z" fill="#BFBFBF"/>
<path d="M447.581 147.703H448.384C448.472 148.717 449.427 149.408 450.751 149.408C452.017 149.408 452.925 148.717 452.925 147.768C452.925 146.977 452.38 146.508 451.126 146.191L450.077 145.922C448.513 145.523 447.815 144.861 447.815 143.748C447.815 142.383 449.046 141.41 450.71 141.41C452.356 141.41 453.563 142.383 453.61 143.725H452.808C452.731 142.77 451.888 142.137 450.687 142.137C449.515 142.137 448.647 142.787 448.647 143.719C448.647 144.445 449.175 144.873 450.417 145.189L451.331 145.424C453.03 145.852 453.745 146.502 453.745 147.68C453.745 149.162 452.55 150.135 450.681 150.135C448.911 150.135 447.669 149.156 447.581 147.703ZM456.757 149.432C457.823 149.432 458.661 148.676 458.661 147.709V147.035L456.856 147.158C455.896 147.223 455.362 147.639 455.362 148.312C455.362 148.975 455.931 149.432 456.757 149.432ZM456.599 150.1C455.397 150.1 454.577 149.379 454.577 148.312C454.577 147.27 455.356 146.637 456.763 146.543L458.661 146.426V145.898C458.661 145.02 458.104 144.492 457.155 144.492C456.259 144.492 455.685 144.932 455.55 145.67H454.8C454.888 144.58 455.784 143.807 457.173 143.807C458.562 143.807 459.435 144.586 459.435 145.828V150H458.696V148.84H458.679C458.339 149.596 457.507 150.1 456.599 150.1ZM460.788 150V141.545H461.562V150H460.788ZM465.253 150.1C463.712 150.1 462.646 148.846 462.646 146.953C462.646 145.055 463.706 143.807 465.235 143.807C466.22 143.807 466.999 144.369 467.321 145.16H467.339V141.545H468.118V150H467.38V148.711H467.362C467.017 149.531 466.237 150.1 465.253 150.1ZM465.388 144.492C464.216 144.492 463.442 145.465 463.442 146.953C463.442 148.441 464.216 149.414 465.388 149.414C466.548 149.414 467.345 148.43 467.345 146.953C467.345 145.482 466.548 144.492 465.388 144.492ZM471.985 150.1C470.327 150.1 469.208 148.887 469.208 146.953C469.208 145.014 470.333 143.807 471.985 143.807C473.644 143.807 474.763 145.014 474.763 146.953C474.763 148.887 473.644 150.1 471.985 150.1ZM471.985 149.414C473.181 149.414 473.978 148.5 473.978 146.953C473.978 145.406 473.181 144.492 471.985 144.492C470.79 144.492 469.999 145.406 469.999 146.953C469.999 148.5 470.79 149.414 471.985 149.414ZM478.378 141.545H481.12C483.651 141.545 485.128 143.098 485.128 145.77C485.128 148.447 483.657 150 481.12 150H478.378V141.545ZM479.181 142.271V149.273H481.073C483.153 149.273 484.313 148.02 484.313 145.775C484.313 143.525 483.153 142.271 481.073 142.271H479.181ZM486.358 150V143.906H487.132V150H486.358ZM486.745 142.676C486.464 142.676 486.229 142.447 486.229 142.16C486.229 141.879 486.464 141.65 486.745 141.65C487.032 141.65 487.267 141.879 487.267 142.16C487.267 142.447 487.032 142.676 486.745 142.676ZM488.397 145.535C488.397 144.527 489.3 143.807 490.589 143.807C491.837 143.807 492.728 144.539 492.804 145.611H492.06C491.966 144.891 491.409 144.445 490.565 144.445C489.733 144.445 489.165 144.885 489.165 145.494C489.165 145.992 489.522 146.297 490.337 146.496L491.239 146.713C492.458 147.018 492.915 147.463 492.915 148.336C492.915 149.367 491.948 150.1 490.571 150.1C489.265 150.1 488.321 149.367 488.222 148.295H488.995C489.106 149.016 489.704 149.461 490.618 149.461C491.532 149.461 492.136 149.033 492.136 148.395C492.136 147.867 491.831 147.586 491.017 147.387L490.026 147.141C488.925 146.865 488.397 146.344 488.397 145.535ZM496.812 143.807C498.353 143.807 499.407 145.061 499.407 146.953C499.407 148.852 498.358 150.1 496.829 150.1C495.845 150.1 495.077 149.537 494.755 148.746H494.731V152.016H493.958V143.906H494.69V145.195H494.714C495.048 144.387 495.821 143.807 496.812 143.807ZM496.677 149.414C497.854 149.414 498.616 148.441 498.616 146.953C498.616 145.471 497.854 144.492 496.677 144.492C495.522 144.492 494.731 145.488 494.731 146.953C494.731 148.424 495.522 149.414 496.677 149.414ZM502.923 150.1C501.265 150.1 500.146 148.887 500.146 146.953C500.146 145.014 501.271 143.807 502.923 143.807C504.581 143.807 505.7 145.014 505.7 146.953C505.7 148.887 504.581 150.1 502.923 150.1ZM502.923 149.414C504.118 149.414 504.915 148.5 504.915 146.953C504.915 145.406 504.118 144.492 502.923 144.492C501.728 144.492 500.937 145.406 500.937 146.953C500.937 148.5 501.728 149.414 502.923 149.414ZM506.731 150V143.906H507.464V145.031H507.481C507.792 144.293 508.507 143.807 509.491 143.807C510.827 143.807 511.647 144.668 511.647 146.051V150H510.874V146.174C510.874 145.107 510.288 144.498 509.269 144.498C508.214 144.498 507.505 145.26 507.505 146.391V150H506.731ZM513.007 150V143.906H513.78V150H513.007ZM513.394 142.676C513.112 142.676 512.878 142.447 512.878 142.16C512.878 141.879 513.112 141.65 513.394 141.65C513.681 141.65 513.915 141.879 513.915 142.16C513.915 142.447 513.681 142.676 513.394 142.676ZM518.099 150.1C517.126 150.1 516.347 149.566 515.983 148.711H515.966V150H515.222V141.545H516.001V145.178H516.019C516.364 144.34 517.149 143.807 518.104 143.807C519.634 143.807 520.677 145.055 520.677 146.953C520.677 148.852 519.634 150.1 518.099 150.1ZM517.952 144.492C516.81 144.492 515.995 145.494 515.995 146.953C515.995 148.418 516.804 149.414 517.952 149.414C519.124 149.414 519.88 148.447 519.88 146.953C519.88 145.465 519.124 144.492 517.952 144.492ZM521.772 150V141.545H522.546V150H521.772ZM526.343 144.486C525.253 144.486 524.497 145.324 524.433 146.525H528.194C528.177 145.324 527.444 144.486 526.343 144.486ZM528.147 148.271H528.915C528.733 149.326 527.743 150.1 526.401 150.1C524.69 150.1 523.63 148.904 523.63 146.971C523.63 145.078 524.702 143.807 526.354 143.807C527.972 143.807 528.991 144.996 528.991 146.812V147.141H524.427V147.188C524.427 148.564 525.206 149.42 526.419 149.42C527.339 149.42 527.978 148.939 528.147 148.271Z" fill="#87909F"/>
<path d="M534.2 144L536.7 141L539.2 144H534.2Z" fill="#BFBFBF"/>
<path d="M539.2 148L536.7 151L534.2 148L539.2 148Z" fill="#BFBFBF"/>
<path d="M641.181 147.703H641.984C642.072 148.717 643.027 149.408 644.351 149.408C645.617 149.408 646.525 148.717 646.525 147.768C646.525 146.977 645.98 146.508 644.726 146.191L643.677 145.922C642.113 145.523 641.416 144.861 641.416 143.748C641.416 142.383 642.646 141.41 644.31 141.41C645.957 141.41 647.164 142.383 647.21 143.725H646.408C646.332 142.77 645.488 142.137 644.287 142.137C643.115 142.137 642.248 142.787 642.248 143.719C642.248 144.445 642.775 144.873 644.017 145.189L644.931 145.424C646.63 145.852 647.345 146.502 647.345 147.68C647.345 149.162 646.15 150.135 644.281 150.135C642.511 150.135 641.269 149.156 641.181 147.703ZM650.357 149.432C651.423 149.432 652.261 148.676 652.261 147.709V147.035L650.457 147.158C649.496 147.223 648.962 147.639 648.962 148.312C648.962 148.975 649.531 149.432 650.357 149.432ZM650.199 150.1C648.998 150.1 648.177 149.379 648.177 148.312C648.177 147.27 648.957 146.637 650.363 146.543L652.261 146.426V145.898C652.261 145.02 651.705 144.492 650.755 144.492C649.859 144.492 649.285 144.932 649.15 145.67H648.4C648.488 144.58 649.384 143.807 650.773 143.807C652.162 143.807 653.035 144.586 653.035 145.828V150H652.296V148.84H652.279C651.939 149.596 651.107 150.1 650.199 150.1ZM654.388 150V141.545H655.162V150H654.388ZM658.853 150.1C657.312 150.1 656.246 148.846 656.246 146.953C656.246 145.055 657.306 143.807 658.835 143.807C659.82 143.807 660.599 144.369 660.921 145.16H660.939V141.545H661.718V150H660.98V148.711H660.962C660.617 149.531 659.837 150.1 658.853 150.1ZM658.988 144.492C657.816 144.492 657.042 145.465 657.042 146.953C657.042 148.441 657.816 149.414 658.988 149.414C660.148 149.414 660.945 148.43 660.945 146.953C660.945 145.482 660.148 144.492 658.988 144.492ZM665.585 150.1C663.927 150.1 662.808 148.887 662.808 146.953C662.808 145.014 663.933 143.807 665.585 143.807C667.244 143.807 668.363 145.014 668.363 146.953C668.363 148.887 667.244 150.1 665.585 150.1ZM665.585 149.414C666.781 149.414 667.578 148.5 667.578 146.953C667.578 145.406 666.781 144.492 665.585 144.492C664.39 144.492 663.599 145.406 663.599 146.953C663.599 148.5 664.39 149.414 665.585 149.414ZM675.406 150.135C673.103 150.135 671.638 148.43 671.638 145.752C671.638 143.104 673.109 141.41 675.406 141.41C677.193 141.41 678.605 142.576 678.833 144.229H678.031C677.796 143.01 676.718 142.154 675.406 142.154C673.613 142.154 672.458 143.555 672.458 145.752C672.458 147.979 673.613 149.391 675.412 149.391C676.759 149.391 677.779 148.67 678.031 147.498H678.833C678.535 149.145 677.24 150.135 675.406 150.135ZM682.367 150.1C680.708 150.1 679.589 148.887 679.589 146.953C679.589 145.014 680.714 143.807 682.367 143.807C684.025 143.807 685.144 145.014 685.144 146.953C685.144 148.887 684.025 150.1 682.367 150.1ZM682.367 149.414C683.562 149.414 684.359 148.5 684.359 146.953C684.359 145.406 683.562 144.492 682.367 144.492C681.171 144.492 680.38 145.406 680.38 146.953C680.38 148.5 681.171 149.414 682.367 149.414ZM686.175 150V143.906H686.908V145.031H686.925C687.236 144.293 687.951 143.807 688.935 143.807C690.271 143.807 691.091 144.668 691.091 146.051V150H690.318V146.174C690.318 145.107 689.732 144.498 688.712 144.498C687.658 144.498 686.949 145.26 686.949 146.391V150H686.175ZM694.806 149.373C695.978 149.373 696.769 148.395 696.769 146.936C696.769 145.477 695.978 144.492 694.806 144.492C693.658 144.492 692.89 145.459 692.89 146.941C692.89 148.412 693.658 149.373 694.806 149.373ZM694.882 152.256C693.552 152.256 692.55 151.523 692.38 150.562H693.183C693.382 151.16 694.033 151.588 694.917 151.588C696.06 151.588 696.769 150.926 696.769 149.93V148.705H696.751C696.423 149.49 695.638 150.059 694.666 150.059C693.125 150.059 692.093 148.822 692.093 146.936C692.093 145.043 693.125 143.807 694.683 143.807C695.656 143.807 696.435 144.363 696.792 145.195H696.81V143.906H697.548V149.9C697.548 151.318 696.511 152.256 694.882 152.256ZM701.298 144.486C700.208 144.486 699.453 145.324 699.388 146.525H703.15C703.132 145.324 702.4 144.486 701.298 144.486ZM703.103 148.271H703.871C703.689 149.326 702.699 150.1 701.357 150.1C699.646 150.1 698.585 148.904 698.585 146.971C698.585 145.078 699.658 143.807 701.31 143.807C702.927 143.807 703.947 144.996 703.947 146.812V147.141H699.382V147.188C699.382 148.564 700.162 149.42 701.375 149.42C702.294 149.42 702.933 148.939 703.103 148.271ZM705.037 150V141.545H705.81V150H705.037ZM709.162 149.432C710.228 149.432 711.066 148.676 711.066 147.709V147.035L709.261 147.158C708.3 147.223 707.767 147.639 707.767 148.312C707.767 148.975 708.335 149.432 709.162 149.432ZM709.003 150.1C707.802 150.1 706.982 149.379 706.982 148.312C706.982 147.27 707.761 146.637 709.167 146.543L711.066 146.426V145.898C711.066 145.02 710.509 144.492 709.56 144.492C708.664 144.492 708.089 144.932 707.955 145.67H707.205C707.292 144.58 708.189 143.807 709.578 143.807C710.966 143.807 711.839 144.586 711.839 145.828V150H711.101V148.84H711.083C710.744 149.596 709.912 150.1 709.003 150.1ZM715.443 150.1C713.902 150.1 712.835 148.846 712.835 146.953C712.835 145.055 713.896 143.807 715.425 143.807C716.41 143.807 717.189 144.369 717.511 145.16H717.529V141.545H718.308V150H717.57V148.711H717.552C717.207 149.531 716.427 150.1 715.443 150.1ZM715.578 144.492C714.406 144.492 713.632 145.465 713.632 146.953C713.632 148.441 714.406 149.414 715.578 149.414C716.738 149.414 717.535 148.43 717.535 146.953C717.535 145.482 716.738 144.492 715.578 144.492ZM722.175 150.1C720.517 150.1 719.398 148.887 719.398 146.953C719.398 145.014 720.523 143.807 722.175 143.807C723.833 143.807 724.953 145.014 724.953 146.953C724.953 148.887 723.833 150.1 722.175 150.1ZM722.175 149.414C723.371 149.414 724.167 148.5 724.167 146.953C724.167 145.406 723.371 144.492 722.175 144.492C720.98 144.492 720.189 145.406 720.189 146.953C720.189 148.5 720.98 149.414 722.175 149.414Z" fill="#87909F"/>
<path d="M729.8 144L732.3 141L734.8 144H729.8Z" fill="#BFBFBF"/>
<path d="M734.8 148L732.3 151L729.8 148L734.8 148Z" fill="#BFBFBF"/>
<path d="M842.496 150H841.699L838.535 141.545H839.384L842.08 149.004H842.115L844.816 141.545H845.66L842.496 150ZM847.593 149.432C848.66 149.432 849.498 148.676 849.498 147.709V147.035L847.693 147.158C846.732 147.223 846.199 147.639 846.199 148.312C846.199 148.975 846.767 149.432 847.593 149.432ZM847.435 150.1C846.234 150.1 845.414 149.379 845.414 148.312C845.414 147.27 846.193 146.637 847.599 146.543L849.498 146.426V145.898C849.498 145.02 848.941 144.492 847.992 144.492C847.095 144.492 846.521 144.932 846.386 145.67H845.636C845.724 144.58 846.621 143.807 848.009 143.807C849.398 143.807 850.271 144.586 850.271 145.828V150H849.533V148.84H849.515C849.175 149.596 848.343 150.1 847.435 150.1ZM851.625 150V141.545H852.398V150H851.625ZM856.259 150.1C854.601 150.1 853.482 148.887 853.482 146.953C853.482 145.014 854.607 143.807 856.259 143.807C857.917 143.807 859.037 145.014 859.037 146.953C859.037 148.887 857.917 150.1 856.259 150.1ZM856.259 149.414C857.455 149.414 858.251 148.5 858.251 146.953C858.251 145.406 857.455 144.492 856.259 144.492C855.064 144.492 854.273 145.406 854.273 146.953C854.273 148.5 855.064 149.414 856.259 149.414ZM860.068 150V143.906H860.8V144.99H860.818C861.041 144.246 861.609 143.807 862.359 143.807C862.564 143.807 862.746 143.848 862.839 143.871V144.633C862.74 144.586 862.523 144.545 862.259 144.545C861.392 144.545 860.841 145.219 860.841 146.203V150H860.068ZM865.453 149.432C866.519 149.432 867.357 148.676 867.357 147.709V147.035L865.552 147.158C864.591 147.223 864.058 147.639 864.058 148.312C864.058 148.975 864.626 149.432 865.453 149.432ZM865.294 150.1C864.093 150.1 863.273 149.379 863.273 148.312C863.273 147.27 864.052 146.637 865.458 146.543L867.357 146.426V145.898C867.357 145.02 866.8 144.492 865.851 144.492C864.955 144.492 864.38 144.932 864.246 145.67H863.496C863.583 144.58 864.48 143.807 865.869 143.807C867.257 143.807 868.13 144.586 868.13 145.828V150H867.392V148.84H867.375C867.035 149.596 866.203 150.1 865.294 150.1ZM874.388 145.834H873.626C873.462 145.084 872.847 144.492 871.886 144.492C870.697 144.492 869.917 145.447 869.917 146.953C869.917 148.482 870.703 149.414 871.892 149.414C872.812 149.414 873.451 148.904 873.626 148.113H874.394C874.224 149.279 873.234 150.1 871.886 150.1C870.222 150.1 869.126 148.904 869.126 146.953C869.126 145.031 870.222 143.807 871.88 143.807C873.316 143.807 874.236 144.744 874.388 145.834ZM875.414 150V143.906H876.187V150H875.414ZM875.8 142.676C875.519 142.676 875.285 142.447 875.285 142.16C875.285 141.879 875.519 141.65 875.8 141.65C876.087 141.65 876.322 141.879 876.322 142.16C876.322 142.447 876.087 142.676 875.8 142.676ZM880.048 150.1C878.39 150.1 877.271 148.887 877.271 146.953C877.271 145.014 878.396 143.807 880.048 143.807C881.707 143.807 882.826 145.014 882.826 146.953C882.826 148.887 881.707 150.1 880.048 150.1ZM880.048 149.414C881.244 149.414 882.041 148.5 882.041 146.953C882.041 145.406 881.244 144.492 880.048 144.492C878.853 144.492 878.062 145.406 878.062 146.953C878.062 148.5 878.853 149.414 880.048 149.414ZM880.365 142.98H879.667L880.951 141.211H881.806L880.365 142.98ZM883.857 150V143.906H884.589V145.031H884.607C884.917 144.293 885.632 143.807 886.617 143.807C887.953 143.807 888.773 144.668 888.773 146.051V150H888V146.174C888 145.107 887.414 144.498 886.394 144.498C885.339 144.498 884.63 145.26 884.63 146.391V150H883.857ZM893.46 141.545V147C893.46 148.418 894.386 149.391 895.933 149.391C897.486 149.391 898.406 148.418 898.406 147V141.545H899.208V147.047C899.208 148.869 897.966 150.135 895.933 150.135C893.9 150.135 892.664 148.869 892.664 147.047V141.545H893.46ZM900.375 147.703H901.177C901.265 148.717 902.22 149.408 903.544 149.408C904.81 149.408 905.718 148.717 905.718 147.768C905.718 146.977 905.173 146.508 903.919 146.191L902.871 145.922C901.306 145.523 900.609 144.861 900.609 143.748C900.609 142.383 901.839 141.41 903.503 141.41C905.15 141.41 906.357 142.383 906.404 143.725H905.601C905.525 142.77 904.681 142.137 903.48 142.137C902.308 142.137 901.441 142.787 901.441 143.719C901.441 144.445 901.968 144.873 903.21 145.189L904.125 145.424C905.824 145.852 906.539 146.502 906.539 147.68C906.539 149.162 905.343 150.135 903.474 150.135C901.705 150.135 900.462 149.156 900.375 147.703ZM907.71 141.545H910.453C912.984 141.545 914.46 143.098 914.46 145.77C914.46 148.447 912.99 150 910.453 150H907.71V141.545ZM908.513 142.271V149.273H910.406C912.486 149.273 913.646 148.02 913.646 145.775C913.646 143.525 912.486 142.271 910.406 142.271H908.513ZM918.164 150H917.361V142.271H914.572V141.545H920.958V142.271H918.164V150Z" fill="#87909F"/>
<path d="M925.4 144L927.9 141L930.4 144H925.4Z" fill="#BFBFBF"/>
<path d="M930.4 148L927.9 151L925.4 148L930.4 148Z" fill="#BFBFBF"/>
<path d="M1098.41 150L1097.47 147.41H1093.92L1092.98 150H1092.13L1095.3 141.545H1096.1L1099.25 150H1098.41ZM1095.68 142.535L1094.16 146.719H1097.23L1095.71 142.535H1095.68ZM1104.87 145.834H1104.11C1103.94 145.084 1103.33 144.492 1102.37 144.492C1101.18 144.492 1100.4 145.447 1100.4 146.953C1100.4 148.482 1101.18 149.414 1102.37 149.414C1103.29 149.414 1103.93 148.904 1104.11 148.113H1104.87C1104.7 149.279 1103.71 150.1 1102.37 150.1C1100.7 150.1 1099.61 148.904 1099.61 146.953C1099.61 145.031 1100.7 143.807 1102.36 143.807C1103.79 143.807 1104.71 144.744 1104.87 145.834ZM1110.8 145.834H1110.04C1109.87 145.084 1109.26 144.492 1108.29 144.492C1107.11 144.492 1106.33 145.447 1106.33 146.953C1106.33 148.482 1107.11 149.414 1108.3 149.414C1109.22 149.414 1109.86 148.904 1110.04 148.113H1110.8C1110.63 149.279 1109.64 150.1 1108.29 150.1C1106.63 150.1 1105.54 148.904 1105.54 146.953C1105.54 145.031 1106.63 143.807 1108.29 143.807C1109.72 143.807 1110.64 144.744 1110.8 145.834ZM1111.82 150V143.906H1112.6V150H1111.82ZM1112.21 142.676C1111.93 142.676 1111.69 142.447 1111.69 142.16C1111.69 141.879 1111.93 141.65 1112.21 141.65C1112.5 141.65 1112.73 141.879 1112.73 142.16C1112.73 142.447 1112.5 142.676 1112.21 142.676ZM1116.46 150.1C1114.8 150.1 1113.68 148.887 1113.68 146.953C1113.68 145.014 1114.8 143.807 1116.46 143.807C1118.12 143.807 1119.23 145.014 1119.23 146.953C1119.23 148.887 1118.12 150.1 1116.46 150.1ZM1116.46 149.414C1117.65 149.414 1118.45 148.5 1118.45 146.953C1118.45 145.406 1117.65 144.492 1116.46 144.492C1115.26 144.492 1114.47 145.406 1114.47 146.953C1114.47 148.5 1115.26 149.414 1116.46 149.414ZM1116.77 142.98H1116.08L1117.36 141.211H1118.21L1116.77 142.98ZM1120.27 150V143.906H1121V145.031H1121.02C1121.33 144.293 1122.04 143.807 1123.03 143.807C1124.36 143.807 1125.18 144.668 1125.18 146.051V150H1124.41V146.174C1124.41 145.107 1123.82 144.498 1122.8 144.498C1121.75 144.498 1121.04 145.26 1121.04 146.391V150H1120.27Z" fill="#87909F"/>
<g clip-path="url(#clip0_65_8771)">
<path d="M60 220C71.0457 220 80 211.046 80 200C80 188.954 71.0457 180 60 180C48.9543 180 40 188.954 40 200C40 211.046 48.9543 220 60 220Z" fill="#F76871"/>
<path d="M59.2532 210.113V208.037C58.0709 207.943 57.0754 207.671 56.2665 207.22C55.4576 206.753 54.7576 206.178 54.1665 205.493L56.0565 203.767C56.5076 204.296 57.0132 204.731 57.5732 205.073C58.1332 205.4 58.7632 205.61 59.4632 205.703V200.967C57.7521 200.609 56.5154 200.064 55.7532 199.333C55.0065 198.587 54.6332 197.638 54.6332 196.487C54.6332 195.242 55.0376 194.247 55.8465 193.5C56.6554 192.738 57.7909 192.271 59.2532 192.1V190H61.5632V192.1C62.5432 192.209 63.3832 192.45 64.0832 192.823C64.7988 193.197 65.4209 193.71 65.9498 194.363L64.0365 196.02C63.7254 195.647 63.3521 195.32 62.9165 195.04C62.4965 194.76 61.9754 194.558 61.3532 194.433V198.773C63.0176 199.162 64.2388 199.707 65.0165 200.407C65.7943 201.091 66.1832 202.04 66.1832 203.253C66.1832 204.451 65.7943 205.486 65.0165 206.357C64.2388 207.212 63.0876 207.749 61.5632 207.967V210.113H59.2532ZM57.4565 196.37C57.4565 196.914 57.6121 197.334 57.9232 197.63C58.2498 197.926 58.7632 198.167 59.4632 198.353V194.41C58.1254 194.643 57.4565 195.297 57.4565 196.37ZM63.3832 203.463C63.3832 202.997 63.2354 202.592 62.9398 202.25C62.6598 201.892 62.1309 201.604 61.3532 201.387V205.68C62.0065 205.54 62.5043 205.276 62.8465 204.887C63.2043 204.482 63.3832 204.008 63.3832 203.463Z" fill="white"/>
</g>
<path d="M102.668 208.5H100.266V196.055H100.184L95.0859 208.371H93.1406L88.0312 196.055H87.9492V208.5H85.5586V191.59H88.5938L94.0664 204.938H94.1602L99.6211 191.59H102.668V208.5ZM104.742 208.5L110.355 200.027V199.945L104.801 191.59H107.93L112.102 198.129H112.195L116.414 191.59H119.379L113.648 200.039V200.109L119.273 208.5H116.203L111.996 202.055H111.914L107.648 208.5H104.742ZM124.02 208.5H121.465V191.59H123.844L132.609 204.059H132.703V191.59H135.258V208.5H132.891L124.125 196.043H124.02V208.5Z" fill="#242826"/>
<path d="M294.608 191.727C292.28 191.727 290.592 190.328 290.506 188.328H292.397C292.522 189.375 293.436 190.094 294.624 190.094C295.967 190.094 296.889 189.156 296.889 187.828C296.889 186.477 295.959 185.523 294.639 185.523C293.717 185.523 292.92 185.945 292.506 186.648H290.678L291.264 180.227H298.17V181.875H292.858L292.569 185.172H292.616C293.084 184.445 294.006 183.992 295.124 183.992C297.28 183.992 298.834 185.578 298.834 187.773C298.834 190.117 297.108 191.727 294.608 191.727ZM304.374 191.727C302.045 191.727 300.358 190.328 300.272 188.328H302.163C302.288 189.375 303.202 190.094 304.389 190.094C305.733 190.094 306.655 189.156 306.655 187.828C306.655 186.477 305.725 185.523 304.405 185.523C303.483 185.523 302.686 185.945 302.272 186.648H300.444L301.03 180.227H307.936V181.875H302.624L302.334 185.172H302.381C302.85 184.445 303.772 183.992 304.889 183.992C307.045 183.992 308.6 185.578 308.6 187.773C308.6 190.117 306.874 191.727 304.374 191.727ZM311.241 191.586C310.608 191.586 310.116 191.094 310.116 190.461C310.116 189.836 310.608 189.336 311.241 189.336C311.866 189.336 312.358 189.836 312.358 190.461C312.358 191.094 311.866 191.586 311.241 191.586ZM316.694 186.477V184.961H318.053C319.209 184.961 319.999 184.25 319.999 183.242C319.999 182.258 319.311 181.602 318.045 181.602C316.881 181.602 316.1 182.281 316.022 183.336H314.147C314.256 181.312 315.811 180 318.139 180C320.358 180 321.936 181.211 321.936 182.969C321.936 184.367 320.999 185.375 319.608 185.617V185.664C321.295 185.789 322.389 186.82 322.389 188.391C322.389 190.383 320.577 191.727 318.116 191.727C315.639 191.727 314.03 190.367 313.928 188.359H315.85C315.944 189.391 316.788 190.078 318.131 190.078C319.428 190.078 320.342 189.352 320.342 188.312C320.342 187.172 319.483 186.477 318.084 186.477H316.694ZM328.139 191.727C325.811 191.727 324.124 190.328 324.038 188.328H325.928C326.053 189.375 326.967 190.094 328.155 190.094C329.499 190.094 330.42 189.156 330.42 187.828C330.42 186.477 329.491 185.523 328.17 185.523C327.249 185.523 326.452 185.945 326.038 186.648H324.209L324.795 180.227H331.702V181.875H326.389L326.1 185.172H326.147C326.616 184.445 327.538 183.992 328.655 183.992C330.811 183.992 332.366 185.578 332.366 187.773C332.366 190.117 330.639 191.727 328.139 191.727ZM337.905 191.727C335.577 191.727 333.889 190.328 333.803 188.328H335.694C335.819 189.375 336.733 190.094 337.92 190.094C339.264 190.094 340.186 189.156 340.186 187.828C340.186 186.477 339.256 185.523 337.936 185.523C337.014 185.523 336.217 185.945 335.803 186.648H333.975L334.561 180.227H341.467V181.875H336.155L335.866 185.172H335.913C336.381 184.445 337.303 183.992 338.42 183.992C340.577 183.992 342.131 185.578 342.131 187.773C342.131 190.117 340.405 191.727 337.905 191.727Z" fill="#0D0E17"/>
<path d="M220.2 211.156C219.467 211.156 219.155 211.762 219.096 212.65H217.329C217.329 210.531 218.295 209.184 220.092 209.184C220.903 209.184 221.528 209.525 222.202 210.15C222.768 210.697 223.168 210.98 223.618 210.98C224.37 210.98 224.682 210.395 224.731 209.496H226.508C226.508 211.605 225.483 212.973 223.745 212.973C222.954 212.973 222.309 212.631 221.616 211.996C221.03 211.439 220.629 211.156 220.2 211.156ZM220.2 215.717C219.467 215.717 219.155 216.322 219.096 217.211H217.329C217.329 215.092 218.295 213.744 220.092 213.744C220.903 213.744 221.528 214.086 222.202 214.711C222.768 215.258 223.168 215.541 223.618 215.541C224.37 215.541 224.682 214.955 224.731 214.057H226.508C226.508 216.166 225.483 217.533 223.745 217.533C222.954 217.533 222.309 217.191 221.616 216.557C221.03 216 220.629 215.717 220.2 215.717ZM234.497 218.783C231.586 218.783 229.477 217.035 229.37 214.535H231.733C231.889 215.844 233.032 216.742 234.516 216.742C236.196 216.742 237.348 215.57 237.348 213.91C237.348 212.221 236.186 211.029 234.536 211.029C233.383 211.029 232.387 211.557 231.87 212.436H229.584L230.317 204.408H238.95V206.469H232.309L231.948 210.59H232.006C232.592 209.682 233.745 209.115 235.141 209.115C237.836 209.115 239.78 211.098 239.78 213.842C239.78 216.771 237.622 218.783 234.497 218.783ZM246.704 218.783C243.793 218.783 241.684 217.035 241.577 214.535H243.94C244.096 215.844 245.239 216.742 246.723 216.742C248.403 216.742 249.555 215.57 249.555 213.91C249.555 212.221 248.393 211.029 246.743 211.029C245.59 211.029 244.594 211.557 244.077 212.436H241.792L242.524 204.408H251.157V206.469H244.516L244.155 210.59H244.213C244.799 209.682 245.952 209.115 247.348 209.115C250.043 209.115 251.987 211.098 251.987 213.842C251.987 216.771 249.829 218.783 246.704 218.783ZM255.288 218.607C254.497 218.607 253.881 217.992 253.881 217.201C253.881 216.42 254.497 215.795 255.288 215.795C256.069 215.795 256.684 216.42 256.684 217.201C256.684 217.992 256.069 218.607 255.288 218.607ZM262.104 212.221V210.326H263.803C265.249 210.326 266.235 209.438 266.235 208.178C266.235 206.947 265.375 206.127 263.793 206.127C262.338 206.127 261.362 206.977 261.264 208.295H258.92C259.057 205.766 261 204.125 263.911 204.125C266.684 204.125 268.657 205.639 268.657 207.836C268.657 209.584 267.485 210.844 265.747 211.146V211.205C267.856 211.361 269.223 212.65 269.223 214.613C269.223 217.104 266.958 218.783 263.881 218.783C260.786 218.783 258.774 217.084 258.647 214.574H261.049C261.167 215.863 262.221 216.723 263.901 216.723C265.522 216.723 266.665 215.814 266.665 214.516C266.665 213.09 265.59 212.221 263.842 212.221H262.104ZM276.411 218.783C273.5 218.783 271.391 217.035 271.284 214.535H273.647C273.803 215.844 274.946 216.742 276.43 216.742C278.11 216.742 279.262 215.57 279.262 213.91C279.262 212.221 278.1 211.029 276.45 211.029C275.297 211.029 274.301 211.557 273.784 212.436H271.499L272.231 204.408H280.864V206.469H274.223L273.862 210.59H273.92C274.506 209.682 275.659 209.115 277.055 209.115C279.75 209.115 281.694 211.098 281.694 213.842C281.694 216.771 279.536 218.783 276.411 218.783ZM288.618 218.783C285.708 218.783 283.598 217.035 283.491 214.535H285.854C286.01 215.844 287.153 216.742 288.637 216.742C290.317 216.742 291.469 215.57 291.469 213.91C291.469 212.221 290.307 211.029 288.657 211.029C287.504 211.029 286.508 211.557 285.991 212.436H283.706L284.438 204.408H293.071V206.469H286.43L286.069 210.59H286.127C286.713 209.682 287.866 209.115 289.262 209.115C291.958 209.115 293.901 211.098 293.901 213.842C293.901 216.771 291.743 218.783 288.618 218.783ZM314.35 218.5H312.084V208.5H312.016L307.944 218.383H306.225L302.153 208.5H302.084V218.5H299.809V204.408H302.729L307.045 215.043H307.124L311.44 204.408H314.35V218.5ZM316.03 218.5L320.62 211.439V211.371L316.069 204.408H319.047L322.309 209.701H322.387L325.688 204.408H328.51L323.813 211.43V211.498L328.432 218.5H325.532L322.211 213.324H322.133L318.774 218.5H316.03ZM332.612 218.5H330.18V204.408H332.368L339.36 214.281H339.448V204.408H341.87V218.5H339.702L332.7 208.617H332.612V218.5Z" fill="#87909F"/>
<path d="M533.286 191.727C530.521 191.727 528.872 189.469 528.872 185.852C528.872 182.25 530.536 180 533.286 180C536.028 180 537.685 182.234 537.685 185.844C537.685 189.453 536.044 191.727 533.286 191.727ZM533.286 190.078C534.778 190.078 535.646 188.508 535.646 185.852C535.646 183.219 534.763 181.648 533.286 181.648C531.802 181.648 530.903 183.234 530.903 185.844C530.903 188.5 531.786 190.078 533.286 190.078Z" fill="#0D0E17"/>
<path d="M532.558 218.783C529.101 218.783 527.04 215.961 527.04 211.439C527.04 206.938 529.12 204.125 532.558 204.125C535.985 204.125 538.056 206.918 538.056 211.43C538.056 215.941 536.005 218.783 532.558 218.783ZM532.558 216.723C534.423 216.723 535.507 214.76 535.507 211.439C535.507 208.148 534.403 206.186 532.558 206.186C530.702 206.186 529.579 208.168 529.579 211.43C529.579 214.75 530.683 216.723 532.558 216.723Z" fill="#87909F"/>
<path d="M685.808 191.727C683.48 191.727 681.792 190.328 681.707 188.328H683.597C683.722 189.375 684.636 190.094 685.824 190.094C687.167 190.094 688.089 189.156 688.089 187.828C688.089 186.477 687.16 185.523 685.839 185.523C684.917 185.523 684.121 185.945 683.707 186.648H681.878L682.464 180.227H689.371V181.875H684.058L683.769 185.172H683.816C684.285 184.445 685.207 183.992 686.324 183.992C688.48 183.992 690.035 185.578 690.035 187.773C690.035 190.117 688.308 191.727 685.808 191.727ZM695.574 191.727C693.246 191.727 691.558 190.328 691.472 188.328H693.363C693.488 189.375 694.402 190.094 695.589 190.094C696.933 190.094 697.855 189.156 697.855 187.828C697.855 186.477 696.925 185.523 695.605 185.523C694.683 185.523 693.886 185.945 693.472 186.648H691.644L692.23 180.227H699.136V181.875H693.824L693.535 185.172H693.582C694.05 184.445 694.972 183.992 696.089 183.992C698.246 183.992 699.8 185.578 699.8 187.773C699.8 190.117 698.074 191.727 695.574 191.727ZM702.441 191.586C701.808 191.586 701.316 191.094 701.316 190.461C701.316 189.836 701.808 189.336 702.441 189.336C703.066 189.336 703.558 189.836 703.558 190.461C703.558 191.094 703.066 191.586 702.441 191.586ZM707.894 186.477V184.961H709.253C710.41 184.961 711.199 184.25 711.199 183.242C711.199 182.258 710.511 181.602 709.246 181.602C708.082 181.602 707.3 182.281 707.222 183.336H705.347C705.457 181.312 707.011 180 709.339 180C711.558 180 713.136 181.211 713.136 182.969C713.136 184.367 712.199 185.375 710.808 185.617V185.664C712.496 185.789 713.589 186.82 713.589 188.391C713.589 190.383 711.777 191.727 709.316 191.727C706.839 191.727 705.23 190.367 705.128 188.359H707.05C707.144 189.391 707.988 190.078 709.332 190.078C710.628 190.078 711.542 189.352 711.542 188.312C711.542 187.172 710.683 186.477 709.285 186.477H707.894ZM719.339 191.727C717.011 191.727 715.324 190.328 715.238 188.328H717.128C717.253 189.375 718.167 190.094 719.355 190.094C720.699 190.094 721.621 189.156 721.621 187.828C721.621 186.477 720.691 185.523 719.371 185.523C718.449 185.523 717.652 185.945 717.238 186.648H715.41L715.996 180.227H722.902V181.875H717.589L717.3 185.172H717.347C717.816 184.445 718.738 183.992 719.855 183.992C722.011 183.992 723.566 185.578 723.566 187.773C723.566 190.117 721.839 191.727 719.339 191.727ZM729.105 191.727C726.777 191.727 725.089 190.328 725.003 188.328H726.894C727.019 189.375 727.933 190.094 729.121 190.094C730.464 190.094 731.386 189.156 731.386 187.828C731.386 186.477 730.457 185.523 729.136 185.523C728.214 185.523 727.417 185.945 727.003 186.648H725.175L725.761 180.227H732.667V181.875H727.355L727.066 185.172H727.113C727.582 184.445 728.503 183.992 729.621 183.992C731.777 183.992 733.332 185.578 733.332 187.773C733.332 190.117 731.605 191.727 729.105 191.727Z" fill="#0D0E17"/>
<path d="M611.4 211.156C610.667 211.156 610.355 211.762 610.296 212.65H608.529C608.529 210.531 609.496 209.184 611.292 209.184C612.103 209.184 612.728 209.525 613.402 210.15C613.968 210.697 614.369 210.98 614.818 210.98C615.57 210.98 615.882 210.395 615.931 209.496H617.708C617.708 211.605 616.683 212.973 614.945 212.973C614.154 212.973 613.509 212.631 612.816 211.996C612.23 211.439 611.83 211.156 611.4 211.156ZM611.4 215.717C610.667 215.717 610.355 216.322 610.296 217.211H608.529C608.529 215.092 609.496 213.744 611.292 213.744C612.103 213.744 612.728 214.086 613.402 214.711C613.968 215.258 614.369 215.541 614.818 215.541C615.57 215.541 615.882 214.955 615.931 214.057H617.708C617.708 216.166 616.683 217.533 614.945 217.533C614.154 217.533 613.509 217.191 612.816 216.557C612.23 216 611.83 215.717 611.4 215.717ZM625.697 218.783C622.787 218.783 620.677 217.035 620.57 214.535H622.933C623.089 215.844 624.232 216.742 625.716 216.742C627.396 216.742 628.548 215.57 628.548 213.91C628.548 212.221 627.386 211.029 625.736 211.029C624.583 211.029 623.587 211.557 623.07 212.436H620.785L621.517 204.408H630.15V206.469H623.509L623.148 210.59H623.207C623.792 209.682 624.945 209.115 626.341 209.115C629.037 209.115 630.98 211.098 630.98 213.842C630.98 216.771 628.822 218.783 625.697 218.783ZM637.904 218.783C634.994 218.783 632.884 217.035 632.777 214.535H635.14C635.296 215.844 636.439 216.742 637.923 216.742C639.603 216.742 640.755 215.57 640.755 213.91C640.755 212.221 639.593 211.029 637.943 211.029C636.791 211.029 635.794 211.557 635.277 212.436H632.992L633.724 204.408H642.357V206.469H635.716L635.355 210.59H635.414C636 209.682 637.152 209.115 638.548 209.115C641.244 209.115 643.187 211.098 643.187 213.842C643.187 216.771 641.029 218.783 637.904 218.783ZM646.488 218.607C645.697 218.607 645.082 217.992 645.082 217.201C645.082 216.42 645.697 215.795 646.488 215.795C647.269 215.795 647.884 216.42 647.884 217.201C647.884 217.992 647.269 218.607 646.488 218.607ZM653.304 212.221V210.326H655.003C656.449 210.326 657.435 209.438 657.435 208.178C657.435 206.947 656.576 206.127 654.994 206.127C653.539 206.127 652.562 206.977 652.464 208.295H650.121C650.257 205.766 652.201 204.125 655.111 204.125C657.884 204.125 659.857 205.639 659.857 207.836C659.857 209.584 658.685 210.844 656.947 211.146V211.205C659.056 211.361 660.423 212.65 660.423 214.613C660.423 217.104 658.158 218.783 655.082 218.783C651.986 218.783 649.974 217.084 649.847 214.574H652.25C652.367 215.863 653.421 216.723 655.101 216.723C656.722 216.723 657.865 215.814 657.865 214.516C657.865 213.09 656.791 212.221 655.042 212.221H653.304ZM667.611 218.783C664.701 218.783 662.591 217.035 662.484 214.535H664.847C665.003 215.844 666.146 216.742 667.63 216.742C669.31 216.742 670.462 215.57 670.462 213.91C670.462 212.221 669.3 211.029 667.65 211.029C666.498 211.029 665.501 211.557 664.984 212.436H662.699L663.431 204.408H672.064V206.469H665.423L665.062 210.59H665.121C665.707 209.682 666.859 209.115 668.255 209.115C670.951 209.115 672.894 211.098 672.894 213.842C672.894 216.771 670.736 218.783 667.611 218.783ZM679.818 218.783C676.908 218.783 674.798 217.035 674.691 214.535H677.054C677.21 215.844 678.353 216.742 679.837 216.742C681.517 216.742 682.669 215.57 682.669 213.91C682.669 212.221 681.507 211.029 679.857 211.029C678.705 211.029 677.708 211.557 677.191 212.436H674.906L675.638 204.408H684.271V206.469H677.63L677.269 210.59H677.328C677.914 209.682 679.066 209.115 680.462 209.115C683.158 209.115 685.101 211.098 685.101 213.842C685.101 216.771 682.943 218.783 679.818 218.783ZM705.55 218.5H703.285V208.5H703.216L699.144 218.383H697.425L693.353 208.5H693.285V218.5H691.009V204.408H693.929L698.246 215.043H698.324L702.64 204.408H705.55V218.5ZM707.23 218.5L711.82 211.439V211.371L707.269 204.408H710.248L713.509 209.701H713.587L716.888 204.408H719.71L715.013 211.43V211.498L719.632 218.5H716.732L713.412 213.324H713.333L709.974 218.5H707.23ZM723.812 218.5H721.38V204.408H723.568L730.56 214.281H730.648V204.408H733.07V218.5H730.902L723.9 208.617H723.812V218.5Z" fill="#87909F"/>
<path d="M870.822 189.977V188.461H872.181C873.337 188.461 874.126 187.75 874.126 186.742C874.126 185.758 873.439 185.102 872.173 185.102C871.009 185.102 870.228 185.781 870.15 186.836H868.275C868.384 184.812 869.939 183.5 872.267 183.5C874.486 183.5 876.064 184.711 876.064 186.469C876.064 187.867 875.126 188.875 873.736 189.117V189.164C875.423 189.289 876.517 190.32 876.517 191.891C876.517 193.883 874.705 195.227 872.244 195.227C869.767 195.227 868.158 193.867 868.056 191.859H869.978C870.072 192.891 870.916 193.578 872.259 193.578C873.556 193.578 874.47 192.852 874.47 191.812C874.47 190.672 873.611 189.977 872.212 189.977H870.822ZM877.986 187.07C877.986 184.992 879.65 183.5 881.986 183.5C884.236 183.5 885.845 184.875 885.845 186.703C885.845 188.047 885.048 189.062 883.572 190.555L880.783 193.312V193.352H886.017V195H878.095V193.641L882.244 189.516C883.525 188.211 883.876 187.633 883.876 186.789C883.876 185.859 883.041 185.117 881.923 185.117C880.751 185.117 879.876 185.945 879.876 187.062V187.094H877.986V187.07ZM891.751 195.227C888.986 195.227 887.337 192.969 887.337 189.352C887.337 185.75 889.001 183.5 891.751 183.5C894.494 183.5 896.15 185.734 896.15 189.344C896.15 192.953 894.509 195.227 891.751 195.227ZM891.751 193.578C893.244 193.578 894.111 192.008 894.111 189.352C894.111 186.719 893.228 185.148 891.751 185.148C890.267 185.148 889.369 186.734 889.369 189.344C889.369 192 890.251 193.578 891.751 193.578ZM901.908 195.227C899.142 195.227 897.494 192.969 897.494 189.352C897.494 185.75 899.158 183.5 901.908 183.5C904.65 183.5 906.306 185.734 906.306 189.344C906.306 192.953 904.666 195.227 901.908 195.227ZM901.908 193.578C903.4 193.578 904.267 192.008 904.267 189.352C904.267 186.719 903.384 185.148 901.908 185.148C900.423 185.148 899.525 186.734 899.525 189.344C899.525 192 900.408 193.578 901.908 193.578ZM908.775 195.086C908.142 195.086 907.65 194.594 907.65 193.961C907.65 193.336 908.142 192.836 908.775 192.836C909.4 192.836 909.892 193.336 909.892 193.961C909.892 194.594 909.4 195.086 908.775 195.086ZM915.986 195.234C914.345 195.234 913.009 194.438 912.251 192.992C911.72 192.07 911.447 190.891 911.447 189.492C911.447 185.734 913.189 183.492 916.048 183.492C918.111 183.492 919.712 184.719 920.048 186.539H918.048C917.791 185.688 917.001 185.133 916.033 185.133C914.345 185.133 913.353 186.695 913.369 189.414H913.408C913.884 188.312 915.041 187.578 916.462 187.578C918.603 187.578 920.197 189.156 920.197 191.297C920.197 193.586 918.431 195.234 915.986 195.234ZM915.97 193.586C917.22 193.586 918.212 192.602 918.212 191.359C918.212 190.086 917.275 189.156 915.986 189.156C914.689 189.156 913.728 190.086 913.728 191.336C913.728 192.594 914.712 193.586 915.97 193.586ZM922.251 195L927.197 185.414V185.375H921.337V183.727H929.181V185.406L924.361 195H922.251Z" fill="#0D0E17"/>
<path d="M1063.76 205.5H1061.75V195.93H1058.38V194.227H1067.12V195.93H1063.76V205.5ZM1066.98 205.5V197.219H1068.85V198.664H1068.89C1069.17 197.656 1069.9 197.078 1070.88 197.078C1071.12 197.078 1071.34 197.125 1071.48 197.156V198.914C1071.32 198.852 1071.02 198.805 1070.7 198.805C1069.59 198.805 1068.93 199.516 1068.93 200.68V205.5H1066.98ZM1075.32 204.164C1076.42 204.164 1077.3 203.43 1077.3 202.43V201.797L1075.39 201.914C1074.45 201.977 1073.91 202.398 1073.91 203.055C1073.91 203.734 1074.48 204.164 1075.32 204.164ZM1074.73 205.633C1073.13 205.633 1071.97 204.625 1071.97 203.133C1071.97 201.664 1073.1 200.781 1075.12 200.656L1077.3 200.531V199.938C1077.3 199.07 1076.72 198.57 1075.76 198.57C1074.84 198.57 1074.25 199.016 1074.12 199.703H1072.32C1072.41 198.156 1073.73 197.047 1075.84 197.047C1077.89 197.047 1079.23 198.133 1079.23 199.797V205.5H1077.35V204.18H1077.31C1076.84 205.078 1075.8 205.633 1074.73 205.633ZM1080.8 205.5V197.219H1082.66V198.641H1082.7C1083.15 197.656 1084.03 197.062 1085.3 197.062C1087.13 197.062 1088.17 198.234 1088.17 200.148V205.5H1086.23V200.539C1086.23 199.367 1085.68 198.711 1084.57 198.711C1083.45 198.711 1082.74 199.516 1082.74 200.703V205.5H1080.8ZM1089.59 199.594C1089.59 198.078 1090.92 197.047 1092.94 197.047C1094.88 197.047 1096.2 198.094 1096.25 199.625H1094.44C1094.38 198.914 1093.8 198.477 1092.9 198.477C1092.04 198.477 1091.48 198.883 1091.48 199.484C1091.48 199.953 1091.85 200.266 1092.66 200.461L1094.14 200.789C1095.8 201.18 1096.45 201.82 1096.45 203.047C1096.45 204.609 1095 205.664 1092.91 205.664C1090.83 205.664 1089.51 204.633 1089.38 203.062H1091.29C1091.41 203.82 1091.99 204.242 1092.98 204.242C1093.92 204.242 1094.51 203.859 1094.51 203.242C1094.51 202.758 1094.2 202.5 1093.4 202.297L1091.89 201.945C1090.36 201.586 1089.59 200.789 1089.59 199.594ZM1098.23 205.5V198.719H1097.09V197.242H1098.23V196.508C1098.23 194.898 1098.99 194.141 1100.79 194.141C1101.17 194.141 1101.59 194.18 1101.84 194.227V195.586C1101.67 195.562 1101.45 195.539 1101.22 195.539C1100.48 195.539 1100.14 195.891 1100.14 196.562V197.242H1101.8V198.719H1100.17V205.5H1098.23ZM1106.35 198.555C1105.26 198.555 1104.47 199.391 1104.39 200.547H1108.26C1108.22 199.375 1107.47 198.555 1106.35 198.555ZM1108.27 203.023H1110.09C1109.84 204.586 1108.38 205.664 1106.42 205.664C1103.94 205.664 1102.44 204.031 1102.44 201.391C1102.44 198.773 1103.95 197.047 1106.34 197.047C1108.7 197.047 1110.16 198.68 1110.16 201.195V201.828H1104.38V201.945C1104.38 203.273 1105.19 204.164 1106.46 204.164C1107.37 204.164 1108.05 203.711 1108.27 203.023ZM1111.42 205.5V197.219H1113.29V198.664H1113.33C1113.61 197.656 1114.34 197.078 1115.31 197.078C1115.56 197.078 1115.78 197.125 1115.92 197.156V198.914C1115.76 198.852 1115.46 198.805 1115.13 198.805C1114.03 198.805 1113.37 199.516 1113.37 200.68V205.5H1111.42ZM1116.97 205.5V197.219H1118.91V205.5H1116.97ZM1117.94 196.133C1117.34 196.133 1116.86 195.664 1116.86 195.078C1116.86 194.484 1117.34 194.016 1117.94 194.016C1118.55 194.016 1119.02 194.484 1119.02 195.078C1119.02 195.664 1118.55 196.133 1117.94 196.133ZM1120.55 205.5V197.219H1122.41V198.664H1122.45C1122.73 197.656 1123.46 197.078 1124.44 197.078C1124.69 197.078 1124.91 197.125 1125.05 197.156V198.914C1124.88 198.852 1124.59 198.805 1124.26 198.805C1123.16 198.805 1122.49 199.516 1122.49 200.68V205.5H1120.55Z" fill="#4588FF"/>
<defs>
<clipPath id="clip0_65_8771">
<rect width="40" height="40" fill="white" transform="translate(40 180)"/>
</clipPath>
</defs>
</svg>
