<svg width="1166" height="244" viewBox="0 0 1166 244" fill="none" xmlns="http://www.w3.org/2000/svg">
<rect width="1166" height="244" rx="16" fill="white"/>
<path d="M34.291 72.8711V75H25.375V60.9082H27.8945V72.8711H34.291ZM35.9121 75V64.6484H38.3438V75H35.9121ZM37.123 63.291C36.3711 63.291 35.7754 62.7051 35.7754 61.9727C35.7754 61.2305 36.3711 60.6445 37.123 60.6445C37.8848 60.6445 38.4805 61.2305 38.4805 61.9727C38.4805 62.7051 37.8848 63.291 37.123 63.291ZM40.1992 67.6172C40.1992 65.7227 41.8691 64.4336 44.3887 64.4336C46.8203 64.4336 48.4707 65.7422 48.5293 67.6562H46.2637C46.1855 66.7676 45.4727 66.2207 44.3398 66.2207C43.2656 66.2207 42.5625 66.7285 42.5625 67.4805C42.5625 68.0664 43.0312 68.457 44.0469 68.7012L45.8926 69.1113C47.9629 69.5996 48.7734 70.4004 48.7734 71.9336C48.7734 73.8867 46.9668 75.2051 44.3496 75.2051C41.752 75.2051 40.1016 73.916 39.9355 71.9531H42.3281C42.4746 72.9004 43.207 73.4277 44.4375 73.4277C45.6191 73.4277 46.3516 72.9492 46.3516 72.1777C46.3516 71.5723 45.9707 71.25 44.9648 70.9961L43.0801 70.5566C41.166 70.1074 40.1992 69.1113 40.1992 67.6172ZM51 62.2266H53.4316V64.6484H55.3848V66.5234H53.4316V71.9043C53.4316 72.7539 53.8223 73.1445 54.6816 73.1445C54.9062 73.1445 55.2188 73.125 55.375 73.0957V74.9512C55.1113 75.0098 54.6328 75.0488 54.1152 75.0488C51.8789 75.0488 51 74.2578 51 72.2461V66.5234H49.5156V64.6484H51V62.2266ZM60.6875 73.3301C62.0645 73.3301 63.168 72.4121 63.168 71.1621V70.3711L60.7754 70.5176C59.6035 70.5957 58.9297 71.123 58.9297 71.9434C58.9297 72.793 59.6328 73.3301 60.6875 73.3301ZM59.9551 75.166C57.9531 75.166 56.498 73.9062 56.498 72.041C56.498 70.2051 57.9141 69.1016 60.4336 68.9453L63.168 68.7891V68.0469C63.168 66.9629 62.4355 66.3379 61.2344 66.3379C60.082 66.3379 59.3496 66.8945 59.1934 67.7539H56.9375C57.0449 65.8203 58.6953 64.4336 61.332 64.4336C63.9004 64.4336 65.5703 65.791 65.5703 67.8711V75H63.2266V73.3496H63.1777C62.582 74.4727 61.2832 75.166 59.9551 75.166ZM75.4043 75.166C72.7969 75.166 71.1074 73.1055 71.1074 69.8145C71.1074 66.543 72.7969 64.4727 75.4043 64.4727C76.8887 64.4727 78.0605 65.2441 78.6074 66.3867H78.666V60.9082H81.0977V75H78.7148V73.2324H78.6758C78.1094 74.3945 76.918 75.166 75.4043 75.166ZM76.1367 66.4746C74.5742 66.4746 73.5977 67.7734 73.5977 69.8242C73.5977 71.8848 74.5645 73.1738 76.1367 73.1738C77.6699 73.1738 78.6758 71.875 78.6758 69.8242C78.6758 67.793 77.6699 66.4746 76.1367 66.4746ZM87.6016 66.3184C86.2344 66.3184 85.248 67.3633 85.1504 68.8086H89.9844C89.9355 67.3438 88.998 66.3184 87.6016 66.3184ZM89.9941 71.9043H92.2695C91.957 73.8574 90.1406 75.2051 87.6895 75.2051C84.584 75.2051 82.709 73.1641 82.709 69.8633C82.709 66.5918 84.6035 64.4336 87.5918 64.4336C90.5312 64.4336 92.3672 66.4746 92.3672 69.6191V70.4102H85.1309V70.5566C85.1309 72.2168 86.1465 73.3301 87.7383 73.3301C88.8711 73.3301 89.7305 72.7637 89.9941 71.9043ZM107.396 75L106.195 71.3574H101.01L99.8086 75H97.2109L102.211 60.9082H105.053L110.053 75H107.396ZM103.568 63.3984L101.596 69.4141H105.6L103.637 63.3984H103.568ZM120.111 68.3398H117.816C117.621 67.2363 116.85 66.4062 115.551 66.4062C114.018 66.4062 113.031 67.6953 113.031 69.8242C113.031 71.9922 114.027 73.2422 115.57 73.2422C116.801 73.2422 117.602 72.5391 117.826 71.3672H120.121C119.926 73.6816 118.139 75.2051 115.541 75.2051C112.514 75.2051 110.561 73.1836 110.561 69.8242C110.561 66.5137 112.514 64.4336 115.521 64.4336C118.256 64.4336 119.945 66.1621 120.111 68.3398ZM122.25 62.2266H124.682V64.6484H126.635V66.5234H124.682V71.9043C124.682 72.7539 125.072 73.1445 125.932 73.1445C126.156 73.1445 126.469 73.125 126.625 73.0957V74.9512C126.361 75.0098 125.883 75.0488 125.365 75.0488C123.129 75.0488 122.25 74.2578 122.25 72.2461V66.5234H120.766V64.6484H122.25V62.2266ZM128.354 75V64.6484H130.785V75H128.354ZM129.564 63.291C128.812 63.291 128.217 62.7051 128.217 61.9727C128.217 61.2305 128.812 60.6445 129.564 60.6445C130.326 60.6445 130.922 61.2305 130.922 61.9727C130.922 62.7051 130.326 63.291 129.564 63.291ZM141.938 64.6484L138.295 75H135.619L131.947 64.6484H134.545L136.947 72.7441H136.996L139.398 64.6484H141.938ZM147.348 75.2051C144.311 75.2051 142.338 73.1836 142.338 69.8242C142.338 66.4844 144.33 64.4336 147.348 64.4336C150.365 64.4336 152.357 66.4746 152.357 69.8242C152.357 73.1836 150.385 75.2051 147.348 75.2051ZM147.348 73.2812C148.891 73.2812 149.887 72.0312 149.887 69.8242C149.887 67.627 148.891 66.3672 147.348 66.3672C145.814 66.3672 144.809 67.627 144.809 69.8242C144.809 72.0312 145.805 73.2812 147.348 73.2812ZM153.734 67.6172C153.734 65.7227 155.404 64.4336 157.924 64.4336C160.355 64.4336 162.006 65.7422 162.064 67.6562H159.799C159.721 66.7676 159.008 66.2207 157.875 66.2207C156.801 66.2207 156.098 66.7285 156.098 67.4805C156.098 68.0664 156.566 68.457 157.582 68.7012L159.428 69.1113C161.498 69.5996 162.309 70.4004 162.309 71.9336C162.309 73.8867 160.502 75.2051 157.885 75.2051C155.287 75.2051 153.637 73.916 153.471 71.9531H155.863C156.01 72.9004 156.742 73.4277 157.973 73.4277C159.154 73.4277 159.887 72.9492 159.887 72.1777C159.887 71.5723 159.506 71.25 158.5 70.9961L156.615 70.5566C154.701 70.1074 153.734 69.1113 153.734 67.6172Z" fill="black"/>
<rect x="747" y="48" width="180" height="40" rx="20" fill="#F6F7F8"/>
<path fill-rule="evenodd" clip-rule="evenodd" d="M770.078 72.0209C769.052 72.8422 767.75 73.3333 766.333 73.3333C763.019 73.3333 760.333 70.647 760.333 67.3333C760.333 64.0195 763.019 61.3333 766.333 61.3333C769.647 61.3333 772.333 64.0195 772.333 67.3333C772.333 68.7498 771.842 70.0517 771.021 71.0781L772.599 72.6557C772.859 72.9161 772.859 73.3382 772.599 73.5985C772.339 73.8589 771.916 73.8589 771.656 73.5985L770.078 72.0209ZM771 67.3333C771 64.7559 768.91 62.6666 766.333 62.6666C763.756 62.6666 761.666 64.7559 761.666 67.3333C761.666 69.9106 763.756 71.9999 766.333 71.9999C768.91 71.9999 771 69.9106 771 67.3333Z" fill="#A2A9B6"/>
<path d="M787.683 72.5H783.957V62.6357H787.696C789.385 62.6357 790.526 63.6201 790.526 65.0967C790.526 66.1221 789.774 67.0791 788.824 67.25V67.3047C790.164 67.4756 791.025 68.4189 791.025 69.7314C791.025 71.4678 789.781 72.5 787.683 72.5ZM785.188 63.7227V66.8877H787.033C788.489 66.8877 789.282 66.3066 789.282 65.2402C789.282 64.2627 788.612 63.7227 787.416 63.7227H785.188ZM785.188 71.4131H787.498C788.981 71.4131 789.761 70.8115 789.761 69.6699C789.761 68.5283 788.954 67.9473 787.382 67.9473H785.188V71.4131ZM798.073 65.3906V72.5H796.945V71.3447H796.918C796.494 72.165 795.756 72.623 794.662 72.623C793.11 72.623 792.201 71.6182 792.201 70.0049V65.3906H793.391V69.793C793.391 70.9482 793.931 71.5703 795.031 71.5703C796.187 71.5703 796.884 70.7773 796.884 69.5674V65.3906H798.073ZM799.495 67.3525C799.495 66.1357 800.582 65.2676 802.147 65.2676C803.617 65.2676 804.697 66.1426 804.752 67.3457H803.617C803.535 66.6621 802.981 66.2383 802.106 66.2383C801.238 66.2383 800.664 66.6689 800.664 67.291C800.664 67.7832 801.04 68.1113 801.847 68.3164L802.947 68.583C804.383 68.9453 804.902 69.4648 804.902 70.5107C804.902 71.748 803.733 72.623 802.072 72.623C800.514 72.623 799.427 71.7754 799.304 70.5176H800.493C800.623 71.2559 801.184 71.6523 802.147 71.6523C803.111 71.6523 803.706 71.2422 803.706 70.5996C803.706 70.0938 803.412 69.8203 802.612 69.6084L801.361 69.2871C800.11 68.9658 799.495 68.3232 799.495 67.3525ZM812.046 67.7217H810.884C810.713 66.9492 810.111 66.3135 809.065 66.3135C807.835 66.3135 807.001 67.332 807.001 68.9453C807.001 70.5996 807.849 71.5771 809.079 71.5771C810.05 71.5771 810.686 71.0645 810.891 70.21H812.06C811.875 71.625 810.686 72.623 809.072 72.623C807.104 72.623 805.791 71.2354 805.791 68.9453C805.791 66.7031 807.097 65.2676 809.059 65.2676C810.836 65.2676 811.896 66.4434 812.046 67.7217ZM815.498 71.6113C816.619 71.6113 817.48 70.8252 817.48 69.7998V69.2188L815.58 69.335C814.623 69.3965 814.076 69.8203 814.076 70.4902C814.076 71.167 814.644 71.6113 815.498 71.6113ZM815.231 72.623C813.816 72.623 812.866 71.7686 812.866 70.4902C812.866 69.2734 813.803 68.5078 815.443 68.4121L817.48 68.2959V67.7012C817.48 66.833 816.906 66.3135 815.922 66.3135C815.006 66.3135 814.432 66.7441 814.281 67.4414H813.133C813.215 66.2109 814.268 65.2676 815.949 65.2676C817.617 65.2676 818.67 66.1699 818.67 67.585V72.5H817.542V71.2764H817.515C817.091 72.0898 816.188 72.623 815.231 72.623ZM820.181 72.5V65.3906H821.302V66.5527H821.329C821.562 65.7666 822.218 65.2676 823.052 65.2676C823.257 65.2676 823.435 65.3018 823.53 65.3154V66.4707C823.435 66.4365 823.182 66.4023 822.895 66.4023C821.972 66.4023 821.37 67.0654 821.37 68.0703V72.5H820.181Z" fill="#A2A9B6"/>
<rect x="951.5" y="60" width="15" height="15" rx="1.5" stroke="#A2A9B6"/>
<path d="M976.12 62.4717C978.916 62.4717 980.666 64.4404 980.666 67.5713C980.666 70.7021 978.916 72.6641 976.12 72.6641C973.324 72.6641 971.574 70.7021 971.574 67.5713C971.574 64.4404 973.324 62.4717 976.12 62.4717ZM976.12 63.6064C974.104 63.6064 972.839 65.1377 972.839 67.5713C972.839 69.998 974.104 71.5293 976.12 71.5293C978.137 71.5293 979.401 69.998 979.401 67.5713C979.401 65.1377 978.137 63.6064 976.12 63.6064ZM987.919 67.7217H986.757C986.586 66.9492 985.984 66.3135 984.938 66.3135C983.708 66.3135 982.874 67.332 982.874 68.9453C982.874 70.5996 983.722 71.5771 984.952 71.5771C985.923 71.5771 986.559 71.0645 986.764 70.21H987.933C987.748 71.625 986.559 72.623 984.945 72.623C982.977 72.623 981.664 71.2354 981.664 68.9453C981.664 66.7031 982.97 65.2676 984.932 65.2676C986.709 65.2676 987.769 66.4434 987.919 67.7217ZM994.864 65.3906V72.5H993.736V71.3447H993.709C993.285 72.165 992.547 72.623 991.453 72.623C989.901 72.623 988.992 71.6182 988.992 70.0049V65.3906H990.182V69.793C990.182 70.9482 990.722 71.5703 991.822 71.5703C992.978 71.5703 993.675 70.7773 993.675 69.5674V65.3906H994.864ZM996.471 72.5V62.6357H997.66V72.5H996.471ZM999.649 63.6748H1000.84V65.3906H1002.22V66.3682H1000.84V70.5928C1000.84 71.2422 1001.11 71.5361 1001.72 71.5361C1001.86 71.5361 1002.13 71.5156 1002.21 71.502V72.5C1002.07 72.5342 1001.74 72.5547 1001.46 72.5547C1000.16 72.5547 999.649 72.0215 999.649 70.6543V66.3682H998.59V65.3906H999.649V63.6748ZM1005.7 71.6113C1006.82 71.6113 1007.68 70.8252 1007.68 69.7998V69.2188L1005.78 69.335C1004.82 69.3965 1004.28 69.8203 1004.28 70.4902C1004.28 71.167 1004.84 71.6113 1005.7 71.6113ZM1005.43 72.623C1004.02 72.623 1003.07 71.7686 1003.07 70.4902C1003.07 69.2734 1004 68.5078 1005.64 68.4121L1007.68 68.2959V67.7012C1007.68 66.833 1007.11 66.3135 1006.12 66.3135C1005.21 66.3135 1004.63 66.7441 1004.48 67.4414H1003.33C1003.42 66.2109 1004.47 65.2676 1006.15 65.2676C1007.82 65.2676 1008.87 66.1699 1008.87 67.585V72.5H1007.74V71.2764H1007.72C1007.29 72.0898 1006.39 72.623 1005.43 72.623ZM1010.38 72.5V65.3906H1011.5V66.5527H1011.53C1011.76 65.7666 1012.42 65.2676 1013.25 65.2676C1013.46 65.2676 1013.64 65.3018 1013.73 65.3154V66.4707C1013.64 66.4365 1013.38 66.4023 1013.1 66.4023C1012.17 66.4023 1011.57 67.0654 1011.57 68.0703V72.5H1010.38ZM1017.76 62.6357H1021.28C1023.13 62.6357 1024.44 63.9346 1024.44 65.8008C1024.44 67.6738 1023.12 68.9795 1021.26 68.9795H1018.99V72.5H1017.76V62.6357ZM1018.99 63.7295V67.8857H1020.96C1022.37 67.8857 1023.17 67.1133 1023.17 65.8008C1023.17 64.4951 1022.37 63.7295 1020.96 63.7295H1018.99ZM1028.18 66.2998C1027.06 66.2998 1026.28 67.1543 1026.21 68.3369H1030.07C1030.04 67.1475 1029.3 66.2998 1028.18 66.2998ZM1030.04 70.4629H1031.21C1031.01 71.707 1029.8 72.623 1028.25 72.623C1026.21 72.623 1024.98 71.208 1024.98 68.9727C1024.98 66.7646 1026.23 65.2676 1028.2 65.2676C1030.12 65.2676 1031.3 66.6621 1031.3 68.8154V69.2666H1026.2V69.335C1026.2 70.6953 1027 71.5908 1028.28 71.5908C1029.18 71.5908 1029.84 71.1328 1030.04 70.4629ZM1035.18 65.2676C1036.21 65.2676 1037.03 65.7734 1037.49 66.5938H1037.51V65.3906H1038.65V74.8721H1037.46V71.3105H1037.43C1036.99 72.124 1036.16 72.623 1035.16 72.623C1033.36 72.623 1032.15 71.1738 1032.15 68.9453C1032.15 66.71 1033.36 65.2676 1035.18 65.2676ZM1035.39 71.5771C1036.61 71.5771 1037.46 70.5312 1037.46 68.9453C1037.46 67.3594 1036.61 66.3135 1035.39 66.3135C1034.15 66.3135 1033.37 67.3184 1033.37 68.9453C1033.37 70.5654 1034.15 71.5771 1035.39 71.5771ZM1046.04 65.3906V72.5H1044.91V71.3447H1044.88C1044.46 72.165 1043.72 72.623 1042.63 72.623C1041.08 72.623 1040.17 71.6182 1040.17 70.0049V65.3906H1041.36V69.793C1041.36 70.9482 1041.9 71.5703 1043 71.5703C1044.15 71.5703 1044.85 70.7773 1044.85 69.5674V65.3906H1046.04ZM1050.43 66.2998C1049.32 66.2998 1048.54 67.1543 1048.46 68.3369H1052.33C1052.3 67.1475 1051.55 66.2998 1050.43 66.2998ZM1052.3 70.4629H1053.47C1053.26 71.707 1052.06 72.623 1050.51 72.623C1048.47 72.623 1047.23 71.208 1047.23 68.9727C1047.23 66.7646 1048.49 65.2676 1050.45 65.2676C1052.38 65.2676 1053.56 66.6621 1053.56 68.8154V69.2666H1048.46V69.335C1048.46 70.6953 1049.26 71.5908 1050.54 71.5908C1051.44 71.5908 1052.1 71.1328 1052.3 70.4629ZM1054.76 72.5V65.3906H1055.88V66.5254H1055.91C1056.31 65.7598 1057.06 65.2676 1058.17 65.2676C1059.72 65.2676 1060.63 66.2725 1060.63 67.8857V72.5H1059.44V68.0977C1059.44 66.9492 1058.9 66.3203 1057.8 66.3203C1056.68 66.3203 1055.95 67.1133 1055.95 68.3164V72.5H1054.76ZM1058.62 64.3105C1057.71 64.3105 1057.37 63.2715 1056.83 63.2715C1056.52 63.2715 1056.32 63.6064 1056.35 64.2422H1055.54C1055.54 63.1211 1056.06 62.499 1056.84 62.499C1057.8 62.499 1058.11 63.5381 1058.62 63.5381C1058.91 63.5381 1059.09 63.2168 1059.09 62.5605H1059.9C1059.9 63.6543 1059.36 64.3105 1058.62 64.3105ZM1065.09 72.623C1063.12 72.623 1061.79 71.208 1061.79 68.9453C1061.79 66.6758 1063.12 65.2676 1065.09 65.2676C1067.05 65.2676 1068.38 66.6758 1068.38 68.9453C1068.38 71.208 1067.05 72.623 1065.09 72.623ZM1065.09 71.5771C1066.35 71.5771 1067.17 70.6201 1067.17 68.9453C1067.17 67.2705 1066.35 66.3135 1065.09 66.3135C1063.83 66.3135 1063 67.2705 1063 68.9453C1063 70.6201 1063.83 71.5771 1065.09 71.5771ZM1069.46 67.3525C1069.46 66.1357 1070.54 65.2676 1072.11 65.2676C1073.58 65.2676 1074.66 66.1426 1074.71 67.3457H1073.58C1073.5 66.6621 1072.94 66.2383 1072.07 66.2383C1071.2 66.2383 1070.63 66.6689 1070.63 67.291C1070.63 67.7832 1071 68.1113 1071.81 68.3164L1072.91 68.583C1074.35 68.9453 1074.87 69.4648 1074.87 70.5107C1074.87 71.748 1073.7 72.623 1072.04 72.623C1070.48 72.623 1069.39 71.7754 1069.27 70.5176H1070.46C1070.59 71.2559 1071.15 71.6523 1072.11 71.6523C1073.07 71.6523 1073.67 71.2422 1073.67 70.5996C1073.67 70.0938 1073.38 69.8203 1072.58 69.6084L1071.32 69.2871C1070.07 68.9658 1069.46 68.3232 1069.46 67.3525ZM1085.57 72.5L1084.58 69.6768H1080.66L1079.66 72.5H1078.37L1082.01 62.6357H1083.23L1086.86 72.5H1085.57ZM1082.6 64.1328L1081.02 68.6309H1084.22L1082.64 64.1328H1082.6ZM1093.58 67.7217H1092.41C1092.24 66.9492 1091.64 66.3135 1090.59 66.3135C1089.36 66.3135 1088.53 67.332 1088.53 68.9453C1088.53 70.5996 1089.38 71.5771 1090.61 71.5771C1091.58 71.5771 1092.21 71.0645 1092.42 70.21H1093.59C1093.4 71.625 1092.21 72.623 1090.6 72.623C1088.63 72.623 1087.32 71.2354 1087.32 68.9453C1087.32 66.7031 1088.63 65.2676 1090.59 65.2676C1092.37 65.2676 1093.42 66.4434 1093.58 67.7217ZM1095.07 63.6748H1096.25V65.3906H1097.64V66.3682H1096.25V70.5928C1096.25 71.2422 1096.53 71.5361 1097.14 71.5361C1097.27 71.5361 1097.55 71.5156 1097.63 71.502V72.5C1097.49 72.5342 1097.16 72.5547 1096.88 72.5547C1095.57 72.5547 1095.07 72.0215 1095.07 70.6543V66.3682H1094.01V65.3906H1095.07V63.6748ZM1098.97 72.5V65.3906H1100.16V72.5H1098.97ZM1099.56 64.1943C1099.16 64.1943 1098.83 63.8594 1098.83 63.4561C1098.83 63.0459 1099.16 62.7178 1099.56 62.7178C1099.97 62.7178 1100.31 63.0459 1100.31 63.4561C1100.31 63.8594 1099.97 64.1943 1099.56 64.1943ZM1107.6 65.3906L1104.98 72.5H1103.77L1101.15 65.3906H1102.4L1104.36 71.2354H1104.39L1106.36 65.3906H1107.6ZM1111.27 72.623C1109.3 72.623 1107.98 71.208 1107.98 68.9453C1107.98 66.6758 1109.3 65.2676 1111.27 65.2676C1113.24 65.2676 1114.56 66.6758 1114.56 68.9453C1114.56 71.208 1113.24 72.623 1111.27 72.623ZM1111.27 71.5771C1112.53 71.5771 1113.35 70.6201 1113.35 68.9453C1113.35 67.2705 1112.53 66.3135 1111.27 66.3135C1110.02 66.3135 1109.19 67.2705 1109.19 68.9453C1109.19 70.6201 1110.02 71.5771 1111.27 71.5771ZM1115.64 67.3525C1115.64 66.1357 1116.73 65.2676 1118.29 65.2676C1119.76 65.2676 1120.84 66.1426 1120.9 67.3457H1119.76C1119.68 66.6621 1119.13 66.2383 1118.25 66.2383C1117.38 66.2383 1116.81 66.6689 1116.81 67.291C1116.81 67.7832 1117.19 68.1113 1117.99 68.3164L1119.09 68.583C1120.53 68.9453 1121.05 69.4648 1121.05 70.5107C1121.05 71.748 1119.88 72.623 1118.22 72.623C1116.66 72.623 1115.57 71.7754 1115.45 70.5176H1116.64C1116.77 71.2559 1117.33 71.6523 1118.29 71.6523C1119.26 71.6523 1119.85 71.2422 1119.85 70.5996C1119.85 70.0938 1119.56 69.8203 1118.76 69.6084L1117.51 69.2871C1116.26 68.9658 1115.64 68.3232 1115.64 67.3525Z" fill="#232425"/>
<path d="M1134 63.9275C1134.48 63.9275 1134.86 64.2931 1134.86 64.7441C1134.86 65.1951 1134.48 65.5607 1134 65.5607C1133.52 65.5607 1133.14 65.1951 1133.14 64.7441C1133.14 64.2931 1133.52 63.9275 1134 63.9275Z" fill="#A2A9B6"/>
<path d="M1134 71.5931C1133.59 71.5931 1133.25 71.2573 1133.25 70.8431V67.1411C1133.25 66.7269 1133.59 66.3911 1134 66.3911C1134.42 66.3911 1134.75 66.7269 1134.75 67.1411V70.8431C1134.75 71.2573 1134.42 71.5931 1134 71.5931Z" fill="#A2A9B6"/>
<path fill-rule="evenodd" clip-rule="evenodd" d="M1141 67.5C1141 71.366 1137.87 74.5 1134 74.5C1130.13 74.5 1127 71.366 1127 67.5C1127 63.634 1130.13 60.5 1134 60.5C1137.87 60.5 1141 63.634 1141 67.5ZM1139.5 67.5C1139.5 64.4624 1137.04 62 1134 62C1130.96 62 1128.5 64.4624 1128.5 67.5C1128.5 70.5376 1130.96 73 1134 73C1137.04 73 1139.5 70.5376 1139.5 67.5Z" fill="#A2A9B6"/>
<rect x="24" y="126" width="1118" height="40" rx="6" fill="#F7F8FA"/>
<path d="M44.2188 150.135C41.916 150.135 40.4512 148.43 40.4512 145.752C40.4512 143.104 41.9219 141.41 44.2188 141.41C46.0059 141.41 47.418 142.576 47.6465 144.229H46.8438C46.6094 143.01 45.5312 142.154 44.2188 142.154C42.4258 142.154 41.2715 143.555 41.2715 145.752C41.2715 147.979 42.4258 149.391 44.2246 149.391C45.5723 149.391 46.5918 148.67 46.8438 147.498H47.6465C47.3477 149.145 46.0527 150.135 44.2188 150.135ZM48.707 150V143.906H49.4395V144.99H49.457C49.6797 144.246 50.248 143.807 50.998 143.807C51.2031 143.807 51.3848 143.848 51.4785 143.871V144.633C51.3789 144.586 51.1621 144.545 50.8984 144.545C50.0312 144.545 49.4805 145.219 49.4805 146.203V150H48.707ZM52.3691 150V143.906H53.1426V150H52.3691ZM52.7559 142.676C52.4746 142.676 52.2402 142.447 52.2402 142.16C52.2402 141.879 52.4746 141.65 52.7559 141.65C53.043 141.65 53.2773 141.879 53.2773 142.16C53.2773 142.447 53.043 142.676 52.7559 142.676ZM57.3848 143.807C58.9258 143.807 59.9805 145.061 59.9805 146.953C59.9805 148.852 58.9316 150.1 57.4023 150.1C56.418 150.1 55.6504 149.537 55.3281 148.746H55.3047V152.016H54.5312V143.906H55.2637V145.195H55.2871C55.6211 144.387 56.3945 143.807 57.3848 143.807ZM57.25 149.414C58.4277 149.414 59.1895 148.441 59.1895 146.953C59.1895 145.471 58.4277 144.492 57.25 144.492C56.0957 144.492 55.3047 145.488 55.3047 146.953C55.3047 148.424 56.0957 149.414 57.25 149.414ZM61.3574 142.383H62.1309V143.906H63.332V144.551H62.1309V148.465C62.1309 149.092 62.377 149.361 62.9395 149.361C63.0215 149.361 63.3145 149.35 63.3613 149.338V150C63.2793 150.018 62.9512 150.035 62.7871 150.035C61.7676 150.035 61.3574 149.602 61.3574 148.5V144.551H60.4492V143.906H61.3574V142.383ZM66.6953 150.1C65.0371 150.1 63.918 148.887 63.918 146.953C63.918 145.014 65.043 143.807 66.6953 143.807C68.3535 143.807 69.4727 145.014 69.4727 146.953C69.4727 148.887 68.3535 150.1 66.6953 150.1ZM66.6953 149.414C67.8906 149.414 68.6875 148.5 68.6875 146.953C68.6875 145.406 67.8906 144.492 66.6953 144.492C65.5 144.492 64.709 145.406 64.709 146.953C64.709 148.5 65.5 149.414 66.6953 149.414Z" fill="#87909F"/>
<path d="M74 144L76.5 141L79 144H74Z" fill="#BFBFBF"/>
<path d="M79 148L76.5 151L74 148L79 148Z" fill="#BFBFBF"/>
<path d="M314.414 150H313.611V142.271H310.822V141.545H317.209V142.271H314.414V150ZM319.072 150.1C317.414 150.1 316.295 148.887 316.295 146.953C316.295 145.014 317.42 143.807 319.072 143.807C320.73 143.807 321.85 145.014 321.85 146.953C321.85 148.887 320.73 150.1 319.072 150.1ZM319.072 149.414C320.268 149.414 321.064 148.5 321.064 146.953C321.064 145.406 320.268 144.492 319.072 144.492C317.877 144.492 317.086 145.406 317.086 146.953C317.086 148.5 317.877 149.414 319.072 149.414ZM323.215 142.383H323.988V143.906H325.189V144.551H323.988V148.465C323.988 149.092 324.234 149.361 324.797 149.361C324.879 149.361 325.172 149.35 325.219 149.338V150C325.137 150.018 324.809 150.035 324.645 150.035C323.625 150.035 323.215 149.602 323.215 148.5V144.551H322.307V143.906H323.215V142.383ZM328.078 149.432C329.145 149.432 329.982 148.676 329.982 147.709V147.035L328.178 147.158C327.217 147.223 326.684 147.639 326.684 148.312C326.684 148.975 327.252 149.432 328.078 149.432ZM327.92 150.1C326.719 150.1 325.898 149.379 325.898 148.312C325.898 147.27 326.678 146.637 328.084 146.543L329.982 146.426V145.898C329.982 145.02 329.426 144.492 328.477 144.492C327.58 144.492 327.006 144.932 326.871 145.67H326.121C326.209 144.58 327.105 143.807 328.494 143.807C329.883 143.807 330.756 144.586 330.756 145.828V150H330.018V148.84H330C329.66 149.596 328.828 150.1 327.92 150.1ZM332.109 150V141.545H332.883V150H332.109Z" fill="#87909F"/>
<path d="M338.6 144L341.1 141L343.6 144H338.6Z" fill="#BFBFBF"/>
<path d="M343.6 148L341.1 151L338.6 148L343.6 148Z" fill="#BFBFBF"/>
<path d="M447.58 147.703H448.383C448.471 148.717 449.426 149.408 450.75 149.408C452.016 149.408 452.924 148.717 452.924 147.768C452.924 146.977 452.379 146.508 451.125 146.191L450.076 145.922C448.512 145.523 447.814 144.861 447.814 143.748C447.814 142.383 449.045 141.41 450.709 141.41C452.355 141.41 453.562 142.383 453.609 143.725H452.807C452.73 142.77 451.887 142.137 450.686 142.137C449.514 142.137 448.646 142.787 448.646 143.719C448.646 144.445 449.174 144.873 450.416 145.189L451.33 145.424C453.029 145.852 453.744 146.502 453.744 147.68C453.744 149.162 452.549 150.135 450.68 150.135C448.91 150.135 447.668 149.156 447.58 147.703ZM456.756 149.432C457.822 149.432 458.66 148.676 458.66 147.709V147.035L456.855 147.158C455.895 147.223 455.361 147.639 455.361 148.312C455.361 148.975 455.93 149.432 456.756 149.432ZM456.598 150.1C455.396 150.1 454.576 149.379 454.576 148.312C454.576 147.27 455.355 146.637 456.762 146.543L458.66 146.426V145.898C458.66 145.02 458.104 144.492 457.154 144.492C456.258 144.492 455.684 144.932 455.549 145.67H454.799C454.887 144.58 455.783 143.807 457.172 143.807C458.561 143.807 459.434 144.586 459.434 145.828V150H458.695V148.84H458.678C458.338 149.596 457.506 150.1 456.598 150.1ZM460.787 150V141.545H461.561V150H460.787ZM465.252 150.1C463.711 150.1 462.645 148.846 462.645 146.953C462.645 145.055 463.705 143.807 465.234 143.807C466.219 143.807 466.998 144.369 467.32 145.16H467.338V141.545H468.117V150H467.379V148.711H467.361C467.016 149.531 466.236 150.1 465.252 150.1ZM465.387 144.492C464.215 144.492 463.441 145.465 463.441 146.953C463.441 148.441 464.215 149.414 465.387 149.414C466.547 149.414 467.344 148.43 467.344 146.953C467.344 145.482 466.547 144.492 465.387 144.492ZM471.984 150.1C470.326 150.1 469.207 148.887 469.207 146.953C469.207 145.014 470.332 143.807 471.984 143.807C473.643 143.807 474.762 145.014 474.762 146.953C474.762 148.887 473.643 150.1 471.984 150.1ZM471.984 149.414C473.18 149.414 473.977 148.5 473.977 146.953C473.977 145.406 473.18 144.492 471.984 144.492C470.789 144.492 469.998 145.406 469.998 146.953C469.998 148.5 470.789 149.414 471.984 149.414ZM478.377 141.545H481.119C483.65 141.545 485.127 143.098 485.127 145.77C485.127 148.447 483.656 150 481.119 150H478.377V141.545ZM479.18 142.271V149.273H481.072C483.152 149.273 484.312 148.02 484.312 145.775C484.312 143.525 483.152 142.271 481.072 142.271H479.18ZM486.357 150V143.906H487.131V150H486.357ZM486.744 142.676C486.463 142.676 486.229 142.447 486.229 142.16C486.229 141.879 486.463 141.65 486.744 141.65C487.031 141.65 487.266 141.879 487.266 142.16C487.266 142.447 487.031 142.676 486.744 142.676ZM488.396 145.535C488.396 144.527 489.299 143.807 490.588 143.807C491.836 143.807 492.727 144.539 492.803 145.611H492.059C491.965 144.891 491.408 144.445 490.564 144.445C489.732 144.445 489.164 144.885 489.164 145.494C489.164 145.992 489.521 146.297 490.336 146.496L491.238 146.713C492.457 147.018 492.914 147.463 492.914 148.336C492.914 149.367 491.947 150.1 490.57 150.1C489.264 150.1 488.32 149.367 488.221 148.295H488.994C489.105 149.016 489.703 149.461 490.617 149.461C491.531 149.461 492.135 149.033 492.135 148.395C492.135 147.867 491.83 147.586 491.016 147.387L490.025 147.141C488.924 146.865 488.396 146.344 488.396 145.535ZM496.811 143.807C498.352 143.807 499.406 145.061 499.406 146.953C499.406 148.852 498.357 150.1 496.828 150.1C495.844 150.1 495.076 149.537 494.754 148.746H494.73V152.016H493.957V143.906H494.689V145.195H494.713C495.047 144.387 495.82 143.807 496.811 143.807ZM496.676 149.414C497.854 149.414 498.615 148.441 498.615 146.953C498.615 145.471 497.854 144.492 496.676 144.492C495.521 144.492 494.73 145.488 494.73 146.953C494.73 148.424 495.521 149.414 496.676 149.414ZM502.922 150.1C501.264 150.1 500.145 148.887 500.145 146.953C500.145 145.014 501.27 143.807 502.922 143.807C504.58 143.807 505.699 145.014 505.699 146.953C505.699 148.887 504.58 150.1 502.922 150.1ZM502.922 149.414C504.117 149.414 504.914 148.5 504.914 146.953C504.914 145.406 504.117 144.492 502.922 144.492C501.727 144.492 500.936 145.406 500.936 146.953C500.936 148.5 501.727 149.414 502.922 149.414ZM506.73 150V143.906H507.463V145.031H507.48C507.791 144.293 508.506 143.807 509.49 143.807C510.826 143.807 511.646 144.668 511.646 146.051V150H510.873V146.174C510.873 145.107 510.287 144.498 509.268 144.498C508.213 144.498 507.504 145.26 507.504 146.391V150H506.73ZM513.006 150V143.906H513.779V150H513.006ZM513.393 142.676C513.111 142.676 512.877 142.447 512.877 142.16C512.877 141.879 513.111 141.65 513.393 141.65C513.68 141.65 513.914 141.879 513.914 142.16C513.914 142.447 513.68 142.676 513.393 142.676ZM518.098 150.1C517.125 150.1 516.346 149.566 515.982 148.711H515.965V150H515.221V141.545H516V145.178H516.018C516.363 144.34 517.148 143.807 518.104 143.807C519.633 143.807 520.676 145.055 520.676 146.953C520.676 148.852 519.633 150.1 518.098 150.1ZM517.951 144.492C516.809 144.492 515.994 145.494 515.994 146.953C515.994 148.418 516.803 149.414 517.951 149.414C519.123 149.414 519.879 148.447 519.879 146.953C519.879 145.465 519.123 144.492 517.951 144.492ZM521.771 150V141.545H522.545V150H521.771ZM526.342 144.486C525.252 144.486 524.496 145.324 524.432 146.525H528.193C528.176 145.324 527.443 144.486 526.342 144.486ZM528.146 148.271H528.914C528.732 149.326 527.742 150.1 526.4 150.1C524.689 150.1 523.629 148.904 523.629 146.971C523.629 145.078 524.701 143.807 526.354 143.807C527.971 143.807 528.99 144.996 528.99 146.812V147.141H524.426V147.188C524.426 148.564 525.205 149.42 526.418 149.42C527.338 149.42 527.977 148.939 528.146 148.271Z" fill="#87909F"/>
<path d="M534.199 144L536.699 141L539.199 144H534.199Z" fill="#BFBFBF"/>
<path d="M539.199 148L536.699 151L534.199 148L539.199 148Z" fill="#BFBFBF"/>
<path d="M641.181 147.703H641.983C642.071 148.717 643.026 149.408 644.351 149.408C645.616 149.408 646.524 148.717 646.524 147.768C646.524 146.977 645.979 146.508 644.726 146.191L643.677 145.922C642.112 145.523 641.415 144.861 641.415 143.748C641.415 142.383 642.646 141.41 644.31 141.41C645.956 141.41 647.163 142.383 647.21 143.725H646.407C646.331 142.77 645.487 142.137 644.286 142.137C643.114 142.137 642.247 142.787 642.247 143.719C642.247 144.445 642.774 144.873 644.017 145.189L644.931 145.424C646.63 145.852 647.345 146.502 647.345 147.68C647.345 149.162 646.149 150.135 644.28 150.135C642.511 150.135 641.269 149.156 641.181 147.703ZM650.356 149.432C651.423 149.432 652.261 148.676 652.261 147.709V147.035L650.456 147.158C649.495 147.223 648.962 147.639 648.962 148.312C648.962 148.975 649.53 149.432 650.356 149.432ZM650.198 150.1C648.997 150.1 648.177 149.379 648.177 148.312C648.177 147.27 648.956 146.637 650.362 146.543L652.261 146.426V145.898C652.261 145.02 651.704 144.492 650.755 144.492C649.858 144.492 649.284 144.932 649.149 145.67H648.399C648.487 144.58 649.384 143.807 650.772 143.807C652.161 143.807 653.034 144.586 653.034 145.828V150H652.296V148.84H652.278C651.938 149.596 651.106 150.1 650.198 150.1ZM654.388 150V141.545H655.161V150H654.388ZM658.853 150.1C657.312 150.1 656.245 148.846 656.245 146.953C656.245 145.055 657.306 143.807 658.835 143.807C659.819 143.807 660.599 144.369 660.921 145.16H660.938V141.545H661.718V150H660.979V148.711H660.962C660.616 149.531 659.837 150.1 658.853 150.1ZM658.987 144.492C657.815 144.492 657.042 145.465 657.042 146.953C657.042 148.441 657.815 149.414 658.987 149.414C660.147 149.414 660.944 148.43 660.944 146.953C660.944 145.482 660.147 144.492 658.987 144.492ZM665.585 150.1C663.927 150.1 662.808 148.887 662.808 146.953C662.808 145.014 663.933 143.807 665.585 143.807C667.243 143.807 668.362 145.014 668.362 146.953C668.362 148.887 667.243 150.1 665.585 150.1ZM665.585 149.414C666.78 149.414 667.577 148.5 667.577 146.953C667.577 145.406 666.78 144.492 665.585 144.492C664.39 144.492 663.599 145.406 663.599 146.953C663.599 148.5 664.39 149.414 665.585 149.414ZM675.405 150.135C673.103 150.135 671.638 148.43 671.638 145.752C671.638 143.104 673.108 141.41 675.405 141.41C677.192 141.41 678.604 142.576 678.833 144.229H678.03C677.796 143.01 676.718 142.154 675.405 142.154C673.612 142.154 672.458 143.555 672.458 145.752C672.458 147.979 673.612 149.391 675.411 149.391C676.759 149.391 677.778 148.67 678.03 147.498H678.833C678.534 149.145 677.239 150.135 675.405 150.135ZM682.366 150.1C680.708 150.1 679.589 148.887 679.589 146.953C679.589 145.014 680.714 143.807 682.366 143.807C684.024 143.807 685.144 145.014 685.144 146.953C685.144 148.887 684.024 150.1 682.366 150.1ZM682.366 149.414C683.562 149.414 684.358 148.5 684.358 146.953C684.358 145.406 683.562 144.492 682.366 144.492C681.171 144.492 680.38 145.406 680.38 146.953C680.38 148.5 681.171 149.414 682.366 149.414ZM686.175 150V143.906H686.907V145.031H686.925C687.235 144.293 687.95 143.807 688.935 143.807C690.271 143.807 691.091 144.668 691.091 146.051V150H690.317V146.174C690.317 145.107 689.731 144.498 688.712 144.498C687.657 144.498 686.948 145.26 686.948 146.391V150H686.175ZM694.806 149.373C695.978 149.373 696.769 148.395 696.769 146.936C696.769 145.477 695.978 144.492 694.806 144.492C693.657 144.492 692.89 145.459 692.89 146.941C692.89 148.412 693.657 149.373 694.806 149.373ZM694.882 152.256C693.552 152.256 692.55 151.523 692.38 150.562H693.183C693.382 151.16 694.032 151.588 694.917 151.588C696.06 151.588 696.769 150.926 696.769 149.93V148.705H696.751C696.423 149.49 695.638 150.059 694.665 150.059C693.124 150.059 692.093 148.822 692.093 146.936C692.093 145.043 693.124 143.807 694.683 143.807C695.655 143.807 696.435 144.363 696.792 145.195H696.81V143.906H697.548V149.9C697.548 151.318 696.511 152.256 694.882 152.256ZM701.298 144.486C700.208 144.486 699.452 145.324 699.388 146.525H703.149C703.132 145.324 702.399 144.486 701.298 144.486ZM703.103 148.271H703.87C703.688 149.326 702.698 150.1 701.356 150.1C699.646 150.1 698.585 148.904 698.585 146.971C698.585 145.078 699.657 143.807 701.31 143.807C702.927 143.807 703.946 144.996 703.946 146.812V147.141H699.382V147.188C699.382 148.564 700.161 149.42 701.374 149.42C702.294 149.42 702.933 148.939 703.103 148.271ZM705.036 150V141.545H705.81V150H705.036ZM709.161 149.432C710.228 149.432 711.065 148.676 711.065 147.709V147.035L709.261 147.158C708.3 147.223 707.767 147.639 707.767 148.312C707.767 148.975 708.335 149.432 709.161 149.432ZM709.003 150.1C707.802 150.1 706.981 149.379 706.981 148.312C706.981 147.27 707.761 146.637 709.167 146.543L711.065 146.426V145.898C711.065 145.02 710.509 144.492 709.56 144.492C708.663 144.492 708.089 144.932 707.954 145.67H707.204C707.292 144.58 708.188 143.807 709.577 143.807C710.966 143.807 711.839 144.586 711.839 145.828V150H711.101V148.84H711.083C710.743 149.596 709.911 150.1 709.003 150.1ZM715.442 150.1C713.901 150.1 712.835 148.846 712.835 146.953C712.835 145.055 713.896 143.807 715.425 143.807C716.409 143.807 717.188 144.369 717.511 145.16H717.528V141.545H718.308V150H717.569V148.711H717.552C717.206 149.531 716.427 150.1 715.442 150.1ZM715.577 144.492C714.405 144.492 713.632 145.465 713.632 146.953C713.632 148.441 714.405 149.414 715.577 149.414C716.737 149.414 717.534 148.43 717.534 146.953C717.534 145.482 716.737 144.492 715.577 144.492ZM722.175 150.1C720.517 150.1 719.397 148.887 719.397 146.953C719.397 145.014 720.522 143.807 722.175 143.807C723.833 143.807 724.952 145.014 724.952 146.953C724.952 148.887 723.833 150.1 722.175 150.1ZM722.175 149.414C723.37 149.414 724.167 148.5 724.167 146.953C724.167 145.406 723.37 144.492 722.175 144.492C720.979 144.492 720.188 145.406 720.188 146.953C720.188 148.5 720.979 149.414 722.175 149.414Z" fill="#87909F"/>
<path d="M729.8 144L732.3 141L734.8 144H729.8Z" fill="#BFBFBF"/>
<path d="M734.8 148L732.3 151L729.8 148L734.8 148Z" fill="#BFBFBF"/>
<path d="M842.495 150H841.698L838.534 141.545H839.384L842.079 149.004H842.114L844.815 141.545H845.659L842.495 150ZM847.593 149.432C848.659 149.432 849.497 148.676 849.497 147.709V147.035L847.692 147.158C846.731 147.223 846.198 147.639 846.198 148.312C846.198 148.975 846.767 149.432 847.593 149.432ZM847.435 150.1C846.233 150.1 845.413 149.379 845.413 148.312C845.413 147.27 846.192 146.637 847.599 146.543L849.497 146.426V145.898C849.497 145.02 848.94 144.492 847.991 144.492C847.095 144.492 846.521 144.932 846.386 145.67H845.636C845.724 144.58 846.62 143.807 848.009 143.807C849.397 143.807 850.271 144.586 850.271 145.828V150H849.532V148.84H849.515C849.175 149.596 848.343 150.1 847.435 150.1ZM851.624 150V141.545H852.397V150H851.624ZM856.259 150.1C854.601 150.1 853.481 148.887 853.481 146.953C853.481 145.014 854.606 143.807 856.259 143.807C857.917 143.807 859.036 145.014 859.036 146.953C859.036 148.887 857.917 150.1 856.259 150.1ZM856.259 149.414C857.454 149.414 858.251 148.5 858.251 146.953C858.251 145.406 857.454 144.492 856.259 144.492C855.063 144.492 854.272 145.406 854.272 146.953C854.272 148.5 855.063 149.414 856.259 149.414ZM860.067 150V143.906H860.8V144.99H860.817C861.04 144.246 861.608 143.807 862.358 143.807C862.563 143.807 862.745 143.848 862.839 143.871V144.633C862.739 144.586 862.522 144.545 862.259 144.545C861.392 144.545 860.841 145.219 860.841 146.203V150H860.067ZM865.452 149.432C866.519 149.432 867.356 148.676 867.356 147.709V147.035L865.552 147.158C864.591 147.223 864.058 147.639 864.058 148.312C864.058 148.975 864.626 149.432 865.452 149.432ZM865.294 150.1C864.093 150.1 863.272 149.379 863.272 148.312C863.272 147.27 864.052 146.637 865.458 146.543L867.356 146.426V145.898C867.356 145.02 866.8 144.492 865.851 144.492C864.954 144.492 864.38 144.932 864.245 145.67H863.495C863.583 144.58 864.479 143.807 865.868 143.807C867.257 143.807 868.13 144.586 868.13 145.828V150H867.392V148.84H867.374C867.034 149.596 866.202 150.1 865.294 150.1ZM874.388 145.834H873.626C873.462 145.084 872.847 144.492 871.886 144.492C870.696 144.492 869.917 145.447 869.917 146.953C869.917 148.482 870.702 149.414 871.892 149.414C872.812 149.414 873.45 148.904 873.626 148.113H874.394C874.224 149.279 873.233 150.1 871.886 150.1C870.222 150.1 869.126 148.904 869.126 146.953C869.126 145.031 870.222 143.807 871.88 143.807C873.315 143.807 874.235 144.744 874.388 145.834ZM875.413 150V143.906H876.187V150H875.413ZM875.8 142.676C875.519 142.676 875.284 142.447 875.284 142.16C875.284 141.879 875.519 141.65 875.8 141.65C876.087 141.65 876.321 141.879 876.321 142.16C876.321 142.447 876.087 142.676 875.8 142.676ZM880.048 150.1C878.39 150.1 877.271 148.887 877.271 146.953C877.271 145.014 878.396 143.807 880.048 143.807C881.706 143.807 882.825 145.014 882.825 146.953C882.825 148.887 881.706 150.1 880.048 150.1ZM880.048 149.414C881.243 149.414 882.04 148.5 882.04 146.953C882.04 145.406 881.243 144.492 880.048 144.492C878.853 144.492 878.062 145.406 878.062 146.953C878.062 148.5 878.853 149.414 880.048 149.414ZM880.364 142.98H879.667L880.95 141.211H881.806L880.364 142.98ZM883.856 150V143.906H884.589V145.031H884.606C884.917 144.293 885.632 143.807 886.616 143.807C887.952 143.807 888.772 144.668 888.772 146.051V150H887.999V146.174C887.999 145.107 887.413 144.498 886.394 144.498C885.339 144.498 884.63 145.26 884.63 146.391V150H883.856ZM893.46 141.545V147C893.46 148.418 894.386 149.391 895.933 149.391C897.485 149.391 898.405 148.418 898.405 147V141.545H899.208V147.047C899.208 148.869 897.966 150.135 895.933 150.135C893.899 150.135 892.663 148.869 892.663 147.047V141.545H893.46ZM900.374 147.703H901.177C901.265 148.717 902.22 149.408 903.544 149.408C904.81 149.408 905.718 148.717 905.718 147.768C905.718 146.977 905.173 146.508 903.919 146.191L902.87 145.922C901.306 145.523 900.608 144.861 900.608 143.748C900.608 142.383 901.839 141.41 903.503 141.41C905.149 141.41 906.356 142.383 906.403 143.725H905.601C905.524 142.77 904.681 142.137 903.479 142.137C902.308 142.137 901.44 142.787 901.44 143.719C901.44 144.445 901.968 144.873 903.21 145.189L904.124 145.424C905.823 145.852 906.538 146.502 906.538 147.68C906.538 149.162 905.343 150.135 903.474 150.135C901.704 150.135 900.462 149.156 900.374 147.703ZM907.71 141.545H910.452C912.983 141.545 914.46 143.098 914.46 145.77C914.46 148.447 912.989 150 910.452 150H907.71V141.545ZM908.513 142.271V149.273H910.405C912.485 149.273 913.646 148.02 913.646 145.775C913.646 143.525 912.485 142.271 910.405 142.271H908.513ZM918.163 150H917.36V142.271H914.571V141.545H920.958V142.271H918.163V150Z" fill="#87909F"/>
<path d="M925.399 144L927.899 141L930.399 144H925.399Z" fill="#BFBFBF"/>
<path d="M930.399 148L927.899 151L925.399 148L930.399 148Z" fill="#BFBFBF"/>
<path d="M1098.41 150L1097.47 147.41H1093.92L1092.98 150H1092.13L1095.3 141.545H1096.1L1099.25 150H1098.41ZM1095.68 142.535L1094.16 146.719H1097.23L1095.71 142.535H1095.68ZM1104.87 145.834H1104.11C1103.94 145.084 1103.33 144.492 1102.37 144.492C1101.18 144.492 1100.4 145.447 1100.4 146.953C1100.4 148.482 1101.18 149.414 1102.37 149.414C1103.29 149.414 1103.93 148.904 1104.11 148.113H1104.87C1104.7 149.279 1103.71 150.1 1102.37 150.1C1100.7 150.1 1099.61 148.904 1099.61 146.953C1099.61 145.031 1100.7 143.807 1102.36 143.807C1103.79 143.807 1104.71 144.744 1104.87 145.834ZM1110.8 145.834H1110.04C1109.87 145.084 1109.26 144.492 1108.29 144.492C1107.11 144.492 1106.33 145.447 1106.33 146.953C1106.33 148.482 1107.11 149.414 1108.3 149.414C1109.22 149.414 1109.86 148.904 1110.04 148.113H1110.8C1110.63 149.279 1109.64 150.1 1108.29 150.1C1106.63 150.1 1105.54 148.904 1105.54 146.953C1105.54 145.031 1106.63 143.807 1108.29 143.807C1109.72 143.807 1110.64 144.744 1110.8 145.834ZM1111.82 150V143.906H1112.6V150H1111.82ZM1112.21 142.676C1111.93 142.676 1111.69 142.447 1111.69 142.16C1111.69 141.879 1111.93 141.65 1112.21 141.65C1112.5 141.65 1112.73 141.879 1112.73 142.16C1112.73 142.447 1112.5 142.676 1112.21 142.676ZM1116.46 150.1C1114.8 150.1 1113.68 148.887 1113.68 146.953C1113.68 145.014 1114.8 143.807 1116.46 143.807C1118.12 143.807 1119.23 145.014 1119.23 146.953C1119.23 148.887 1118.12 150.1 1116.46 150.1ZM1116.46 149.414C1117.65 149.414 1118.45 148.5 1118.45 146.953C1118.45 145.406 1117.65 144.492 1116.46 144.492C1115.26 144.492 1114.47 145.406 1114.47 146.953C1114.47 148.5 1115.26 149.414 1116.46 149.414ZM1116.77 142.98H1116.08L1117.36 141.211H1118.21L1116.77 142.98ZM1120.27 150V143.906H1121V145.031H1121.02C1121.33 144.293 1122.04 143.807 1123.03 143.807C1124.36 143.807 1125.18 144.668 1125.18 146.051V150H1124.41V146.174C1124.41 145.107 1123.82 144.498 1122.8 144.498C1121.75 144.498 1121.04 145.26 1121.04 146.391V150H1120.27Z" fill="#87909F"/>
<g clip-path="url(#clip0_65_8834)">
<path d="M60 220C71.0457 220 80 211.046 80 200C80 188.954 71.0457 180 60 180C48.9543 180 40 188.954 40 200C40 211.046 48.9543 220 60 220Z" fill="#4F6AF5"/>
<path d="M59.2537 210.113V208.037C58.0714 207.943 57.0759 207.671 56.267 207.22C55.4581 206.753 54.7581 206.178 54.167 205.493L56.057 203.767C56.5081 204.296 57.0137 204.731 57.5737 205.073C58.1337 205.4 58.7637 205.61 59.4637 205.703V200.967C57.7526 200.609 56.5159 200.064 55.7537 199.333C55.007 198.587 54.6337 197.638 54.6337 196.487C54.6337 195.242 55.0381 194.247 55.847 193.5C56.6559 192.738 57.7914 192.271 59.2537 192.1V190H61.5637V192.1C62.5437 192.209 63.3837 192.45 64.0837 192.823C64.7992 193.197 65.4214 193.71 65.9503 194.363L64.037 196.02C63.7259 195.647 63.3526 195.32 62.917 195.04C62.497 194.76 61.9759 194.558 61.3537 194.433V198.773C63.0181 199.162 64.2392 199.707 65.017 200.407C65.7947 201.091 66.1837 202.04 66.1837 203.253C66.1837 204.451 65.7947 205.486 65.017 206.357C64.2392 207.212 63.0881 207.749 61.5637 207.967V210.113H59.2537ZM57.457 196.37C57.457 196.914 57.6126 197.334 57.9237 197.63C58.2503 197.926 58.7637 198.167 59.4637 198.353V194.41C58.1259 194.643 57.457 195.297 57.457 196.37ZM63.3837 203.463C63.3837 202.997 63.2359 202.592 62.9403 202.25C62.6603 201.892 62.1314 201.604 61.3537 201.387V205.68C62.007 205.54 62.5047 205.276 62.847 204.887C63.2047 204.482 63.3837 204.008 63.3837 203.463Z" fill="white"/>
</g>
<path d="M92.6953 208.781C87.9492 208.781 84.9492 205.43 84.9492 200.039C84.9492 194.684 87.9727 191.309 92.6953 191.309C96.5273 191.309 99.4219 193.664 99.8672 197.191H97.2656C96.7969 195.023 94.9922 193.605 92.6953 193.605C89.625 193.605 87.6328 196.125 87.6328 200.039C87.6328 203.988 89.6016 206.484 92.707 206.484C95.0625 206.484 96.7383 205.277 97.2656 203.238H99.8789C99.2344 206.73 96.5859 208.781 92.6953 208.781ZM109.559 191.309C114.422 191.309 117.48 194.672 117.48 200.051C117.48 205.43 114.422 208.781 109.559 208.781C104.684 208.781 101.637 205.43 101.637 200.051C101.637 194.672 104.684 191.309 109.559 191.309ZM109.559 193.617C106.348 193.617 104.32 196.102 104.32 200.051C104.32 203.988 106.348 206.473 109.559 206.473C112.77 206.473 114.785 203.988 114.785 200.051C114.785 196.102 112.77 193.617 109.559 193.617ZM119.988 191.59H126.328C129.609 191.59 131.895 193.852 131.895 197.145C131.895 200.449 129.562 202.723 126.246 202.723H122.613V208.5H119.988V191.59ZM122.613 193.805V200.52H125.625C127.91 200.52 129.211 199.289 129.211 197.156C129.211 195.023 127.91 193.805 125.637 193.805H122.613Z" fill="#242826"/>
<path d="M265.279 191.5V182.148H265.232L262.318 184.195V182.297L265.264 180.227H267.256V191.5H265.279ZM269.795 183.57C269.795 181.492 271.459 180 273.795 180C276.045 180 277.654 181.375 277.654 183.203C277.654 184.547 276.857 185.562 275.381 187.055L272.592 189.812V189.852H277.826V191.5H269.904V190.141L274.053 186.016C275.334 184.711 275.686 184.133 275.686 183.289C275.686 182.359 274.85 181.617 273.732 181.617C272.561 181.617 271.686 182.445 271.686 183.562V183.594H269.795V183.57ZM280.662 191.586C280.029 191.586 279.537 191.094 279.537 190.461C279.537 189.836 280.029 189.336 280.662 189.336C281.287 189.336 281.779 189.836 281.779 190.461C281.779 191.094 281.287 191.586 280.662 191.586ZM287.857 191.727C285.529 191.727 283.842 190.328 283.756 188.328H285.646C285.771 189.375 286.686 190.094 287.873 190.094C289.217 190.094 290.139 189.156 290.139 187.828C290.139 186.477 289.209 185.523 287.889 185.523C286.967 185.523 286.17 185.945 285.756 186.648H283.928L284.514 180.227H291.42V181.875H286.107L285.818 185.172H285.865C286.334 184.445 287.256 183.992 288.373 183.992C290.529 183.992 292.084 185.578 292.084 187.773C292.084 190.117 290.357 191.727 287.857 191.727ZM296.295 191.5V182.148H296.248L293.334 184.195V182.297L296.279 180.227H298.271V191.5H296.295ZM300.811 183.57C300.811 181.492 302.475 180 304.811 180C307.061 180 308.67 181.375 308.67 183.203C308.67 184.547 307.873 185.562 306.396 187.055L303.607 189.812V189.852H308.842V191.5H300.92V190.141L305.068 186.016C306.35 184.711 306.701 184.133 306.701 183.289C306.701 182.359 305.865 181.617 304.748 181.617C303.576 181.617 302.701 182.445 302.701 183.562V183.594H300.811V183.57ZM311.678 191.586C311.045 191.586 310.553 191.094 310.553 190.461C310.553 189.836 311.045 189.336 311.678 189.336C312.303 189.336 312.795 189.836 312.795 190.461C312.795 191.094 312.303 191.586 311.678 191.586ZM314.561 183.57C314.561 181.492 316.225 180 318.561 180C320.811 180 322.42 181.375 322.42 183.203C322.42 184.547 321.623 185.562 320.146 187.055L317.357 189.812V189.852H322.592V191.5H314.67V190.141L318.818 186.016C320.1 184.711 320.451 184.133 320.451 183.289C320.451 182.359 319.615 181.617 318.498 181.617C317.326 181.617 316.451 182.445 316.451 183.562V183.594H314.561V183.57ZM328.279 191.727C325.951 191.727 324.264 190.328 324.178 188.328H326.068C326.193 189.375 327.107 190.094 328.295 190.094C329.639 190.094 330.561 189.156 330.561 187.828C330.561 186.477 329.631 185.523 328.311 185.523C327.389 185.523 326.592 185.945 326.178 186.648H324.35L324.936 180.227H331.842V181.875H326.529L326.24 185.172H326.287C326.756 184.445 327.678 183.992 328.795 183.992C330.951 183.992 332.506 185.578 332.506 187.773C332.506 190.117 330.779 191.727 328.279 191.727ZM338.248 191.734C336.607 191.734 335.271 190.938 334.514 189.492C333.982 188.57 333.709 187.391 333.709 185.992C333.709 182.234 335.451 179.992 338.311 179.992C340.373 179.992 341.975 181.219 342.311 183.039H340.311C340.053 182.188 339.264 181.633 338.295 181.633C336.607 181.633 335.615 183.195 335.631 185.914H335.67C336.146 184.812 337.303 184.078 338.725 184.078C340.865 184.078 342.459 185.656 342.459 187.797C342.459 190.086 340.693 191.734 338.248 191.734ZM338.232 190.086C339.482 190.086 340.475 189.102 340.475 187.859C340.475 186.586 339.537 185.656 338.248 185.656C336.951 185.656 335.99 186.586 335.99 187.836C335.99 189.094 336.975 190.086 338.232 190.086Z" fill="#0D0E17"/>
<path d="M193.199 211.156C192.467 211.156 192.154 211.762 192.096 212.65H190.328C190.328 210.531 191.295 209.184 193.092 209.184C193.902 209.184 194.527 209.525 195.201 210.15C195.768 210.697 196.168 210.98 196.617 210.98C197.369 210.98 197.682 210.395 197.73 209.496H199.508C199.508 211.605 198.482 212.973 196.744 212.973C195.953 212.973 195.309 212.631 194.615 211.996C194.029 211.439 193.629 211.156 193.199 211.156ZM193.199 215.717C192.467 215.717 192.154 216.322 192.096 217.211H190.328C190.328 215.092 191.295 213.744 193.092 213.744C193.902 213.744 194.527 214.086 195.201 214.711C195.768 215.258 196.168 215.541 196.617 215.541C197.369 215.541 197.682 214.955 197.73 214.057H199.508C199.508 216.166 198.482 217.533 196.744 217.533C195.953 217.533 195.309 217.191 194.615 216.557C194.029 216 193.629 215.717 193.199 215.717ZM205.973 218.5V206.273H205.934L202.203 208.959V207.104L205.953 204.408H207.672V218.5H205.973ZM211.158 208.471C211.158 206.01 213.15 204.174 215.807 204.174C218.326 204.174 220.309 205.883 220.309 208.041C220.309 209.613 219.596 210.785 217.242 213.217L213.678 216.898V216.938H220.543V218.5H211.246V217.289L216.207 212.064C218.102 210.072 218.551 209.32 218.551 208.148C218.551 206.791 217.311 205.707 215.758 205.707C214.107 205.707 212.857 206.898 212.857 208.471V208.48H211.158V208.471ZM223.971 218.598C223.346 218.598 222.857 218.109 222.857 217.484C222.857 216.859 223.346 216.371 223.971 216.371C224.596 216.371 225.084 216.859 225.084 217.484C225.084 218.109 224.596 218.598 223.971 218.598ZM232.691 218.734C229.996 218.734 228.004 217.055 227.857 214.652H229.586C229.742 216.156 231.021 217.191 232.711 217.191C234.625 217.191 235.953 215.863 235.953 213.969C235.953 212.074 234.615 210.717 232.74 210.717C231.422 210.717 230.299 211.312 229.723 212.299H228.072L228.844 204.408H236.91V205.971H230.289L229.859 210.561H229.898C230.533 209.711 231.705 209.203 233.053 209.203C235.758 209.203 237.711 211.186 237.711 213.92C237.711 216.752 235.631 218.734 232.691 218.734ZM243.141 218.5V206.273H243.102L239.371 208.959V207.104L243.121 204.408H244.84V218.5H243.141ZM248.326 208.471C248.326 206.01 250.318 204.174 252.975 204.174C255.494 204.174 257.477 205.883 257.477 208.041C257.477 209.613 256.764 210.785 254.41 213.217L250.846 216.898V216.938H257.711V218.5H248.414V217.289L253.375 212.064C255.27 210.072 255.719 209.32 255.719 208.148C255.719 206.791 254.479 205.707 252.926 205.707C251.275 205.707 250.025 206.898 250.025 208.471V208.48H248.326V208.471ZM261.139 218.598C260.514 218.598 260.025 218.109 260.025 217.484C260.025 216.859 260.514 216.371 261.139 216.371C261.764 216.371 262.252 216.859 262.252 217.484C262.252 218.109 261.764 218.598 261.139 218.598ZM264.732 208.471C264.732 206.01 266.725 204.174 269.381 204.174C271.9 204.174 273.883 205.883 273.883 208.041C273.883 209.613 273.17 210.785 270.816 213.217L267.252 216.898V216.938H274.117V218.5H264.82V217.289L269.781 212.064C271.676 210.072 272.125 209.32 272.125 208.148C272.125 206.791 270.885 205.707 269.332 205.707C267.682 205.707 266.432 206.898 266.432 208.471V208.48H264.732V208.471ZM280.992 218.734C278.297 218.734 276.305 217.055 276.158 214.652H277.887C278.043 216.156 279.322 217.191 281.012 217.191C282.926 217.191 284.254 215.863 284.254 213.969C284.254 212.074 282.916 210.717 281.041 210.717C279.723 210.717 278.6 211.312 278.023 212.299H276.373L277.145 204.408H285.211V205.971H278.59L278.16 210.561H278.199C278.834 209.711 280.006 209.203 281.354 209.203C284.059 209.203 286.012 211.186 286.012 213.92C286.012 216.752 283.932 218.734 280.992 218.734ZM292.945 218.744C290.836 218.744 289.156 217.602 288.287 215.57C287.818 214.486 287.594 213.217 287.594 211.693C287.594 206.947 289.615 204.164 293.062 204.164C295.455 204.164 297.291 205.6 297.74 207.816H295.953C295.572 206.537 294.439 205.717 293.043 205.717C290.689 205.717 289.352 207.807 289.293 211.557H289.322C289.957 210.18 291.51 209.271 293.258 209.271C295.943 209.271 297.936 211.254 297.936 213.93C297.936 216.713 295.836 218.744 292.945 218.744ZM292.926 217.182C294.723 217.182 296.148 215.766 296.148 213.988C296.148 212.143 294.82 210.814 292.955 210.814C291.09 210.814 289.713 212.143 289.713 213.939C289.713 215.746 291.119 217.182 292.926 217.182ZM309.947 218.734C306.061 218.734 303.6 215.912 303.6 211.449C303.6 207.025 306.09 204.174 309.947 204.174C313.014 204.174 315.348 206.039 315.797 208.852H314.02C313.57 207.006 311.959 205.795 309.947 205.795C307.193 205.795 305.406 208.021 305.406 211.449C305.406 214.906 307.174 217.113 309.957 217.113C312.027 217.113 313.512 216.117 314.02 214.398H315.797C315.152 217.182 313.062 218.734 309.947 218.734ZM323.824 204.174C327.818 204.174 330.318 206.986 330.318 211.459C330.318 215.932 327.818 218.734 323.824 218.734C319.83 218.734 317.33 215.932 317.33 211.459C317.33 206.986 319.83 204.174 323.824 204.174ZM323.824 205.795C320.943 205.795 319.137 207.982 319.137 211.459C319.137 214.926 320.943 217.113 323.824 217.113C326.705 217.113 328.512 214.926 328.512 211.459C328.512 207.982 326.705 205.795 323.824 205.795ZM332.506 204.408H337.535C340.182 204.408 342.047 206.264 342.047 208.93C342.047 211.605 340.162 213.471 337.516 213.471H334.264V218.5H332.506V204.408ZM334.264 205.971V211.908H337.076C339.088 211.908 340.24 210.805 340.24 208.93C340.24 207.064 339.098 205.971 337.076 205.971H334.264Z" fill="#87909F"/>
<path d="M535.014 190.17C532.939 190.17 531.703 188.477 531.703 185.764C531.703 183.062 532.951 181.375 535.014 181.375C537.07 181.375 538.312 183.051 538.312 185.758C538.312 188.465 537.082 190.17 535.014 190.17ZM535.014 188.934C536.133 188.934 536.783 187.756 536.783 185.764C536.783 183.789 536.121 182.611 535.014 182.611C533.9 182.611 533.227 183.801 533.227 185.758C533.227 187.75 533.889 188.934 535.014 188.934Z" fill="#0D0E17"/>
<path d="M532.557 216.283C529.1 216.283 527.039 213.461 527.039 208.939C527.039 204.438 529.119 201.625 532.557 201.625C535.984 201.625 538.055 204.418 538.055 208.93C538.055 213.441 536.004 216.283 532.557 216.283ZM532.557 214.223C534.422 214.223 535.506 212.26 535.506 208.939C535.506 205.648 534.402 203.686 532.557 203.686C530.701 203.686 529.578 205.668 529.578 208.93C529.578 212.25 530.682 214.223 532.557 214.223Z" fill="#87909F"/>
<path d="M656.479 191.5V182.148H656.433L653.519 184.195V182.297L656.464 180.227H658.456V191.5H656.479ZM660.995 183.57C660.995 181.492 662.659 180 664.995 180C667.245 180 668.854 181.375 668.854 183.203C668.854 184.547 668.058 185.562 666.581 187.055L663.792 189.812V189.852H669.026V191.5H661.104V190.141L665.253 186.016C666.534 184.711 666.886 184.133 666.886 183.289C666.886 182.359 666.05 181.617 664.933 181.617C663.761 181.617 662.886 182.445 662.886 183.562V183.594H660.995V183.57ZM671.862 191.586C671.229 191.586 670.737 191.094 670.737 190.461C670.737 189.836 671.229 189.336 671.862 189.336C672.487 189.336 672.979 189.836 672.979 190.461C672.979 191.094 672.487 191.586 671.862 191.586ZM679.058 191.727C676.729 191.727 675.042 190.328 674.956 188.328H676.847C676.972 189.375 677.886 190.094 679.073 190.094C680.417 190.094 681.339 189.156 681.339 187.828C681.339 186.477 680.409 185.523 679.089 185.523C678.167 185.523 677.37 185.945 676.956 186.648H675.128L675.714 180.227H682.62V181.875H677.308L677.019 185.172H677.065C677.534 184.445 678.456 183.992 679.573 183.992C681.729 183.992 683.284 185.578 683.284 187.773C683.284 190.117 681.558 191.727 679.058 191.727ZM687.495 191.5V182.148H687.448L684.534 184.195V182.297L687.479 180.227H689.472V191.5H687.495ZM692.011 183.57C692.011 181.492 693.675 180 696.011 180C698.261 180 699.87 181.375 699.87 183.203C699.87 184.547 699.073 185.562 697.597 187.055L694.808 189.812V189.852H700.042V191.5H692.12V190.141L696.269 186.016C697.55 184.711 697.901 184.133 697.901 183.289C697.901 182.359 697.065 181.617 695.948 181.617C694.776 181.617 693.901 182.445 693.901 183.562V183.594H692.011V183.57ZM702.878 191.586C702.245 191.586 701.753 191.094 701.753 190.461C701.753 189.836 702.245 189.336 702.878 189.336C703.503 189.336 703.995 189.836 703.995 190.461C703.995 191.094 703.503 191.586 702.878 191.586ZM705.761 183.57C705.761 181.492 707.425 180 709.761 180C712.011 180 713.62 181.375 713.62 183.203C713.62 184.547 712.823 185.562 711.347 187.055L708.558 189.812V189.852H713.792V191.5H705.87V190.141L710.019 186.016C711.3 184.711 711.651 184.133 711.651 183.289C711.651 182.359 710.815 181.617 709.698 181.617C708.526 181.617 707.651 182.445 707.651 183.562V183.594H705.761V183.57ZM719.479 191.727C717.151 191.727 715.464 190.328 715.378 188.328H717.269C717.394 189.375 718.308 190.094 719.495 190.094C720.839 190.094 721.761 189.156 721.761 187.828C721.761 186.477 720.831 185.523 719.511 185.523C718.589 185.523 717.792 185.945 717.378 186.648H715.55L716.136 180.227H723.042V181.875H717.729L717.44 185.172H717.487C717.956 184.445 718.878 183.992 719.995 183.992C722.151 183.992 723.706 185.578 723.706 187.773C723.706 190.117 721.979 191.727 719.479 191.727ZM729.448 191.734C727.808 191.734 726.472 190.938 725.714 189.492C725.183 188.57 724.909 187.391 724.909 185.992C724.909 182.234 726.651 179.992 729.511 179.992C731.573 179.992 733.175 181.219 733.511 183.039H731.511C731.253 182.188 730.464 181.633 729.495 181.633C727.808 181.633 726.815 183.195 726.831 185.914H726.87C727.347 184.812 728.503 184.078 729.925 184.078C732.065 184.078 733.659 185.656 733.659 187.797C733.659 190.086 731.894 191.734 729.448 191.734ZM729.433 190.086C730.683 190.086 731.675 189.102 731.675 187.859C731.675 186.586 730.737 185.656 729.448 185.656C728.151 185.656 727.19 186.586 727.19 187.836C727.19 189.094 728.175 190.086 729.433 190.086Z" fill="#0D0E17"/>
<path d="M584.399 211.156C583.667 211.156 583.354 211.762 583.296 212.65H581.528C581.528 210.531 582.495 209.184 584.292 209.184C585.103 209.184 585.728 209.525 586.401 210.15C586.968 210.697 587.368 210.98 587.817 210.98C588.569 210.98 588.882 210.395 588.931 209.496H590.708C590.708 211.605 589.683 212.973 587.944 212.973C587.153 212.973 586.509 212.631 585.815 211.996C585.229 211.439 584.829 211.156 584.399 211.156ZM584.399 215.717C583.667 215.717 583.354 216.322 583.296 217.211H581.528C581.528 215.092 582.495 213.744 584.292 213.744C585.103 213.744 585.728 214.086 586.401 214.711C586.968 215.258 587.368 215.541 587.817 215.541C588.569 215.541 588.882 214.955 588.931 214.057H590.708C590.708 216.166 589.683 217.533 587.944 217.533C587.153 217.533 586.509 217.191 585.815 216.557C585.229 216 584.829 215.717 584.399 215.717ZM597.173 218.5V206.273H597.134L593.403 208.959V207.104L597.153 204.408H598.872V218.5H597.173ZM602.358 208.471C602.358 206.01 604.351 204.174 607.007 204.174C609.526 204.174 611.509 205.883 611.509 208.041C611.509 209.613 610.796 210.785 608.442 213.217L604.878 216.898V216.938H611.743V218.5H602.446V217.289L607.407 212.064C609.302 210.072 609.751 209.32 609.751 208.148C609.751 206.791 608.511 205.707 606.958 205.707C605.308 205.707 604.058 206.898 604.058 208.471V208.48H602.358V208.471ZM615.171 218.598C614.546 218.598 614.058 218.109 614.058 217.484C614.058 216.859 614.546 216.371 615.171 216.371C615.796 216.371 616.284 216.859 616.284 217.484C616.284 218.109 615.796 218.598 615.171 218.598ZM623.892 218.734C621.196 218.734 619.204 217.055 619.058 214.652H620.786C620.942 216.156 622.222 217.191 623.911 217.191C625.825 217.191 627.153 215.863 627.153 213.969C627.153 212.074 625.815 210.717 623.94 210.717C622.622 210.717 621.499 211.312 620.923 212.299H619.272L620.044 204.408H628.11V205.971H621.489L621.06 210.561H621.099C621.733 209.711 622.905 209.203 624.253 209.203C626.958 209.203 628.911 211.186 628.911 213.92C628.911 216.752 626.831 218.734 623.892 218.734ZM634.341 218.5V206.273H634.302L630.571 208.959V207.104L634.321 204.408H636.04V218.5H634.341ZM639.526 208.471C639.526 206.01 641.519 204.174 644.175 204.174C646.694 204.174 648.677 205.883 648.677 208.041C648.677 209.613 647.964 210.785 645.61 213.217L642.046 216.898V216.938H648.911V218.5H639.614V217.289L644.575 212.064C646.47 210.072 646.919 209.32 646.919 208.148C646.919 206.791 645.679 205.707 644.126 205.707C642.476 205.707 641.226 206.898 641.226 208.471V208.48H639.526V208.471ZM652.339 218.598C651.714 218.598 651.226 218.109 651.226 217.484C651.226 216.859 651.714 216.371 652.339 216.371C652.964 216.371 653.452 216.859 653.452 217.484C653.452 218.109 652.964 218.598 652.339 218.598ZM655.933 208.471C655.933 206.01 657.925 204.174 660.581 204.174C663.101 204.174 665.083 205.883 665.083 208.041C665.083 209.613 664.37 210.785 662.017 213.217L658.452 216.898V216.938H665.317V218.5H656.021V217.289L660.981 212.064C662.876 210.072 663.325 209.32 663.325 208.148C663.325 206.791 662.085 205.707 660.532 205.707C658.882 205.707 657.632 206.898 657.632 208.471V208.48H655.933V208.471ZM672.192 218.734C669.497 218.734 667.505 217.055 667.358 214.652H669.087C669.243 216.156 670.522 217.191 672.212 217.191C674.126 217.191 675.454 215.863 675.454 213.969C675.454 212.074 674.116 210.717 672.241 210.717C670.923 210.717 669.8 211.312 669.224 212.299H667.573L668.345 204.408H676.411V205.971H669.79L669.36 210.561H669.399C670.034 209.711 671.206 209.203 672.554 209.203C675.259 209.203 677.212 211.186 677.212 213.92C677.212 216.752 675.132 218.734 672.192 218.734ZM684.146 218.744C682.036 218.744 680.356 217.602 679.487 215.57C679.019 214.486 678.794 213.217 678.794 211.693C678.794 206.947 680.815 204.164 684.263 204.164C686.655 204.164 688.491 205.6 688.94 207.816H687.153C686.772 206.537 685.64 205.717 684.243 205.717C681.89 205.717 680.552 207.807 680.493 211.557H680.522C681.157 210.18 682.71 209.271 684.458 209.271C687.144 209.271 689.136 211.254 689.136 213.93C689.136 216.713 687.036 218.744 684.146 218.744ZM684.126 217.182C685.923 217.182 687.349 215.766 687.349 213.988C687.349 212.143 686.021 210.814 684.155 210.814C682.29 210.814 680.913 212.143 680.913 213.939C680.913 215.746 682.319 217.182 684.126 217.182ZM701.147 218.734C697.261 218.734 694.8 215.912 694.8 211.449C694.8 207.025 697.29 204.174 701.147 204.174C704.214 204.174 706.548 206.039 706.997 208.852H705.22C704.771 207.006 703.159 205.795 701.147 205.795C698.394 205.795 696.606 208.021 696.606 211.449C696.606 214.906 698.374 217.113 701.157 217.113C703.228 217.113 704.712 216.117 705.22 214.398H706.997C706.353 217.182 704.263 218.734 701.147 218.734ZM715.024 204.174C719.019 204.174 721.519 206.986 721.519 211.459C721.519 215.932 719.019 218.734 715.024 218.734C711.03 218.734 708.53 215.932 708.53 211.459C708.53 206.986 711.03 204.174 715.024 204.174ZM715.024 205.795C712.144 205.795 710.337 207.982 710.337 211.459C710.337 214.926 712.144 217.113 715.024 217.113C717.905 217.113 719.712 214.926 719.712 211.459C719.712 207.982 717.905 205.795 715.024 205.795ZM723.706 204.408H728.735C731.382 204.408 733.247 206.264 733.247 208.93C733.247 211.605 731.362 213.471 728.716 213.471H725.464V218.5H723.706V204.408ZM725.464 205.971V211.908H728.276C730.288 211.908 731.44 210.805 731.44 208.93C731.44 207.064 730.298 205.971 728.276 205.971H725.464Z" fill="#87909F"/>
<path d="M870.821 189.977V188.461H872.181C873.337 188.461 874.126 187.75 874.126 186.742C874.126 185.758 873.438 185.102 872.173 185.102C871.009 185.102 870.228 185.781 870.149 186.836H868.274C868.384 184.812 869.938 183.5 872.267 183.5C874.485 183.5 876.063 184.711 876.063 186.469C876.063 187.867 875.126 188.875 873.735 189.117V189.164C875.423 189.289 876.517 190.32 876.517 191.891C876.517 193.883 874.704 195.227 872.243 195.227C869.767 195.227 868.157 193.867 868.056 191.859H869.978C870.071 192.891 870.915 193.578 872.259 193.578C873.556 193.578 874.47 192.852 874.47 191.812C874.47 190.672 873.61 189.977 872.212 189.977H870.821ZM877.985 187.07C877.985 184.992 879.649 183.5 881.985 183.5C884.235 183.5 885.845 184.875 885.845 186.703C885.845 188.047 885.048 189.062 883.571 190.555L880.782 193.312V193.352H886.017V195H878.095V193.641L882.243 189.516C883.524 188.211 883.876 187.633 883.876 186.789C883.876 185.859 883.04 185.117 881.923 185.117C880.751 185.117 879.876 185.945 879.876 187.062V187.094H877.985V187.07ZM891.751 195.227C888.985 195.227 887.337 192.969 887.337 189.352C887.337 185.75 889.001 183.5 891.751 183.5C894.493 183.5 896.149 185.734 896.149 189.344C896.149 192.953 894.509 195.227 891.751 195.227ZM891.751 193.578C893.243 193.578 894.11 192.008 894.11 189.352C894.11 186.719 893.228 185.148 891.751 185.148C890.267 185.148 889.368 186.734 889.368 189.344C889.368 192 890.251 193.578 891.751 193.578ZM901.907 195.227C899.142 195.227 897.493 192.969 897.493 189.352C897.493 185.75 899.157 183.5 901.907 183.5C904.649 183.5 906.306 185.734 906.306 189.344C906.306 192.953 904.665 195.227 901.907 195.227ZM901.907 193.578C903.399 193.578 904.267 192.008 904.267 189.352C904.267 186.719 903.384 185.148 901.907 185.148C900.423 185.148 899.524 186.734 899.524 189.344C899.524 192 900.407 193.578 901.907 193.578ZM908.774 195.086C908.142 195.086 907.649 194.594 907.649 193.961C907.649 193.336 908.142 192.836 908.774 192.836C909.399 192.836 909.892 193.336 909.892 193.961C909.892 194.594 909.399 195.086 908.774 195.086ZM915.985 195.234C914.345 195.234 913.009 194.438 912.251 192.992C911.72 192.07 911.446 190.891 911.446 189.492C911.446 185.734 913.188 183.492 916.048 183.492C918.11 183.492 919.712 184.719 920.048 186.539H918.048C917.79 185.688 917.001 185.133 916.032 185.133C914.345 185.133 913.353 186.695 913.368 189.414H913.407C913.884 188.312 915.04 187.578 916.462 187.578C918.603 187.578 920.196 189.156 920.196 191.297C920.196 193.586 918.431 195.234 915.985 195.234ZM915.97 193.586C917.22 193.586 918.212 192.602 918.212 191.359C918.212 190.086 917.274 189.156 915.985 189.156C914.688 189.156 913.728 190.086 913.728 191.336C913.728 192.594 914.712 193.586 915.97 193.586ZM922.251 195L927.196 185.414V185.375H921.337V183.727H929.181V185.406L924.36 195H922.251Z" fill="#0D0E17"/>
<path d="M1063.76 205.5H1061.75V195.93H1058.38V194.227H1067.12V195.93H1063.76V205.5ZM1066.98 205.5V197.219H1068.85V198.664H1068.89C1069.17 197.656 1069.9 197.078 1070.88 197.078C1071.12 197.078 1071.34 197.125 1071.48 197.156V198.914C1071.32 198.852 1071.02 198.805 1070.7 198.805C1069.59 198.805 1068.93 199.516 1068.93 200.68V205.5H1066.98ZM1075.32 204.164C1076.42 204.164 1077.3 203.43 1077.3 202.43V201.797L1075.39 201.914C1074.45 201.977 1073.91 202.398 1073.91 203.055C1073.91 203.734 1074.48 204.164 1075.32 204.164ZM1074.73 205.633C1073.13 205.633 1071.97 204.625 1071.97 203.133C1071.97 201.664 1073.1 200.781 1075.12 200.656L1077.3 200.531V199.938C1077.3 199.07 1076.72 198.57 1075.76 198.57C1074.84 198.57 1074.25 199.016 1074.12 199.703H1072.32C1072.41 198.156 1073.73 197.047 1075.84 197.047C1077.89 197.047 1079.23 198.133 1079.23 199.797V205.5H1077.35V204.18H1077.31C1076.84 205.078 1075.8 205.633 1074.73 205.633ZM1080.8 205.5V197.219H1082.66V198.641H1082.7C1083.15 197.656 1084.03 197.062 1085.3 197.062C1087.13 197.062 1088.17 198.234 1088.17 200.148V205.5H1086.23V200.539C1086.23 199.367 1085.68 198.711 1084.57 198.711C1083.45 198.711 1082.74 199.516 1082.74 200.703V205.5H1080.8ZM1089.59 199.594C1089.59 198.078 1090.92 197.047 1092.94 197.047C1094.88 197.047 1096.2 198.094 1096.25 199.625H1094.44C1094.38 198.914 1093.8 198.477 1092.9 198.477C1092.04 198.477 1091.48 198.883 1091.48 199.484C1091.48 199.953 1091.85 200.266 1092.66 200.461L1094.14 200.789C1095.8 201.18 1096.45 201.82 1096.45 203.047C1096.45 204.609 1095 205.664 1092.91 205.664C1090.83 205.664 1089.51 204.633 1089.38 203.062H1091.29C1091.41 203.82 1091.99 204.242 1092.98 204.242C1093.92 204.242 1094.51 203.859 1094.51 203.242C1094.51 202.758 1094.2 202.5 1093.4 202.297L1091.89 201.945C1090.36 201.586 1089.59 200.789 1089.59 199.594ZM1098.23 205.5V198.719H1097.09V197.242H1098.23V196.508C1098.23 194.898 1098.99 194.141 1100.79 194.141C1101.17 194.141 1101.59 194.18 1101.84 194.227V195.586C1101.67 195.562 1101.45 195.539 1101.22 195.539C1100.48 195.539 1100.14 195.891 1100.14 196.562V197.242H1101.8V198.719H1100.17V205.5H1098.23ZM1106.35 198.555C1105.26 198.555 1104.47 199.391 1104.39 200.547H1108.26C1108.22 199.375 1107.47 198.555 1106.35 198.555ZM1108.27 203.023H1110.09C1109.84 204.586 1108.38 205.664 1106.42 205.664C1103.94 205.664 1102.44 204.031 1102.44 201.391C1102.44 198.773 1103.95 197.047 1106.34 197.047C1108.7 197.047 1110.16 198.68 1110.16 201.195V201.828H1104.38V201.945C1104.38 203.273 1105.19 204.164 1106.46 204.164C1107.37 204.164 1108.05 203.711 1108.27 203.023ZM1111.42 205.5V197.219H1113.29V198.664H1113.33C1113.61 197.656 1114.34 197.078 1115.31 197.078C1115.56 197.078 1115.78 197.125 1115.92 197.156V198.914C1115.76 198.852 1115.46 198.805 1115.13 198.805C1114.03 198.805 1113.37 199.516 1113.37 200.68V205.5H1111.42ZM1116.97 205.5V197.219H1118.91V205.5H1116.97ZM1117.94 196.133C1117.34 196.133 1116.86 195.664 1116.86 195.078C1116.86 194.484 1117.34 194.016 1117.94 194.016C1118.55 194.016 1119.02 194.484 1119.02 195.078C1119.02 195.664 1118.55 196.133 1117.94 196.133ZM1120.55 205.5V197.219H1122.41V198.664H1122.45C1122.73 197.656 1123.46 197.078 1124.44 197.078C1124.69 197.078 1124.91 197.125 1125.05 197.156V198.914C1124.88 198.852 1124.59 198.805 1124.26 198.805C1123.16 198.805 1122.49 199.516 1122.49 200.68V205.5H1120.55Z" fill="#4588FF"/>
<defs>
<clipPath id="clip0_65_8834">
<rect width="40" height="40" fill="white" transform="translate(40 180)"/>
</clipPath>
</defs>
</svg>
