<svg width="1440" height="60" viewBox="0 0 1440 60" fill="none" xmlns="http://www.w3.org/2000/svg">
<rect width="1440" height="60" fill="white"/>
<g clip-path="url(#clip0_65_6841)">
<path d="M47.1068 28.0653L40.3002 16.288C38.8148 13.8353 35.1568 13.8132 33.7158 16.3985L26.5546 28.6398C25.2244 30.8937 26.865 33.6999 29.5477 33.6999H43.892C46.5968 33.722 48.6143 30.8053 47.1068 28.0653Z" fill="#003087"/>
<path d="M37.2855 28.9933L36.8642 28.2641C36.4651 27.5791 35.6005 26.1208 35.6005 26.1208L29.8362 16.1333C28.3508 13.9236 24.8035 13.7248 23.3181 16.531L16.6004 28.1095C15.2036 30.5401 16.8665 33.6998 19.8817 33.7219H34.1372H40.2119H43.8258C40.1454 33.744 38.9705 31.8216 37.2855 28.9933Z" fill="#1877F2"/>
<path d="M37.2853 28.9492L36.864 28.22C36.4649 27.535 35.6004 26.0766 35.6004 26.0766L31.8757 19.5361L26.5327 28.6177C25.2024 30.8715 26.8431 33.6778 29.5257 33.6778H34.1149H40.1896H43.8256C40.1231 33.6778 38.9703 31.7996 37.2853 28.9492Z" fill="url(#paint0_linear_65_6841)"/>
<path d="M135.716 19.5013C136.714 18.5733 138.465 18.1313 141.015 18.1313H146.979V14.7506H139.929C138.244 14.7506 136.825 14.9274 135.716 15.2809C134.63 15.6345 133.677 16.1869 132.856 16.9602C131.992 17.7999 131.304 18.8384 130.817 20.0758C130.329 21.3353 130.085 22.7053 130.085 24.1415C130.085 25.5115 130.329 26.8373 130.817 28.0526C131.304 29.2679 131.992 30.3285 132.856 31.1682C133.654 31.9415 134.608 32.494 135.672 32.8475C136.758 33.201 138.199 33.3778 139.929 33.3778H146.979V30.0413H141.015C139.663 30.0413 138.731 29.9971 138.199 29.8866C137.645 29.7761 137.135 29.5993 136.714 29.3342C135.872 28.8039 135.228 28.1189 134.807 27.2571C134.408 26.4175 134.209 25.3569 134.209 24.1195C134.209 21.9982 134.719 20.4294 135.716 19.5013Z" fill="#05152F"/>
<path d="M83.8149 33.422H100.443V30.1517H87.8721V25.4894H98.8466V22.3959H87.8721V18.0651H100.443V14.7727H83.8149V33.422Z" fill="#05152F"/>
<path d="M104.589 14.7727L112.393 24.0973L104.589 33.422H109.622L115.763 26.0418V22.175L109.622 14.7727H104.589Z" fill="#05152F"/>
<path d="M123.478 14.7727L117.337 22.175V26.0418L123.478 33.422H128.511L120.707 24.0973L128.511 14.7727H123.478Z" fill="#05152F"/>
<path d="M67.5196 23.9648L60.0481 14.7727H56.1904V33.422H60.2476V20.9818L66.7214 28.7155H68.2954L74.7692 20.9155V33.422H78.8264V14.7727H75.0132L67.5196 23.9648Z" fill="#05152F"/>
</g>
<path d="M177.678 28.5H176.529V20.8984H176.481L173.337 28.4316H172.298L169.153 20.8984H169.105V28.5H167.957V18.6357H169.386L172.79 26.8662H172.845L176.249 18.6357H177.678V28.5ZM182.258 22.2998C181.144 22.2998 180.364 23.1543 180.289 24.3369H184.151C184.124 23.1475 183.379 22.2998 182.258 22.2998ZM184.124 26.4629H185.293C185.088 27.707 183.885 28.623 182.333 28.623C180.296 28.623 179.059 27.208 179.059 24.9727C179.059 22.7646 180.316 21.2676 182.278 21.2676C184.199 21.2676 185.382 22.6621 185.382 24.8154V25.2666H180.282V25.335C180.282 26.6953 181.082 27.5908 182.36 27.5908C183.263 27.5908 183.926 27.1328 184.124 26.4629ZM186.585 28.5V21.3906H187.706V22.5527H187.733C187.966 21.7666 188.622 21.2676 189.456 21.2676C189.661 21.2676 189.839 21.3018 189.935 21.3154V22.4707C189.839 22.4365 189.586 22.4023 189.299 22.4023C188.376 22.4023 187.774 23.0654 187.774 24.0703V28.5H186.585ZM196.47 23.7217H195.308C195.137 22.9492 194.535 22.3135 193.489 22.3135C192.259 22.3135 191.425 23.332 191.425 24.9453C191.425 26.5996 192.272 27.5771 193.503 27.5771C194.474 27.5771 195.109 27.0645 195.314 26.21H196.483C196.299 27.625 195.109 28.623 193.496 28.623C191.527 28.623 190.215 27.2354 190.215 24.9453C190.215 22.7031 191.521 21.2676 193.482 21.2676C195.26 21.2676 196.319 22.4434 196.47 23.7217ZM199.922 27.6113C201.043 27.6113 201.904 26.8252 201.904 25.7998V25.2188L200.004 25.335C199.047 25.3965 198.5 25.8203 198.5 26.4902C198.5 27.167 199.067 27.6113 199.922 27.6113ZM199.655 28.623C198.24 28.623 197.29 27.7686 197.29 26.4902C197.29 25.2734 198.227 24.5078 199.867 24.4121L201.904 24.2959V23.7012C201.904 22.833 201.33 22.3135 200.346 22.3135C199.43 22.3135 198.855 22.7441 198.705 23.4414H197.557C197.639 22.2109 198.691 21.2676 200.373 21.2676C202.041 21.2676 203.094 22.1699 203.094 23.585V28.5H201.966V27.2764H201.938C201.515 28.0898 200.612 28.623 199.655 28.623ZM207.298 28.623C205.486 28.623 204.256 27.1738 204.256 24.9453C204.256 22.7168 205.479 21.2676 207.271 21.2676C208.289 21.2676 209.109 21.7666 209.533 22.5459H209.561V18.6357H210.75V28.5H209.615V27.2969H209.595C209.137 28.1172 208.323 28.623 207.298 28.623ZM207.523 22.3135C206.266 22.3135 205.473 23.3389 205.473 24.9453C205.473 26.5586 206.266 27.5771 207.523 27.5771C208.747 27.5771 209.567 26.5381 209.567 24.9453C209.567 23.3594 208.747 22.3135 207.523 22.3135ZM215.303 28.623C213.334 28.623 212.008 27.208 212.008 24.9453C212.008 22.6758 213.334 21.2676 215.303 21.2676C217.265 21.2676 218.591 22.6758 218.591 24.9453C218.591 27.208 217.265 28.623 215.303 28.623ZM215.303 27.5771C216.561 27.5771 217.381 26.6201 217.381 24.9453C217.381 23.2705 216.561 22.3135 215.303 22.3135C214.045 22.3135 213.218 23.2705 213.218 24.9453C213.218 26.6201 214.045 27.5771 215.303 27.5771ZM219.671 23.3525C219.671 22.1357 220.758 21.2676 222.323 21.2676C223.793 21.2676 224.873 22.1426 224.928 23.3457H223.793C223.711 22.6621 223.157 22.2383 222.282 22.2383C221.414 22.2383 220.84 22.6689 220.84 23.291C220.84 23.7832 221.216 24.1113 222.022 24.3164L223.123 24.583C224.559 24.9453 225.078 25.4648 225.078 26.5107C225.078 27.748 223.909 28.623 222.248 28.623C220.689 28.623 219.603 27.7754 219.479 26.5176H220.669C220.799 27.2559 221.359 27.6523 222.323 27.6523C223.287 27.6523 223.882 27.2422 223.882 26.5996C223.882 26.0938 223.588 25.8203 222.788 25.6084L221.537 25.2871C220.286 24.9658 219.671 24.3232 219.671 23.3525Z" fill="black"/>
<path d="M246.485 25.7861H247.723C247.839 26.8525 248.851 27.5566 250.259 27.5566C251.592 27.5566 252.562 26.8525 252.562 25.8818C252.562 25.0479 251.981 24.5352 250.655 24.1934L249.391 23.8652C247.572 23.4004 246.766 22.6006 246.766 21.2607C246.766 19.6201 248.201 18.4717 250.252 18.4717C252.214 18.4717 253.636 19.6338 253.69 21.2881H252.46C252.351 20.2285 251.496 19.5791 250.211 19.5791C248.933 19.5791 248.044 20.2422 248.044 21.2061C248.044 21.9512 248.591 22.3955 249.931 22.7441L250.963 23.0176C253.007 23.5303 253.834 24.3164 253.834 25.7314C253.834 27.5361 252.412 28.6641 250.143 28.6641C248.051 28.6641 246.602 27.5293 246.485 25.7861ZM258.537 21.2676C260.349 21.2676 261.579 22.7168 261.579 24.9453C261.579 27.1738 260.355 28.623 258.564 28.623C257.546 28.623 256.726 28.124 256.302 27.3447H256.274V30.8721H255.085V21.3906H256.213V22.5938H256.24C256.678 21.7939 257.505 21.2676 258.537 21.2676ZM258.305 27.5771C259.569 27.5771 260.362 26.5586 260.362 24.9453C260.362 23.3389 259.569 22.3135 258.305 22.3135C257.088 22.3135 256.268 23.3662 256.268 24.9453C256.268 26.5312 257.088 27.5771 258.305 27.5771ZM265.729 28.623C263.76 28.623 262.434 27.208 262.434 24.9453C262.434 22.6758 263.76 21.2676 265.729 21.2676C267.69 21.2676 269.017 22.6758 269.017 24.9453C269.017 27.208 267.69 28.623 265.729 28.623ZM265.729 27.5771C266.986 27.5771 267.807 26.6201 267.807 24.9453C267.807 23.2705 266.986 22.3135 265.729 22.3135C264.471 22.3135 263.644 23.2705 263.644 24.9453C263.644 26.6201 264.471 27.5771 265.729 27.5771ZM270.603 19.6748H271.792V21.3906H273.173V22.3682H271.792V26.5928C271.792 27.2422 272.065 27.5361 272.674 27.5361C272.811 27.5361 273.084 27.5156 273.166 27.502V28.5C273.022 28.5342 272.694 28.5547 272.414 28.5547C271.108 28.5547 270.603 28.0215 270.603 26.6543V22.3682H269.543V21.3906H270.603V19.6748Z" fill="black"/>
<path d="M289.259 21.5872C289.35 21.5874 289.44 21.6136 289.517 21.6628C289.594 21.712 289.655 21.7821 289.693 21.8649C289.732 21.9478 289.746 22.0398 289.734 22.1303C289.722 22.2208 289.684 22.3061 289.625 22.376L286.368 26.2424C286.323 26.2959 286.267 26.3389 286.203 26.3684C286.14 26.3979 286.071 26.4132 286.001 26.4132C285.931 26.4132 285.862 26.3979 285.798 26.3684C285.735 26.3389 285.678 26.2959 285.633 26.2424L282.374 22.376C282.315 22.3061 282.278 22.2208 282.266 22.1303C282.254 22.0398 282.268 21.9478 282.306 21.8649C282.345 21.7821 282.406 21.712 282.483 21.6628C282.56 21.6136 282.649 21.5874 282.741 21.5872H289.259Z" fill="black"/>
<path d="M312.188 28.5H310.957V18.6357H316.945V19.7432H312.188V23.1338H316.556V24.2275H312.188V28.5ZM324.007 21.3906V28.5H322.879V27.3447H322.852C322.428 28.165 321.689 28.623 320.596 28.623C319.044 28.623 318.135 27.6182 318.135 26.0049V21.3906H319.324V25.793C319.324 26.9482 319.864 27.5703 320.965 27.5703C322.12 27.5703 322.817 26.7773 322.817 25.5674V21.3906H324.007ZM325.935 19.6748H327.124V21.3906H328.505V22.3682H327.124V26.5928C327.124 27.2422 327.397 27.5361 328.006 27.5361C328.143 27.5361 328.416 27.5156 328.498 27.502V28.5C328.354 28.5342 328.026 28.5547 327.746 28.5547C326.44 28.5547 325.935 28.0215 325.935 26.6543V22.3682H324.875V21.3906H325.935V19.6748ZM335.614 21.3906V28.5H334.486V27.3447H334.459C334.035 28.165 333.297 28.623 332.203 28.623C330.651 28.623 329.742 27.6182 329.742 26.0049V21.3906H330.932V25.793C330.932 26.9482 331.472 27.5703 332.572 27.5703C333.728 27.5703 334.425 26.7773 334.425 25.5674V21.3906H335.614ZM337.159 28.5V21.3906H338.28V22.5527H338.308C338.54 21.7666 339.196 21.2676 340.03 21.2676C340.235 21.2676 340.413 21.3018 340.509 21.3154V22.4707C340.413 22.4365 340.16 22.4023 339.873 22.4023C338.95 22.4023 338.349 23.0654 338.349 24.0703V28.5H337.159ZM344.084 28.623C342.115 28.623 340.789 27.208 340.789 24.9453C340.789 22.6758 342.115 21.2676 344.084 21.2676C346.046 21.2676 347.372 22.6758 347.372 24.9453C347.372 27.208 346.046 28.623 344.084 28.623ZM344.084 27.5771C345.342 27.5771 346.162 26.6201 346.162 24.9453C346.162 23.2705 345.342 22.3135 344.084 22.3135C342.826 22.3135 341.999 23.2705 341.999 24.9453C341.999 26.6201 342.826 27.5771 344.084 27.5771ZM348.452 23.3525C348.452 22.1357 349.539 21.2676 351.104 21.2676C352.574 21.2676 353.654 22.1426 353.709 23.3457H352.574C352.492 22.6621 351.938 22.2383 351.063 22.2383C350.195 22.2383 349.621 22.6689 349.621 23.291C349.621 23.7832 349.997 24.1113 350.804 24.3164L351.904 24.583C353.34 24.9453 353.859 25.4648 353.859 26.5107C353.859 27.748 352.69 28.623 351.029 28.623C349.471 28.623 348.384 27.7754 348.261 26.5176H349.45C349.58 27.2559 350.141 27.6523 351.104 27.6523C352.068 27.6523 352.663 27.2422 352.663 26.5996C352.663 26.0938 352.369 25.8203 351.569 25.6084L350.318 25.2871C349.067 24.9658 348.452 24.3232 348.452 23.3525Z" fill="black"/>
<path d="M370.259 21.5872C370.35 21.5874 370.44 21.6136 370.517 21.6628C370.594 21.712 370.655 21.7821 370.693 21.8649C370.732 21.9478 370.746 22.0398 370.734 22.1303C370.722 22.2208 370.684 22.3061 370.625 22.376L367.368 26.2424C367.323 26.2959 367.267 26.3389 367.203 26.3684C367.14 26.3979 367.071 26.4132 367.001 26.4132C366.931 26.4132 366.862 26.3979 366.798 26.3684C366.735 26.3389 366.678 26.2959 366.633 26.2424L363.374 22.376C363.315 22.3061 363.278 22.2208 363.266 22.1303C363.254 22.0398 363.268 21.9478 363.306 21.8649C363.345 21.7821 363.406 21.712 363.483 21.6628C363.56 21.6136 363.649 21.5874 363.741 21.5872H370.259Z" fill="black"/>
<path d="M393.188 28.5H391.957V18.6357H397.945V19.7432H393.188V23.1338H397.556V24.2275H393.188V28.5ZM405.007 21.3906V28.5H403.879V27.3447H403.852C403.428 28.165 402.689 28.623 401.596 28.623C400.044 28.623 399.135 27.6182 399.135 26.0049V21.3906H400.324V25.793C400.324 26.9482 400.864 27.5703 401.965 27.5703C403.12 27.5703 403.817 26.7773 403.817 25.5674V21.3906H405.007ZM406.935 19.6748H408.124V21.3906H409.505V22.3682H408.124V26.5928C408.124 27.2422 408.397 27.5361 409.006 27.5361C409.143 27.5361 409.416 27.5156 409.498 27.502V28.5C409.354 28.5342 409.026 28.5547 408.746 28.5547C407.44 28.5547 406.935 28.0215 406.935 26.6543V22.3682H405.875V21.3906H406.935V19.6748ZM416.614 21.3906V28.5H415.486V27.3447H415.459C415.035 28.165 414.297 28.623 413.203 28.623C411.651 28.623 410.742 27.6182 410.742 26.0049V21.3906H411.932V25.793C411.932 26.9482 412.472 27.5703 413.572 27.5703C414.728 27.5703 415.425 26.7773 415.425 25.5674V21.3906H416.614ZM418.159 28.5V21.3906H419.28V22.5527H419.308C419.54 21.7666 420.196 21.2676 421.03 21.2676C421.235 21.2676 421.413 21.3018 421.509 21.3154V22.4707C421.413 22.4365 421.16 22.4023 420.873 22.4023C419.95 22.4023 419.349 23.0654 419.349 24.0703V28.5H418.159ZM425.084 28.623C423.115 28.623 421.789 27.208 421.789 24.9453C421.789 22.6758 423.115 21.2676 425.084 21.2676C427.046 21.2676 428.372 22.6758 428.372 24.9453C428.372 27.208 427.046 28.623 425.084 28.623ZM425.084 27.5771C426.342 27.5771 427.162 26.6201 427.162 24.9453C427.162 23.2705 426.342 22.3135 425.084 22.3135C423.826 22.3135 422.999 23.2705 422.999 24.9453C422.999 26.6201 423.826 27.5771 425.084 27.5771ZM429.452 23.3525C429.452 22.1357 430.539 21.2676 432.104 21.2676C433.574 21.2676 434.654 22.1426 434.709 23.3457H433.574C433.492 22.6621 432.938 22.2383 432.063 22.2383C431.195 22.2383 430.621 22.6689 430.621 23.291C430.621 23.7832 430.997 24.1113 431.804 24.3164L432.904 24.583C434.34 24.9453 434.859 25.4648 434.859 26.5107C434.859 27.748 433.69 28.623 432.029 28.623C430.471 28.623 429.384 27.7754 429.261 26.5176H430.45C430.58 27.2559 431.141 27.6523 432.104 27.6523C433.068 27.6523 433.663 27.2422 433.663 26.5996C433.663 26.0938 433.369 25.8203 432.569 25.6084L431.318 25.2871C430.067 24.9658 429.452 24.3232 429.452 23.3525ZM448.873 28.5H447.725V20.8984H447.677L444.532 28.4316H443.493L440.349 20.8984H440.301V28.5H439.152V18.6357H440.581L443.985 26.8662H444.04L447.444 18.6357H448.873V28.5ZM455.073 25.0547H450.589V23.9473H455.073V25.0547ZM456.789 18.6357H460.104C463.03 18.6357 464.76 20.4609 464.76 23.5645C464.76 26.6748 463.037 28.5 460.104 28.5H456.789V18.6357ZM458.02 19.7432V27.3926H460.022C462.258 27.3926 463.502 26.0254 463.502 23.5781C463.502 21.1104 462.265 19.7432 460.022 19.7432H458.02ZM468.451 27.6113C469.572 27.6113 470.434 26.8252 470.434 25.7998V25.2188L468.533 25.335C467.576 25.3965 467.029 25.8203 467.029 26.4902C467.029 27.167 467.597 27.6113 468.451 27.6113ZM468.185 28.623C466.77 28.623 465.819 27.7686 465.819 26.4902C465.819 25.2734 466.756 24.5078 468.396 24.4121L470.434 24.2959V23.7012C470.434 22.833 469.859 22.3135 468.875 22.3135C467.959 22.3135 467.385 22.7441 467.234 23.4414H466.086C466.168 22.2109 467.221 21.2676 468.902 21.2676C470.57 21.2676 471.623 22.1699 471.623 23.585V28.5H470.495V27.2764H470.468C470.044 28.0898 469.142 28.623 468.185 28.623ZM473.722 31.1592C473.578 31.1592 473.339 31.1455 473.209 31.1182V30.1201C473.339 30.1475 473.523 30.1543 473.674 30.1543C474.337 30.1543 474.706 29.833 474.979 29.0059L475.144 28.5068L472.519 21.3906H473.79L475.759 27.3105H475.779L477.748 21.3906H478.999L476.203 28.999C475.595 30.6602 475.007 31.1592 473.722 31.1592Z" fill="black"/>
<rect x="938" y="14" width="132" height="32" rx="16" fill="#F6F7F8"/>
<path fill-rule="evenodd" clip-rule="evenodd" d="M961.079 34.021C960.052 34.8423 958.75 35.3334 957.333 35.3334C954.02 35.3334 951.333 32.6471 951.333 29.3334C951.333 26.0197 954.02 23.3334 957.333 23.3334C960.647 23.3334 963.333 26.0197 963.333 29.3334C963.333 30.7499 962.843 32.0518 962.022 33.0782L963.599 34.6558C963.86 34.9162 963.86 35.3383 963.599 35.5986C963.339 35.859 962.917 35.859 962.657 35.5986L961.079 34.021ZM962 29.3334C962 26.756 959.911 24.6667 957.333 24.6667C954.756 24.6667 952.667 26.756 952.667 29.3334C952.667 31.9107 954.756 34 957.333 34C959.911 34 962 31.9107 962 29.3334Z" fill="#A2A9B6"/>
<path d="M978.683 34.5H974.957V24.6357H978.696C980.385 24.6357 981.526 25.6201 981.526 27.0967C981.526 28.1221 980.774 29.0791 979.824 29.25V29.3047C981.164 29.4756 982.025 30.4189 982.025 31.7314C982.025 33.4678 980.781 34.5 978.683 34.5ZM976.188 25.7227V28.8877H978.033C979.489 28.8877 980.282 28.3066 980.282 27.2402C980.282 26.2627 979.612 25.7227 978.416 25.7227H976.188ZM976.188 33.4131H978.498C979.981 33.4131 980.761 32.8115 980.761 31.6699C980.761 30.5283 979.954 29.9473 978.382 29.9473H976.188V33.4131ZM989.073 27.3906V34.5H987.945V33.3447H987.918C987.494 34.165 986.756 34.623 985.662 34.623C984.11 34.623 983.201 33.6182 983.201 32.0049V27.3906H984.391V31.793C984.391 32.9482 984.931 33.5703 986.031 33.5703C987.187 33.5703 987.884 32.7773 987.884 31.5674V27.3906H989.073ZM990.495 29.3525C990.495 28.1357 991.582 27.2676 993.147 27.2676C994.617 27.2676 995.697 28.1426 995.752 29.3457H994.617C994.535 28.6621 993.981 28.2383 993.106 28.2383C992.238 28.2383 991.664 28.6689 991.664 29.291C991.664 29.7832 992.04 30.1113 992.847 30.3164L993.947 30.583C995.383 30.9453 995.902 31.4648 995.902 32.5107C995.902 33.748 994.733 34.623 993.072 34.623C991.514 34.623 990.427 33.7754 990.304 32.5176H991.493C991.623 33.2559 992.184 33.6523 993.147 33.6523C994.111 33.6523 994.706 33.2422 994.706 32.5996C994.706 32.0938 994.412 31.8203 993.612 31.6084L992.361 31.2871C991.11 30.9658 990.495 30.3232 990.495 29.3525ZM1003.05 29.7217H1001.88C1001.71 28.9492 1001.11 28.3135 1000.07 28.3135C998.835 28.3135 998.001 29.332 998.001 30.9453C998.001 32.5996 998.849 33.5771 1000.08 33.5771C1001.05 33.5771 1001.69 33.0645 1001.89 32.21H1003.06C1002.88 33.625 1001.69 34.623 1000.07 34.623C998.104 34.623 996.791 33.2354 996.791 30.9453C996.791 28.7031 998.097 27.2676 1000.06 27.2676C1001.84 27.2676 1002.9 28.4434 1003.05 29.7217ZM1006.5 33.6113C1007.62 33.6113 1008.48 32.8252 1008.48 31.7998V31.2188L1006.58 31.335C1005.62 31.3965 1005.08 31.8203 1005.08 32.4902C1005.08 33.167 1005.64 33.6113 1006.5 33.6113ZM1006.23 34.623C1004.82 34.623 1003.87 33.7686 1003.87 32.4902C1003.87 31.2734 1004.8 30.5078 1006.44 30.4121L1008.48 30.2959V29.7012C1008.48 28.833 1007.91 28.3135 1006.92 28.3135C1006.01 28.3135 1005.43 28.7441 1005.28 29.4414H1004.13C1004.21 28.2109 1005.27 27.2676 1006.95 27.2676C1008.62 27.2676 1009.67 28.1699 1009.67 29.585V34.5H1008.54V33.2764H1008.51C1008.09 34.0898 1007.19 34.623 1006.23 34.623ZM1011.18 34.5V27.3906H1012.3V28.5527H1012.33C1012.56 27.7666 1013.22 27.2676 1014.05 27.2676C1014.26 27.2676 1014.43 27.3018 1014.53 27.3154V28.4707C1014.43 28.4365 1014.18 28.4023 1013.89 28.4023C1012.97 28.4023 1012.37 29.0654 1012.37 30.0703V34.5H1011.18Z" fill="#A2A9B6"/>
<path d="M1090.68 34.5H1086.96V24.6357H1090.7C1092.38 24.6357 1093.53 25.6201 1093.53 27.0967C1093.53 28.1221 1092.77 29.0791 1091.82 29.25V29.3047C1093.16 29.4756 1094.03 30.4189 1094.03 31.7314C1094.03 33.4678 1092.78 34.5 1090.68 34.5ZM1088.19 25.7227V28.8877H1090.03C1091.49 28.8877 1092.28 28.3066 1092.28 27.2402C1092.28 26.2627 1091.61 25.7227 1090.42 25.7227H1088.19ZM1088.19 33.4131H1090.5C1091.98 33.4131 1092.76 32.8115 1092.76 31.6699C1092.76 30.5283 1091.95 29.9473 1090.38 29.9473H1088.19V33.4131ZM1095.3 34.5V27.3906H1096.49V34.5H1095.3ZM1095.89 26.1943C1095.49 26.1943 1095.15 25.8594 1095.15 25.4561C1095.15 25.0459 1095.49 24.7178 1095.89 24.7178C1096.3 24.7178 1096.64 25.0459 1096.64 25.4561C1096.64 25.8594 1096.3 26.1943 1095.89 26.1943ZM1098.15 34.5V24.6357H1099.34V34.5H1098.15ZM1101.01 34.5V24.6357H1102.2V34.5H1101.01ZM1106.66 28.2998C1105.54 28.2998 1104.76 29.1543 1104.69 30.3369H1108.55C1108.52 29.1475 1107.78 28.2998 1106.66 28.2998ZM1108.52 32.4629H1109.69C1109.49 33.707 1108.29 34.623 1106.73 34.623C1104.7 34.623 1103.46 33.208 1103.46 30.9727C1103.46 28.7646 1104.72 27.2676 1106.68 27.2676C1108.6 27.2676 1109.78 28.6621 1109.78 30.8154V31.2666H1104.68V31.335C1104.68 32.6953 1105.48 33.5908 1106.76 33.5908C1107.66 33.5908 1108.33 33.1328 1108.52 32.4629ZM1111.37 25.6748H1112.56V27.3906H1113.94V28.3682H1112.56V32.5928C1112.56 33.2422 1112.83 33.5361 1113.44 33.5361C1113.58 33.5361 1113.85 33.5156 1113.93 33.502V34.5C1113.79 34.5342 1113.46 34.5547 1113.18 34.5547C1111.87 34.5547 1111.37 34.0215 1111.37 32.6543V28.3682H1110.31V27.3906H1111.37V25.6748ZM1117.86 28.2998C1116.74 28.2998 1115.96 29.1543 1115.89 30.3369H1119.75C1119.72 29.1475 1118.98 28.2998 1117.86 28.2998ZM1119.72 32.4629H1120.89C1120.69 33.707 1119.48 34.623 1117.93 34.623C1115.89 34.623 1114.66 33.208 1114.66 30.9727C1114.66 28.7646 1115.91 27.2676 1117.88 27.2676C1119.8 27.2676 1120.98 28.6621 1120.98 30.8154V31.2666H1115.88V31.335C1115.88 32.6953 1116.68 33.5908 1117.96 33.5908C1118.86 33.5908 1119.52 33.1328 1119.72 32.4629ZM1122.18 34.5V27.3906H1123.3V28.5527H1123.33C1123.56 27.7666 1124.22 27.2676 1125.05 27.2676C1125.26 27.2676 1125.44 27.3018 1125.53 27.3154V28.4707C1125.44 28.4365 1125.18 28.4023 1124.9 28.4023C1123.97 28.4023 1123.37 29.0654 1123.37 30.0703V34.5H1122.18ZM1128.71 33.6113C1129.83 33.6113 1130.69 32.8252 1130.69 31.7998V31.2188L1128.79 31.335C1127.84 31.3965 1127.29 31.8203 1127.29 32.4902C1127.29 33.167 1127.86 33.6113 1128.71 33.6113ZM1128.44 34.623C1127.03 34.623 1126.08 33.7686 1126.08 32.4902C1126.08 31.2734 1127.02 30.5078 1128.66 30.4121L1130.69 30.2959V29.7012C1130.69 28.833 1130.12 28.3135 1129.13 28.3135C1128.22 28.3135 1127.64 28.7441 1127.49 29.4414H1126.35C1126.43 28.2109 1127.48 27.2676 1129.16 27.2676C1130.83 27.2676 1131.88 28.1699 1131.88 29.585V34.5H1130.75V33.2764H1130.73C1130.3 34.0898 1129.4 34.623 1128.44 34.623Z" fill="#4281FF"/>
<path d="M1154.12 24.4717C1156.92 24.4717 1158.67 26.4404 1158.67 29.5713C1158.67 32.7021 1156.92 34.6641 1154.12 34.6641C1151.32 34.6641 1149.57 32.7021 1149.57 29.5713C1149.57 26.4404 1151.32 24.4717 1154.12 24.4717ZM1154.12 25.6064C1152.1 25.6064 1150.84 27.1377 1150.84 29.5713C1150.84 31.998 1152.1 33.5293 1154.12 33.5293C1156.14 33.5293 1157.4 31.998 1157.4 29.5713C1157.4 27.1377 1156.14 25.6064 1154.12 25.6064ZM1154.74 23.8359H1153.68L1155.19 21.8604H1156.51L1154.74 23.8359ZM1160.01 34.5V27.3906H1161.13V28.5527H1161.16C1161.39 27.7666 1162.05 27.2676 1162.88 27.2676C1163.09 27.2676 1163.27 27.3018 1163.36 27.3154V28.4707C1163.27 28.4365 1163.01 28.4023 1162.73 28.4023C1161.8 28.4023 1161.2 29.0654 1161.2 30.0703V34.5H1160.01ZM1166.68 34.623C1164.87 34.623 1163.64 33.1738 1163.64 30.9453C1163.64 28.7168 1164.87 27.2676 1166.66 27.2676C1167.68 27.2676 1168.5 27.7666 1168.92 28.5459H1168.95V24.6357H1170.14V34.5H1169V33.2969H1168.98C1168.52 34.1172 1167.71 34.623 1166.68 34.623ZM1166.91 28.3135C1165.65 28.3135 1164.86 29.3389 1164.86 30.9453C1164.86 32.5586 1165.65 33.5771 1166.91 33.5771C1168.13 33.5771 1168.95 32.5381 1168.95 30.9453C1168.95 29.3594 1168.13 28.3135 1166.91 28.3135ZM1174.59 28.2998C1173.48 28.2998 1172.7 29.1543 1172.62 30.3369H1176.49C1176.46 29.1475 1175.71 28.2998 1174.59 28.2998ZM1176.46 32.4629H1177.63C1177.42 33.707 1176.22 34.623 1174.67 34.623C1172.63 34.623 1171.39 33.208 1171.39 30.9727C1171.39 28.7646 1172.65 27.2676 1174.61 27.2676C1176.54 27.2676 1177.72 28.6621 1177.72 30.8154V31.2666H1172.62V31.335C1172.62 32.6953 1173.42 33.5908 1174.7 33.5908C1175.6 33.5908 1176.26 33.1328 1176.46 32.4629ZM1178.92 34.5V27.3906H1180.04V28.5254H1180.07C1180.47 27.7598 1181.22 27.2676 1182.33 27.2676C1183.88 27.2676 1184.79 28.2725 1184.79 29.8857V34.5H1183.6V30.0977C1183.6 28.9492 1183.06 28.3203 1181.96 28.3203C1180.84 28.3203 1180.11 29.1133 1180.11 30.3164V34.5H1178.92ZM1189.15 28.2998C1188.04 28.2998 1187.26 29.1543 1187.19 30.3369H1191.05C1191.02 29.1475 1190.28 28.2998 1189.15 28.2998ZM1191.02 32.4629H1192.19C1191.98 33.707 1190.78 34.623 1189.23 34.623C1187.19 34.623 1185.96 33.208 1185.96 30.9727C1185.96 28.7646 1187.21 27.2676 1189.17 27.2676C1191.1 27.2676 1192.28 28.6621 1192.28 30.8154V31.2666H1187.18V31.335C1187.18 32.6953 1187.98 33.5908 1189.26 33.5908C1190.16 33.5908 1190.82 33.1328 1191.02 32.4629ZM1193.36 29.3525C1193.36 28.1357 1194.45 27.2676 1196.01 27.2676C1197.48 27.2676 1198.56 28.1426 1198.62 29.3457H1197.48C1197.4 28.6621 1196.84 28.2383 1195.97 28.2383C1195.1 28.2383 1194.53 28.6689 1194.53 29.291C1194.53 29.7832 1194.9 30.1113 1195.71 30.3164L1196.81 30.583C1198.25 30.9453 1198.77 31.4648 1198.77 32.5107C1198.77 33.748 1197.6 34.623 1195.94 34.623C1194.38 34.623 1193.29 33.7754 1193.17 32.5176H1194.36C1194.49 33.2559 1195.05 33.6523 1196.01 33.6523C1196.97 33.6523 1197.57 33.2422 1197.57 32.5996C1197.57 32.0938 1197.28 31.8203 1196.48 31.6084L1195.22 31.2871C1193.97 30.9658 1193.36 30.3232 1193.36 29.3525Z" fill="black"/>
<path fill-rule="evenodd" clip-rule="evenodd" d="M1228 26C1229.1 26 1230 25.1046 1230 24C1230 22.8954 1229.1 22 1228 22C1226.9 22 1226 22.8954 1226 24C1226 25.1046 1226.9 26 1228 26ZM1228 28C1230.21 28 1232 26.2091 1232 24C1232 21.7909 1230.21 20 1228 20C1225.79 20 1224 21.7909 1224 24C1224 26.2091 1225.79 28 1228 28ZM1224 32C1222.34 32 1221 33.3431 1221 35V37H1235V35C1235 33.3431 1233.66 32 1232 32H1224ZM1219 35C1219 32.2386 1221.24 30 1224 30H1232C1234.76 30 1237 32.2386 1237 35V37C1237 38.1046 1236.1 39 1235 39H1221C1219.9 39 1219 38.1046 1219 37V35Z" fill="black"/>
<line x1="1256.5" y1="18" x2="1256.5" y2="42" stroke="#F6F7F8"/>
<path fill-rule="evenodd" clip-rule="evenodd" d="M1274 24.5437C1274 23.0374 1275.22 21.8164 1276.73 21.8164H1291.27C1292.78 21.8164 1294 23.0374 1294 24.5437V33.6346C1294 35.1408 1292.78 36.3618 1291.27 36.3618H1284.65L1278.93 39.0088C1278.65 39.1389 1278.32 39.1165 1278.06 38.9495C1277.79 38.7825 1277.64 38.4937 1277.64 38.1835V36.3618H1276.73C1275.22 36.3618 1274 35.1408 1274 33.6346V24.5437ZM1276.73 23.6346C1276.23 23.6346 1275.82 24.0416 1275.82 24.5437V33.6346C1275.82 34.1367 1276.23 34.5437 1276.73 34.5437H1279.45V36.762L1284.25 34.5437H1291.27C1291.77 34.5437 1292.18 34.1367 1292.18 33.6346V24.5437C1292.18 24.0416 1291.77 23.6346 1291.27 23.6346H1276.73Z" fill="black"/>
<path d="M1279.38 30.3091C1280.1 30.3091 1280.67 29.7307 1280.67 29.0172C1280.67 28.3037 1280.1 27.7253 1279.38 27.7253C1278.67 27.7253 1278.09 28.3037 1278.09 29.0172C1278.09 29.7307 1278.67 30.3091 1279.38 30.3091Z" fill="#87909F"/>
<path d="M1283.69 30.3091C1284.4 30.3091 1284.98 29.7307 1284.98 29.0172C1284.98 28.3037 1284.4 27.7253 1283.69 27.7253C1282.98 27.7253 1282.4 28.3037 1282.4 29.0172C1282.4 29.7307 1282.98 30.3091 1283.69 30.3091Z" fill="#87909F"/>
<path d="M1287.99 30.3091C1288.71 30.3091 1289.29 29.7307 1289.29 29.0172C1289.29 28.3037 1288.71 27.7253 1287.99 27.7253C1287.28 27.7253 1286.7 28.3037 1286.7 29.0172C1286.7 29.7307 1287.28 30.3091 1287.99 30.3091Z" fill="#87909F"/>
<path fill-rule="evenodd" clip-rule="evenodd" d="M1325 20V32.865L1330.13 28.5916L1331.41 30.128L1324 36.3017L1316.59 30.128L1317.87 28.5916L1323 32.865V20H1325ZM1315 38H1333V40H1315V38Z" fill="black"/>
<path d="M1364 40C1358.48 40 1354 35.523 1354 30C1354 24.477 1358.48 20 1364 20C1369.52 20 1374 24.477 1374 30C1374 35.523 1369.52 40 1364 40ZM1361.71 37.667C1360.72 35.5743 1360.15 33.3102 1360.03 31H1356.06C1356.26 32.5389 1356.89 33.9882 1357.9 35.1717C1358.9 36.3552 1360.22 37.2221 1361.71 37.667ZM1362.03 31C1362.18 33.439 1362.88 35.73 1364 37.752C1365.15 35.6766 1365.83 33.3695 1365.97 31H1362.03ZM1371.94 31H1367.97C1367.85 33.3102 1367.28 35.5743 1366.29 37.667C1367.78 37.2221 1369.1 36.3552 1370.1 35.1717C1371.11 33.9882 1371.74 32.5389 1371.94 31ZM1356.06 29H1360.03C1360.15 26.6898 1360.72 24.4257 1361.71 22.333C1360.22 22.7779 1358.9 23.6448 1357.9 24.8283C1356.89 26.0118 1356.26 27.4611 1356.06 29ZM1362.03 29H1365.97C1365.82 26.6306 1365.15 24.3235 1364 22.248C1362.85 24.3235 1362.17 26.6305 1362.03 29H1362.03ZM1366.29 22.333C1367.28 24.4257 1367.85 26.6898 1367.97 29H1371.94C1371.74 27.4611 1371.11 26.0118 1370.1 24.8283C1369.1 23.6448 1367.78 22.7779 1366.29 22.333Z" fill="black"/>
<path d="M1404 36C1402.41 36 1400.88 35.3679 1399.76 34.2426C1398.63 33.1174 1398 31.5913 1398 30C1398 28.4087 1398.63 26.8826 1399.76 25.7574C1400.88 24.6321 1402.41 24 1404 24C1405.59 24 1407.12 24.6321 1408.24 25.7574C1409.37 26.8826 1410 28.4087 1410 30C1410 31.5913 1409.37 33.1174 1408.24 34.2426C1407.12 35.3679 1405.59 36 1404 36ZM1404 34C1405.06 34 1406.08 33.5786 1406.83 32.8284C1407.58 32.0783 1408 31.0609 1408 30C1408 28.9391 1407.58 27.9217 1406.83 27.1716C1406.08 26.4214 1405.06 26 1404 26C1402.94 26 1401.92 26.4214 1401.17 27.1716C1400.42 27.9217 1400 28.9391 1400 30C1400 31.0609 1400.42 32.0783 1401.17 32.8284C1401.92 33.5786 1402.94 34 1404 34ZM1403 19H1405V22H1403V19ZM1403 38H1405V41H1403V38ZM1395.51 22.929L1396.93 21.515L1399.05 23.636L1397.64 25.05L1395.51 22.93V22.929ZM1408.95 36.364L1410.36 34.95L1412.49 37.071L1411.07 38.485L1408.95 36.364ZM1411.07 21.514L1412.49 22.929L1410.36 25.05L1408.95 23.636L1411.07 21.515V21.514ZM1397.64 34.95L1399.05 36.364L1396.93 38.485L1395.51 37.071L1397.64 34.95ZM1415 29V31H1412V29H1415ZM1396 29V31H1393V29H1396Z" fill="black"/>
<line y1="59" x2="1440" y2="59" stroke="#F2F4F6" stroke-width="2"/>
<defs>
<linearGradient id="paint0_linear_65_6841" x1="24.6261" y1="24.5139" x2="41.1756" y2="30.65" gradientUnits="userSpaceOnUse">
<stop stop-color="#003087" stop-opacity="0"/>
<stop offset="1" stop-color="#003087"/>
</linearGradient>
<clipPath id="clip0_65_6841">
<rect width="131" height="20" fill="white" transform="translate(16 14)"/>
</clipPath>
</defs>
</svg>
