<svg width="24" height="24" viewBox="0 0 24 24" fill="none" xmlns="http://www.w3.org/2000/svg">
<path fill-rule="evenodd" clip-rule="evenodd" d="M12 8C13.1046 8 14 7.10457 14 6C14 4.89543 13.1046 4 12 4C10.8954 4 10 4.89543 10 6C10 7.10457 10.8954 8 12 8ZM12 10C14.2091 10 16 8.20914 16 6C16 3.79086 14.2091 2 12 2C9.79086 2 8 3.79086 8 6C8 8.20914 9.79086 10 12 10ZM8 14C6.34315 14 5 15.3431 5 17V19H19V17C19 15.3431 17.6569 14 16 14H8ZM3 17C3 14.2386 5.23858 12 8 12H16C18.7614 12 21 14.2386 21 17V19C21 20.1046 20.1046 21 19 21H5C3.89543 21 3 20.1046 3 19V17Z" fill="#87909F"/>
</svg>
