<svg width="24" height="24" viewBox="0 0 24 24" fill="none" xmlns="http://www.w3.org/2000/svg">
<path fill-rule="evenodd" clip-rule="evenodd" d="M18 14C18 13.3096 17.4404 12.75 16.75 12.75C16.0596 12.75 15.5 13.3096 15.5 14C15.5 14.6904 16.0596 15.25 16.75 15.25C17.4404 15.25 18 14.6904 18 14Z" fill="#87909F"/>
<path fill-rule="evenodd" clip-rule="evenodd" d="M5 6C5 5.44772 5.44772 5 6 5H16C16.5523 5 17 4.55228 17 4C17 3.44772 16.5523 3 16 3H6C4.34315 3 3 4.34315 3 6V18C3 19.6569 4.34315 21 6 21H18C19.6569 21 21 19.6569 21 18V10C21 8.34315 19.6569 7 18 7H6C5.64936 7 5.31278 7.06015 5 7.17071V6ZM5 10C5 9.44772 5.44772 9 6 9H18C18.5523 9 19 9.44772 19 10V18C19 18.5523 18.5523 19 18 19H6C5.44772 19 5 18.5523 5 18V10Z" fill="#87909F"/>
</svg>
