<svg width="226" height="891" viewBox="0 0 226 891" fill="none" xmlns="http://www.w3.org/2000/svg">
<rect width="226" height="891" fill="white"/>
<rect width="226" height="75" transform="translate(0 12)" fill="white"/>
<path fill-rule="evenodd" clip-rule="evenodd" d="M34 51.5C34 50.8096 33.4404 50.25 32.75 50.25C32.0596 50.25 31.5 50.8096 31.5 51.5C31.5 52.1904 32.0596 52.75 32.75 52.75C33.4404 52.75 34 52.1904 34 51.5Z" fill="#87909F"/>
<path fill-rule="evenodd" clip-rule="evenodd" d="M21 43.5C21 42.9477 21.4477 42.5 22 42.5H32C32.5523 42.5 33 42.0523 33 41.5C33 40.9477 32.5523 40.5 32 40.5H22C20.3432 40.5 19 41.8432 19 43.5V55.5C19 57.1569 20.3432 58.5 22 58.5H34C35.6569 58.5 37 57.1569 37 55.5V47.5C37 45.8432 35.6569 44.5 34 44.5H22C21.6494 44.5 21.3128 44.5602 21 44.6707V43.5ZM21 47.5C21 46.9477 21.4477 46.5 22 46.5H34C34.5523 46.5 35 46.9477 35 47.5V55.5C35 56.0523 34.5523 56.5 34 56.5H22C21.4477 56.5 21 56.0523 21 55.5V47.5Z" fill="#87909F"/>
<path d="M50.4404 45.4209V48.9688H52.5869C53.7695 48.9688 54.4463 48.3193 54.4463 47.1914C54.4463 46.0908 53.7285 45.4209 52.5459 45.4209H50.4404ZM50.4404 50.2061V54H48.9092V44.1357H52.7305C54.7607 44.1357 56.0254 45.3115 56.0254 47.1504C56.0254 48.4834 55.3145 49.5635 54.1113 49.9668L56.3193 54H54.5557L52.5459 50.2061H50.4404ZM60.3115 47.8682C59.2793 47.8682 58.5547 48.6543 58.4795 49.7412H62.0752C62.041 48.6406 61.3438 47.8682 60.3115 47.8682ZM62.0684 51.8877H63.4697C63.2646 53.2002 62.0205 54.1367 60.373 54.1367C58.2607 54.1367 56.9824 52.708 56.9824 50.4385C56.9824 48.1826 58.2812 46.6787 60.3115 46.6787C62.3076 46.6787 63.5518 48.0869 63.5518 50.2676V50.7734H58.4727V50.8623C58.4727 52.1133 59.2246 52.9404 60.4072 52.9404C61.248 52.9404 61.8701 52.5166 62.0684 51.8877ZM64.5703 48.8457C64.5703 47.5605 65.7051 46.6787 67.3867 46.6787C68.9863 46.6787 70.1074 47.5742 70.1553 48.8525H68.7676C68.6992 48.2031 68.1729 47.7998 67.3457 47.7998C66.5459 47.7998 66.0127 48.1895 66.0127 48.7568C66.0127 49.2012 66.3682 49.502 67.1133 49.6865L68.3232 49.9668C69.7725 50.3154 70.3193 50.8623 70.3193 51.9219C70.3193 53.2344 69.0957 54.1367 67.332 54.1367C65.6299 54.1367 64.502 53.2549 64.3857 51.9355H65.8486C65.9648 52.626 66.498 53.0088 67.4004 53.0088C68.2891 53.0088 68.8359 52.6396 68.8359 52.0586C68.8359 51.6006 68.5625 51.3477 67.8105 51.1562L66.5254 50.8418C65.2266 50.5273 64.5703 49.8506 64.5703 48.8457ZM77.6338 46.8086V54H76.2188V52.7832H76.1846C75.7881 53.6445 75.0566 54.1299 73.9561 54.1299C72.3906 54.1299 71.4336 53.1113 71.4336 51.4639V46.8086H72.9102V51.1768C72.9102 52.2705 73.4297 52.8584 74.4482 52.8584C75.5146 52.8584 76.1572 52.1201 76.1572 50.999V46.8086H77.6338ZM79.0967 54V46.8086H80.5049V48.0186H80.5391C80.8604 47.2188 81.6123 46.6855 82.583 46.6855C83.5811 46.6855 84.3057 47.1982 84.5928 48.0938H84.627C84.9961 47.2188 85.8438 46.6855 86.8691 46.6855C88.291 46.6855 89.2207 47.6289 89.2207 49.0576V54H87.7373V49.4131C87.7373 48.4834 87.2383 47.9502 86.3633 47.9502C85.4883 47.9502 84.8799 48.5996 84.8799 49.5088V54H83.4307V49.3037C83.4307 48.4766 82.9043 47.9502 82.0703 47.9502C81.1953 47.9502 80.5732 48.6338 80.5732 49.5566V54H79.0967ZM93.6572 47.8682C92.625 47.8682 91.9004 48.6543 91.8252 49.7412H95.4209C95.3867 48.6406 94.6895 47.8682 93.6572 47.8682ZM95.4141 51.8877H96.8154C96.6104 53.2002 95.3662 54.1367 93.7188 54.1367C91.6064 54.1367 90.3281 52.708 90.3281 50.4385C90.3281 48.1826 91.627 46.6787 93.6572 46.6787C95.6533 46.6787 96.8975 48.0869 96.8975 50.2676V50.7734H91.8184V50.8623C91.8184 52.1133 92.5703 52.9404 93.7529 52.9404C94.5938 52.9404 95.2158 52.5166 95.4141 51.8877ZM98.0459 54V46.8086H99.4541V48.0117H99.4883C99.8779 47.1914 100.644 46.6855 101.751 46.6855C103.337 46.6855 104.246 47.6973 104.246 49.3447V54H102.763V49.6318C102.763 48.5518 102.257 47.957 101.231 47.957C100.192 47.957 99.5225 48.6953 99.5225 49.8096V54H98.0459Z" fill="#0D0E0F"/>
<rect width="226" height="75" transform="translate(0 87)" fill="white"/>
<path fill-rule="evenodd" clip-rule="evenodd" d="M31.8889 123.439L29.0605 120.611C28.4747 120.025 27.5249 120.025 26.9391 120.611L24.1107 123.439C23.5249 124.025 23.5249 124.975 24.1107 125.561L26.9391 128.389C27.5249 128.975 28.4747 128.975 29.0605 128.389L31.8889 125.561C32.4747 124.975 32.4747 124.025 31.8889 123.439ZM25.8785 124.5L27.9998 122.379L30.1211 124.5L27.9998 126.621L25.8785 124.5Z" fill="#87909F"/>
<path fill-rule="evenodd" clip-rule="evenodd" d="M38 124.5C38 130.023 33.5228 134.5 28 134.5C22.4771 134.5 18 130.023 18 124.5C18 118.977 22.4771 114.5 28 114.5C33.5228 114.5 38 118.977 38 124.5ZM36 124.5C36 128.918 32.4183 132.5 28 132.5C23.5817 132.5 20 128.918 20 124.5C20 120.082 23.5817 116.5 28 116.5C32.4183 116.5 36 120.082 36 124.5Z" fill="#87909F"/>
<path d="M48.4717 115.252H49.9824C50.0918 116.229 51.042 116.872 52.3408 116.872C53.585 116.872 54.4805 116.229 54.4805 115.348C54.4805 114.582 53.9404 114.124 52.6621 113.81L51.3838 113.502C49.5723 113.064 48.7314 112.217 48.7314 110.843C48.7314 109.141 50.2148 107.972 52.3203 107.972C54.4053 107.972 55.834 109.141 55.8818 110.843H54.3916C54.3027 109.858 53.4893 109.264 52.2998 109.264C51.1104 109.264 50.2969 109.865 50.2969 110.74C50.2969 111.438 50.8164 111.848 52.0879 112.162L53.1748 112.429C55.1982 112.907 56.0391 113.721 56.0391 115.163C56.0391 117.009 54.5693 118.164 52.2314 118.164C50.0439 118.164 48.5674 117.036 48.4717 115.252ZM60.9814 110.692C62.8066 110.692 64.0098 112.128 64.0098 114.404C64.0098 116.681 62.8135 118.123 61.0088 118.123C59.9766 118.123 59.1562 117.617 58.7461 116.817H58.7119V120.379H57.2354V110.809H58.6641V112.046H58.6914C59.1152 111.219 59.9424 110.692 60.9814 110.692ZM60.5918 116.872C61.7607 116.872 62.4922 115.915 62.4922 114.404C62.4922 112.9 61.7607 111.937 60.5918 111.937C59.4639 111.937 58.7051 112.921 58.7051 114.404C58.7051 115.901 59.457 116.872 60.5918 116.872ZM68.2412 118.137C66.1836 118.137 64.8301 116.722 64.8301 114.404C64.8301 112.094 66.1904 110.679 68.2412 110.679C70.292 110.679 71.6523 112.094 71.6523 114.404C71.6523 116.722 70.2988 118.137 68.2412 118.137ZM68.2412 116.92C69.4033 116.92 70.1484 116.004 70.1484 114.404C70.1484 112.812 69.3965 111.896 68.2412 111.896C67.0859 111.896 66.334 112.812 66.334 114.404C66.334 116.004 67.0859 116.92 68.2412 116.92ZM73.2246 109.106H74.708V110.809H76.0752V111.978H74.708V115.942C74.708 116.564 74.9814 116.845 75.583 116.845C75.7334 116.845 75.9727 116.831 76.0684 116.811V117.979C75.9043 118.021 75.5762 118.048 75.248 118.048C73.792 118.048 73.2246 117.494 73.2246 116.106V111.978H72.1787V110.809H73.2246V109.106Z" fill="#0D0E0F"/>
<path d="M57.334 141H56.1328V134.777H56.0918L53.543 140.936H52.5703L50.0156 134.777H49.9746V141H48.7793V132.545H50.2969L53.0332 139.219H53.0801L55.8105 132.545H57.334V141ZM60.7324 140.104C61.6172 140.104 62.3086 139.494 62.3086 138.691V138.205L60.791 138.299C60.0352 138.352 59.6074 138.686 59.6074 139.213C59.6074 139.752 60.0527 140.104 60.7324 140.104ZM60.3809 141.105C59.1738 141.105 58.3301 140.355 58.3301 139.248C58.3301 138.17 59.1562 137.508 60.6211 137.426L62.3086 137.326V136.852C62.3086 136.166 61.8457 135.756 61.0723 135.756C60.3398 135.756 59.8828 136.107 59.7715 136.658H58.5762C58.6465 135.545 59.5957 134.725 61.1191 134.725C62.6133 134.725 63.5684 135.516 63.5684 136.752V141H62.3555V139.986H62.3262C61.9688 140.672 61.1895 141.105 60.3809 141.105ZM66.123 137.479L68.6133 134.836H70.1016L67.5469 137.49L70.2012 141H68.7305L66.6387 138.264L66.1113 138.785V141H64.8457V132.545H66.1113V137.479H66.123ZM73.1426 135.744C72.2578 135.744 71.6367 136.418 71.5723 137.35H74.6543C74.625 136.406 74.0273 135.744 73.1426 135.744ZM74.6484 139.189H75.8496C75.6738 140.314 74.6074 141.117 73.1953 141.117C71.3848 141.117 70.2891 139.893 70.2891 137.947C70.2891 136.014 71.4023 134.725 73.1426 134.725C74.8535 134.725 75.9199 135.932 75.9199 137.801V138.234H71.5664V138.311C71.5664 139.383 72.2109 140.092 73.2246 140.092C73.9453 140.092 74.4785 139.729 74.6484 139.189ZM76.9043 141V134.836H78.1113V135.885H78.1406C78.3457 135.164 78.8965 134.736 79.623 134.736C79.8047 134.736 79.9629 134.766 80.0566 134.783V135.961C79.957 135.92 79.7344 135.891 79.4883 135.891C78.6738 135.891 78.1699 136.436 78.1699 137.309V141H76.9043ZM86.3906 141.158C84.3633 141.158 83.1621 139.459 83.1621 136.764C83.1621 134.086 84.375 132.387 86.3906 132.387C88.4121 132.387 89.6074 134.08 89.6074 136.758C89.6074 139.453 88.418 141.158 86.3906 141.158ZM86.3906 140.057C87.5977 140.057 88.2832 138.809 88.2832 136.764C88.2832 134.748 87.5859 133.488 86.3906 133.488C85.1953 133.488 84.4922 134.754 84.4922 136.764C84.4922 138.803 85.1836 140.057 86.3906 140.057ZM94.0723 134.555C94.0723 135.855 93.3516 136.688 92.2441 136.688C91.1309 136.688 90.4102 135.855 90.4102 134.555C90.4102 133.254 91.1309 132.422 92.2441 132.422C93.3516 132.422 94.0723 133.254 94.0723 134.555ZM92.2441 135.861C92.707 135.861 93 135.363 93 134.549C93 133.74 92.707 133.242 92.2441 133.242C91.7754 133.242 91.4824 133.74 91.4824 134.549C91.4824 135.363 91.7754 135.861 92.2441 135.861ZM92.1914 141H91.0312L94.3008 136.529L97.2129 132.545H98.3672L95.1855 136.904L92.1914 141ZM98.9883 138.967C98.9883 140.268 98.2734 141.1 97.1602 141.1C96.0469 141.1 95.332 140.268 95.332 138.967C95.332 137.66 96.0469 136.828 97.1602 136.828C98.2734 136.828 98.9883 137.66 98.9883 138.967ZM97.1602 140.268C97.6289 140.268 97.916 139.775 97.916 138.961C97.916 138.146 97.6289 137.654 97.1602 137.654C96.6914 137.654 96.4043 138.146 96.4043 138.961C96.4043 139.775 96.6914 140.268 97.1602 140.268ZM100.395 142.805H99.2695L102.27 132.545H103.395L100.395 142.805ZM110.021 141H108.709V133.676H106.119V132.545H112.605V133.676H110.021V141ZM114.146 140.104C115.031 140.104 115.723 139.494 115.723 138.691V138.205L114.205 138.299C113.449 138.352 113.021 138.686 113.021 139.213C113.021 139.752 113.467 140.104 114.146 140.104ZM113.795 141.105C112.588 141.105 111.744 140.355 111.744 139.248C111.744 138.17 112.57 137.508 114.035 137.426L115.723 137.326V136.852C115.723 136.166 115.26 135.756 114.486 135.756C113.754 135.756 113.297 136.107 113.186 136.658H111.99C112.061 135.545 113.01 134.725 114.533 134.725C116.027 134.725 116.982 135.516 116.982 136.752V141H115.77V139.986H115.74C115.383 140.672 114.604 141.105 113.795 141.105ZM119.537 137.479L122.027 134.836H123.516L120.961 137.49L123.615 141H122.145L120.053 138.264L119.525 138.785V141H118.26V132.545H119.525V137.479H119.537ZM126.557 135.744C125.672 135.744 125.051 136.418 124.986 137.35H128.068C128.039 136.406 127.441 135.744 126.557 135.744ZM128.062 139.189H129.264C129.088 140.314 128.021 141.117 126.609 141.117C124.799 141.117 123.703 139.893 123.703 137.947C123.703 136.014 124.816 134.725 126.557 134.725C128.268 134.725 129.334 135.932 129.334 137.801V138.234H124.98V138.311C124.98 139.383 125.625 140.092 126.639 140.092C127.359 140.092 127.893 139.729 128.062 139.189ZM130.318 141V134.836H131.525V135.885H131.555C131.76 135.164 132.311 134.736 133.037 134.736C133.219 134.736 133.377 134.766 133.471 134.783V135.961C133.371 135.92 133.148 135.891 132.902 135.891C132.088 135.891 131.584 136.436 131.584 137.309V141H130.318ZM139.805 141.158C137.777 141.158 136.576 139.459 136.576 136.764C136.576 134.086 137.789 132.387 139.805 132.387C141.826 132.387 143.021 134.08 143.021 136.758C143.021 139.453 141.832 141.158 139.805 141.158ZM139.805 140.057C141.012 140.057 141.697 138.809 141.697 136.764C141.697 134.748 141 133.488 139.805 133.488C138.609 133.488 137.906 134.754 137.906 136.764C137.906 138.803 138.598 140.057 139.805 140.057ZM144.861 141.064C144.434 141.064 144.094 140.725 144.094 140.297C144.094 139.869 144.434 139.529 144.861 139.529C145.289 139.529 145.629 139.869 145.629 140.297C145.629 140.725 145.289 141.064 144.861 141.064ZM150.105 141.158C148.078 141.158 146.877 139.459 146.877 136.764C146.877 134.086 148.09 132.387 150.105 132.387C152.127 132.387 153.322 134.08 153.322 136.758C153.322 139.453 152.133 141.158 150.105 141.158ZM150.105 140.057C151.312 140.057 151.998 138.809 151.998 136.764C151.998 134.748 151.301 133.488 150.105 133.488C148.91 133.488 148.207 134.754 148.207 136.764C148.207 138.803 148.898 140.057 150.105 140.057ZM154.336 135.023C154.336 133.5 155.561 132.387 157.242 132.387C158.854 132.387 160.055 133.412 160.055 134.754C160.055 135.738 159.527 136.471 158.291 137.736L156.176 139.863V139.893H160.189V141H154.406V140.109L157.459 136.998C158.49 135.926 158.76 135.48 158.76 134.818C158.76 134.068 158.08 133.471 157.201 133.471C156.275 133.471 155.578 134.139 155.578 135.018V135.035H154.336V135.023ZM164.643 134.555C164.643 135.855 163.922 136.688 162.814 136.688C161.701 136.688 160.98 135.855 160.98 134.555C160.98 133.254 161.701 132.422 162.814 132.422C163.922 132.422 164.643 133.254 164.643 134.555ZM162.814 135.861C163.277 135.861 163.57 135.363 163.57 134.549C163.57 133.74 163.277 133.242 162.814 133.242C162.346 133.242 162.053 133.74 162.053 134.549C162.053 135.363 162.346 135.861 162.814 135.861ZM162.762 141H161.602L164.871 136.529L167.783 132.545H168.938L165.756 136.904L162.762 141ZM169.559 138.967C169.559 140.268 168.844 141.1 167.73 141.1C166.617 141.1 165.902 140.268 165.902 138.967C165.902 137.66 166.617 136.828 167.73 136.828C168.844 136.828 169.559 137.66 169.559 138.967ZM167.73 140.268C168.199 140.268 168.486 139.775 168.486 138.961C168.486 138.146 168.199 137.654 167.73 137.654C167.262 137.654 166.975 138.146 166.975 138.961C166.975 139.775 167.262 140.268 167.73 140.268Z" fill="#9592A3"/>
<rect width="226" height="75" transform="translate(0 162)" fill="white"/>
<path fill-rule="evenodd" clip-rule="evenodd" d="M24 204.5C24 203.948 24.4477 203.5 25 203.5H31C31.5523 203.5 32 203.948 32 204.5C32 205.052 31.5523 205.5 31 205.5H25C24.4477 205.5 24 205.052 24 204.5Z" fill="#87909F"/>
<path fill-rule="evenodd" clip-rule="evenodd" d="M32 197.5C32 199.709 30.2091 201.5 28 201.5C25.7909 201.5 24 199.709 24 197.5C24 195.291 25.7909 193.5 28 193.5C30.2091 193.5 32 195.291 32 197.5ZM26 197.5L28.0001 199.5L30.0001 197.5L28.0001 195.5L26 197.5Z" fill="#87909F"/>
<path fill-rule="evenodd" clip-rule="evenodd" d="M36 194.5V207.5C36 208.605 35.1046 209.5 34 209.5H22C20.8954 209.5 20 208.605 20 207.5V191.5C20 190.395 20.8954 189.5 22 189.5H31L36 194.5ZM22 207.5H34V195.328L30.1716 191.5H22V207.5Z" fill="#87909F"/>
<path d="M50.4404 193H48.9092V183.136H55.0684V184.455H50.4404V187.579H54.6787V188.871H50.4404V193ZM62.3896 185.809V193H60.9746V191.783H60.9404C60.5439 192.645 59.8125 193.13 58.7119 193.13C57.1465 193.13 56.1895 192.111 56.1895 190.464V185.809H57.666V190.177C57.666 191.271 58.1855 191.858 59.2041 191.858C60.2705 191.858 60.9131 191.12 60.9131 189.999V185.809H62.3896ZM64.2832 184.106H65.7666V185.809H67.1338V186.978H65.7666V190.942C65.7666 191.564 66.04 191.845 66.6416 191.845C66.792 191.845 67.0312 191.831 67.127 191.811V192.979C66.9629 193.021 66.6348 193.048 66.3066 193.048C64.8506 193.048 64.2832 192.494 64.2832 191.106V186.978H63.2373V185.809H64.2832V184.106ZM74.5166 185.809V193H73.1016V191.783H73.0674C72.6709 192.645 71.9395 193.13 70.8389 193.13C69.2734 193.13 68.3164 192.111 68.3164 190.464V185.809H69.793V190.177C69.793 191.271 70.3125 191.858 71.3311 191.858C72.3975 191.858 73.04 191.12 73.04 189.999V185.809H74.5166ZM75.9795 193V185.809H77.3877V187.032H77.4219C77.6611 186.191 78.3037 185.692 79.1514 185.692C79.3633 185.692 79.5479 185.727 79.6572 185.747V187.121C79.541 187.073 79.2812 187.039 78.9941 187.039C78.0439 187.039 77.4561 187.675 77.4561 188.693V193H75.9795ZM83.3486 193.137C81.291 193.137 79.9375 191.722 79.9375 189.404C79.9375 187.094 81.2979 185.679 83.3486 185.679C85.3994 185.679 86.7598 187.094 86.7598 189.404C86.7598 191.722 85.4062 193.137 83.3486 193.137ZM83.3486 191.92C84.5107 191.92 85.2559 191.004 85.2559 189.404C85.2559 187.812 84.5039 186.896 83.3486 186.896C82.1934 186.896 81.4414 187.812 81.4414 189.404C81.4414 191.004 82.1934 191.92 83.3486 191.92ZM87.7715 187.846C87.7715 186.561 88.9062 185.679 90.5879 185.679C92.1875 185.679 93.3086 186.574 93.3564 187.853H91.9688C91.9004 187.203 91.374 186.8 90.5469 186.8C89.7471 186.8 89.2139 187.189 89.2139 187.757C89.2139 188.201 89.5693 188.502 90.3145 188.687L91.5244 188.967C92.9736 189.315 93.5205 189.862 93.5205 190.922C93.5205 192.234 92.2969 193.137 90.5332 193.137C88.8311 193.137 87.7031 192.255 87.5869 190.936H89.0498C89.166 191.626 89.6992 192.009 90.6016 192.009C91.4902 192.009 92.0371 191.64 92.0371 191.059C92.0371 190.601 91.7637 190.348 91.0117 190.156L89.7266 189.842C88.4277 189.527 87.7715 188.851 87.7715 187.846Z" fill="#0D0E0F"/>
<path d="M57.334 216H56.1328V209.777H56.0918L53.543 215.936H52.5703L50.0156 209.777H49.9746V216H48.7793V207.545H50.2969L53.0332 214.219H53.0801L55.8105 207.545H57.334V216ZM60.7324 215.104C61.6172 215.104 62.3086 214.494 62.3086 213.691V213.205L60.791 213.299C60.0352 213.352 59.6074 213.686 59.6074 214.213C59.6074 214.752 60.0527 215.104 60.7324 215.104ZM60.3809 216.105C59.1738 216.105 58.3301 215.355 58.3301 214.248C58.3301 213.17 59.1562 212.508 60.6211 212.426L62.3086 212.326V211.852C62.3086 211.166 61.8457 210.756 61.0723 210.756C60.3398 210.756 59.8828 211.107 59.7715 211.658H58.5762C58.6465 210.545 59.5957 209.725 61.1191 209.725C62.6133 209.725 63.5684 210.516 63.5684 211.752V216H62.3555V214.986H62.3262C61.9688 215.672 61.1895 216.105 60.3809 216.105ZM66.123 212.479L68.6133 209.836H70.1016L67.5469 212.49L70.2012 216H68.7305L66.6387 213.264L66.1113 213.785V216H64.8457V207.545H66.1113V212.479H66.123ZM73.1426 210.744C72.2578 210.744 71.6367 211.418 71.5723 212.35H74.6543C74.625 211.406 74.0273 210.744 73.1426 210.744ZM74.6484 214.189H75.8496C75.6738 215.314 74.6074 216.117 73.1953 216.117C71.3848 216.117 70.2891 214.893 70.2891 212.947C70.2891 211.014 71.4023 209.725 73.1426 209.725C74.8535 209.725 75.9199 210.932 75.9199 212.801V213.234H71.5664V213.311C71.5664 214.383 72.2109 215.092 73.2246 215.092C73.9453 215.092 74.4785 214.729 74.6484 214.189ZM76.9043 216V209.836H78.1113V210.885H78.1406C78.3457 210.164 78.8965 209.736 79.623 209.736C79.8047 209.736 79.9629 209.766 80.0566 209.783V210.961C79.957 210.92 79.7344 210.891 79.4883 210.891C78.6738 210.891 78.1699 211.436 78.1699 212.309V216H76.9043ZM86.3906 216.158C84.3633 216.158 83.1621 214.459 83.1621 211.764C83.1621 209.086 84.375 207.387 86.3906 207.387C88.4121 207.387 89.6074 209.08 89.6074 211.758C89.6074 214.453 88.418 216.158 86.3906 216.158ZM86.3906 215.057C87.5977 215.057 88.2832 213.809 88.2832 211.764C88.2832 209.748 87.5859 208.488 86.3906 208.488C85.1953 208.488 84.4922 209.754 84.4922 211.764C84.4922 213.803 85.1836 215.057 86.3906 215.057ZM94.0723 209.555C94.0723 210.855 93.3516 211.688 92.2441 211.688C91.1309 211.688 90.4102 210.855 90.4102 209.555C90.4102 208.254 91.1309 207.422 92.2441 207.422C93.3516 207.422 94.0723 208.254 94.0723 209.555ZM92.2441 210.861C92.707 210.861 93 210.363 93 209.549C93 208.74 92.707 208.242 92.2441 208.242C91.7754 208.242 91.4824 208.74 91.4824 209.549C91.4824 210.363 91.7754 210.861 92.2441 210.861ZM92.1914 216H91.0312L94.3008 211.529L97.2129 207.545H98.3672L95.1855 211.904L92.1914 216ZM98.9883 213.967C98.9883 215.268 98.2734 216.1 97.1602 216.1C96.0469 216.1 95.332 215.268 95.332 213.967C95.332 212.66 96.0469 211.828 97.1602 211.828C98.2734 211.828 98.9883 212.66 98.9883 213.967ZM97.1602 215.268C97.6289 215.268 97.916 214.775 97.916 213.961C97.916 213.146 97.6289 212.654 97.1602 212.654C96.6914 212.654 96.4043 213.146 96.4043 213.961C96.4043 214.775 96.6914 215.268 97.1602 215.268ZM100.395 217.805H99.2695L102.27 207.545H103.395L100.395 217.805ZM110.021 216H108.709V208.676H106.119V207.545H112.605V208.676H110.021V216ZM114.146 215.104C115.031 215.104 115.723 214.494 115.723 213.691V213.205L114.205 213.299C113.449 213.352 113.021 213.686 113.021 214.213C113.021 214.752 113.467 215.104 114.146 215.104ZM113.795 216.105C112.588 216.105 111.744 215.355 111.744 214.248C111.744 213.17 112.57 212.508 114.035 212.426L115.723 212.326V211.852C115.723 211.166 115.26 210.756 114.486 210.756C113.754 210.756 113.297 211.107 113.186 211.658H111.99C112.061 210.545 113.01 209.725 114.533 209.725C116.027 209.725 116.982 210.516 116.982 211.752V216H115.77V214.986H115.74C115.383 215.672 114.604 216.105 113.795 216.105ZM119.537 212.479L122.027 209.836H123.516L120.961 212.49L123.615 216H122.145L120.053 213.264L119.525 213.785V216H118.26V207.545H119.525V212.479H119.537ZM126.557 210.744C125.672 210.744 125.051 211.418 124.986 212.35H128.068C128.039 211.406 127.441 210.744 126.557 210.744ZM128.062 214.189H129.264C129.088 215.314 128.021 216.117 126.609 216.117C124.799 216.117 123.703 214.893 123.703 212.947C123.703 211.014 124.816 209.725 126.557 209.725C128.268 209.725 129.334 210.932 129.334 212.801V213.234H124.98V213.311C124.98 214.383 125.625 215.092 126.639 215.092C127.359 215.092 127.893 214.729 128.062 214.189ZM130.318 216V209.836H131.525V210.885H131.555C131.76 210.164 132.311 209.736 133.037 209.736C133.219 209.736 133.377 209.766 133.471 209.783V210.961C133.371 210.92 133.148 210.891 132.902 210.891C132.088 210.891 131.584 211.436 131.584 212.309V216H130.318ZM139.805 216.158C137.777 216.158 136.576 214.459 136.576 211.764C136.576 209.086 137.789 207.387 139.805 207.387C141.826 207.387 143.021 209.08 143.021 211.758C143.021 214.453 141.832 216.158 139.805 216.158ZM139.805 215.057C141.012 215.057 141.697 213.809 141.697 211.764C141.697 209.748 141 208.488 139.805 208.488C138.609 208.488 137.906 209.754 137.906 211.764C137.906 213.803 138.598 215.057 139.805 215.057ZM144.861 216.064C144.434 216.064 144.094 215.725 144.094 215.297C144.094 214.869 144.434 214.529 144.861 214.529C145.289 214.529 145.629 214.869 145.629 215.297C145.629 215.725 145.289 216.064 144.861 216.064ZM150.105 216.158C148.078 216.158 146.877 214.459 146.877 211.764C146.877 209.086 148.09 207.387 150.105 207.387C152.127 207.387 153.322 209.08 153.322 211.758C153.322 214.453 152.133 216.158 150.105 216.158ZM150.105 215.057C151.312 215.057 151.998 213.809 151.998 211.764C151.998 209.748 151.301 208.488 150.105 208.488C148.91 208.488 148.207 209.754 148.207 211.764C148.207 213.803 148.898 215.057 150.105 215.057ZM154.336 210.023C154.336 208.5 155.561 207.387 157.242 207.387C158.854 207.387 160.055 208.412 160.055 209.754C160.055 210.738 159.527 211.471 158.291 212.736L156.176 214.863V214.893H160.189V216H154.406V215.109L157.459 211.998C158.49 210.926 158.76 210.48 158.76 209.818C158.76 209.068 158.08 208.471 157.201 208.471C156.275 208.471 155.578 209.139 155.578 210.018V210.035H154.336V210.023ZM164.643 209.555C164.643 210.855 163.922 211.688 162.814 211.688C161.701 211.688 160.98 210.855 160.98 209.555C160.98 208.254 161.701 207.422 162.814 207.422C163.922 207.422 164.643 208.254 164.643 209.555ZM162.814 210.861C163.277 210.861 163.57 210.363 163.57 209.549C163.57 208.74 163.277 208.242 162.814 208.242C162.346 208.242 162.053 208.74 162.053 209.549C162.053 210.363 162.346 210.861 162.814 210.861ZM162.762 216H161.602L164.871 211.529L167.783 207.545H168.938L165.756 211.904L162.762 216ZM169.559 213.967C169.559 215.268 168.844 216.1 167.73 216.1C166.617 216.1 165.902 215.268 165.902 213.967C165.902 212.66 166.617 211.828 167.73 211.828C168.844 211.828 169.559 212.66 169.559 213.967ZM167.73 215.268C168.199 215.268 168.486 214.775 168.486 213.961C168.486 213.146 168.199 212.654 167.73 212.654C167.262 212.654 166.975 213.146 166.975 213.961C166.975 214.775 167.262 215.268 167.73 215.268Z" fill="#9592A3"/>
<rect width="226" height="75" transform="translate(0 237)" fill="#F2F4F6"/>
<path fill-rule="evenodd" clip-rule="evenodd" d="M28 284.5C33.5228 284.5 38 280.023 38 274.5C38 268.977 33.5228 264.5 28 264.5C22.4771 264.5 18 268.977 18 274.5C18 280.023 22.4771 284.5 28 284.5ZM28.7 269C28.8657 269 29 269.134 29 269.3V270.588C29.5752 270.694 30.0386 270.897 30.3901 271.198C30.9382 271.663 31.226 272.284 31.2534 273.061L29.5151 273.136C29.4407 272.701 29.2802 272.39 29.0336 272.202C28.7908 272.009 28.4248 271.913 27.9354 271.913C27.4304 271.913 27.035 272.015 26.7492 272.219C26.5652 272.35 26.4732 272.525 26.4732 272.744C26.4732 272.944 26.5593 273.115 26.7315 273.257C26.9508 273.438 27.4832 273.626 28.3289 273.822C29.1745 274.019 29.7989 274.222 30.2022 274.434C30.6093 274.641 30.9265 274.928 31.1535 275.293C31.3845 275.655 31.5 276.103 31.5 276.637C31.5 277.122 31.363 277.575 31.0889 277.998C30.8149 278.421 30.4273 278.737 29.9262 278.944C29.6539 279.055 29.3451 279.136 29 279.186V280.268C29 280.434 28.8657 280.569 28.7 280.569H27.3C27.1343 280.569 27 280.434 27 280.268V279.159C26.4088 279.047 25.9239 278.831 25.5453 278.512C24.962 278.016 24.6135 277.295 24.5 276.349L26.1913 276.187C26.2931 276.745 26.4986 277.154 26.8079 277.416C27.1211 277.677 27.5419 277.808 28.0705 277.808C28.6303 277.808 29.0512 277.693 29.3331 277.462C29.6188 277.227 29.7617 276.954 29.7617 276.643C29.7617 276.443 29.7011 276.274 29.5797 276.135C29.4622 275.993 29.2548 275.87 28.9572 275.766C28.7536 275.697 28.2897 275.574 27.5654 275.397C26.6337 275.17 25.9799 274.891 25.604 274.561C25.0755 274.095 24.8112 273.528 24.8112 272.859C24.8112 272.428 24.9346 272.027 25.1812 271.654C25.4318 271.277 25.79 270.99 26.2559 270.794C26.4817 270.7 26.7298 270.628 27 270.579V269.3C27 269.134 27.1343 269 27.3 269H28.7Z" fill="#357AFF"/>
<path d="M50.4404 279H48.9092V269.136H55.0684V270.455H50.4404V273.579H54.6787V274.871H50.4404V279ZM56.2715 279V271.809H57.748V279H56.2715ZM57.0098 270.756C56.5381 270.756 56.1553 270.38 56.1553 269.915C56.1553 269.443 56.5381 269.067 57.0098 269.067C57.4883 269.067 57.8711 269.443 57.8711 269.915C57.8711 270.38 57.4883 270.756 57.0098 270.756ZM61.7744 277.954C62.8066 277.954 63.6133 277.243 63.6133 276.307V275.739L61.8428 275.849C60.9609 275.91 60.4619 276.3 60.4619 276.915C60.4619 277.544 60.9814 277.954 61.7744 277.954ZM61.3643 279.123C59.9561 279.123 58.9717 278.248 58.9717 276.956C58.9717 275.698 59.9355 274.926 61.6445 274.83L63.6133 274.714V274.16C63.6133 273.36 63.0732 272.882 62.1709 272.882C61.3164 272.882 60.7832 273.292 60.6533 273.935H59.2588C59.3408 272.636 60.4482 271.679 62.2256 271.679C63.9688 271.679 65.083 272.602 65.083 274.044V279H63.668V277.817H63.6338C63.2168 278.617 62.3076 279.123 61.3643 279.123ZM66.9492 270.106H68.4326V271.809H69.7998V272.978H68.4326V276.942C68.4326 277.564 68.7061 277.845 69.3076 277.845C69.458 277.845 69.6973 277.831 69.793 277.811V278.979C69.6289 279.021 69.3008 279.048 68.9727 279.048C67.5166 279.048 66.9492 278.494 66.9492 277.106V272.978H65.9033V271.809H66.9492V270.106Z" fill="#4281FF"/>
<rect width="226" height="75" transform="translate(0 312)" fill="white"/>
<path fill-rule="evenodd" clip-rule="evenodd" d="M23 351.5C23 352.052 23.4477 352.5 24 352.5H31C31.5523 352.5 32 352.052 32 351.5C32 350.948 31.5523 350.5 31 350.5H30.5V348.5C30.5 347.948 30.0523 347.5 29.5 347.5C28.9477 347.5 28.5 347.948 28.5 348.5V350.5H27V347.5C27 346.948 26.5523 346.5 26 346.5C25.4477 346.5 25 346.948 25 347.5V350.5H24C23.4477 350.5 23 350.948 23 351.5Z" fill="#87909F"/>
<path fill-rule="evenodd" clip-rule="evenodd" d="M27.5 340.5C22.2533 340.5 18 344.753 18 350C18 355.247 22.2533 359.5 27.5 359.5C29.6754 359.5 31.68 358.769 33.2815 357.539C33.3043 357.567 33.329 357.595 33.3554 357.621L34.7696 359.035C35.1601 359.426 35.7933 359.426 36.1838 359.035C36.5743 358.645 36.5743 358.012 36.1838 357.621L34.7696 356.207C34.7556 356.193 34.7413 356.18 34.7267 356.167C36.1442 354.507 37 352.354 37 350C37 344.753 32.7467 340.5 27.5 340.5ZM20 350C20 345.858 23.3579 342.5 27.5 342.5C31.6421 342.5 35 345.858 35 350C35 354.142 31.6421 357.5 27.5 357.5C23.3579 357.5 20 354.142 20 350Z" fill="#87909F"/>
<path d="M53.0723 354.164C50.3037 354.164 48.5537 352.209 48.5537 349.064C48.5537 345.94 50.3174 343.972 53.0723 343.972C55.3076 343.972 56.9961 345.346 57.2559 347.403H55.7383C55.4648 346.139 54.4121 345.312 53.0723 345.312C51.2812 345.312 50.1191 346.781 50.1191 349.064C50.1191 351.368 51.2676 352.824 53.0791 352.824C54.4531 352.824 55.4307 352.12 55.7383 350.931H57.2627C56.8867 352.968 55.3418 354.164 53.0723 354.164ZM61.5557 354.137C59.498 354.137 58.1445 352.722 58.1445 350.404C58.1445 348.094 59.5049 346.679 61.5557 346.679C63.6064 346.679 64.9668 348.094 64.9668 350.404C64.9668 352.722 63.6133 354.137 61.5557 354.137ZM61.5557 352.92C62.7178 352.92 63.4629 352.004 63.4629 350.404C63.4629 348.812 62.7109 347.896 61.5557 347.896C60.4004 347.896 59.6484 348.812 59.6484 350.404C59.6484 352.004 60.4004 352.92 61.5557 352.92ZM69.8545 346.692C71.6797 346.692 72.8828 348.128 72.8828 350.404C72.8828 352.681 71.6865 354.123 69.8818 354.123C68.8496 354.123 68.0293 353.617 67.6191 352.817H67.585V356.379H66.1084V346.809H67.5371V348.046H67.5645C67.9883 347.219 68.8154 346.692 69.8545 346.692ZM69.4648 352.872C70.6338 352.872 71.3652 351.915 71.3652 350.404C71.3652 348.9 70.6338 347.937 69.4648 347.937C68.3369 347.937 67.5781 348.921 67.5781 350.404C67.5781 351.901 68.3301 352.872 69.4648 352.872ZM74.5439 356.68C74.4277 356.68 74.0518 356.666 73.9424 356.646V355.449C74.0518 355.477 74.2979 355.477 74.4209 355.477C75.1113 355.477 75.4736 355.189 75.6992 354.451C75.6992 354.438 75.8291 354.014 75.8291 354.007L73.2314 346.809H74.8311L76.6562 352.66H76.6768L78.502 346.809H80.0605L77.3604 354.376C76.7451 356.119 76.041 356.68 74.5439 356.68ZM87.9287 354H86.3975V345.455H83.376V344.136H90.9434V345.455H87.9287V354ZM90.6768 354V346.809H92.085V348.032H92.1191C92.3584 347.191 93.001 346.692 93.8486 346.692C94.0605 346.692 94.2451 346.727 94.3545 346.747V348.121C94.2383 348.073 93.9785 348.039 93.6914 348.039C92.7412 348.039 92.1533 348.675 92.1533 349.693V354H90.6768ZM97.6357 352.954C98.668 352.954 99.4746 352.243 99.4746 351.307V350.739L97.7041 350.849C96.8223 350.91 96.3232 351.3 96.3232 351.915C96.3232 352.544 96.8428 352.954 97.6357 352.954ZM97.2256 354.123C95.8174 354.123 94.833 353.248 94.833 351.956C94.833 350.698 95.7969 349.926 97.5059 349.83L99.4746 349.714V349.16C99.4746 348.36 98.9346 347.882 98.0322 347.882C97.1777 347.882 96.6445 348.292 96.5146 348.935H95.1201C95.2021 347.636 96.3096 346.679 98.0869 346.679C99.8301 346.679 100.944 347.602 100.944 349.044V354H99.5293V352.817H99.4951C99.0781 353.617 98.1689 354.123 97.2256 354.123ZM105.08 354.123C103.262 354.123 102.059 352.674 102.059 350.404C102.059 348.135 103.262 346.692 105.066 346.692C106.099 346.692 106.919 347.212 107.322 348.005H107.35V344.136H108.833V354H107.397V352.776H107.37C106.946 353.597 106.126 354.123 105.08 354.123ZM105.47 347.937C104.301 347.937 103.569 348.894 103.569 350.404C103.569 351.922 104.301 352.872 105.47 352.872C106.604 352.872 107.363 351.908 107.363 350.404C107.363 348.914 106.604 347.937 105.47 347.937ZM113.358 347.868C112.326 347.868 111.602 348.654 111.526 349.741H115.122C115.088 348.641 114.391 347.868 113.358 347.868ZM115.115 351.888H116.517C116.312 353.2 115.067 354.137 113.42 354.137C111.308 354.137 110.029 352.708 110.029 350.438C110.029 348.183 111.328 346.679 113.358 346.679C115.354 346.679 116.599 348.087 116.599 350.268V350.773H111.52V350.862C111.52 352.113 112.271 352.94 113.454 352.94C114.295 352.94 114.917 352.517 115.115 351.888Z" fill="#0D0E0F"/>
<rect width="226" height="75" transform="translate(0 387)" fill="white"/>
<path d="M24 421.501C24 420.949 24.4477 420.501 25 420.501H31C31.5523 420.501 32.0001 420.949 32.0001 421.501C32.0001 422.054 31.5523 422.501 31 422.501H25C24.4477 422.501 24 422.054 24 421.501Z" fill="#87909F"/>
<path d="M25 424.501C24.4477 424.501 24 424.949 24 425.501C24 426.054 24.4477 426.502 25 426.502H29.0001C29.5523 426.502 30 426.054 30 425.501C30 424.949 29.5523 424.501 29.0001 424.501H25Z" fill="#87909F"/>
<path fill-rule="evenodd" clip-rule="evenodd" d="M36 419.518V432.502C36 433.606 35.1046 434.501 34 434.501H22C20.8954 434.501 20 433.606 20 432.502V416.501C20 415.397 20.8954 414.501 22 414.501H31L36 419.518ZM22 432.502V416.501H30.1696L34 420.345V432.502H22Z" fill="#87909F"/>
<path d="M57.0371 429H55.5059V424.632H50.4404V429H48.9092V419.136H50.4404V423.306H55.5059V419.136H57.0371V429ZM58.7188 429V421.809H60.1953V429H58.7188ZM59.457 420.756C58.9854 420.756 58.6025 420.38 58.6025 419.915C58.6025 419.443 58.9854 419.067 59.457 419.067C59.9355 419.067 60.3184 419.443 60.3184 419.915C60.3184 420.38 59.9355 420.756 59.457 420.756ZM61.5762 423.846C61.5762 422.561 62.7109 421.679 64.3926 421.679C65.9922 421.679 67.1133 422.574 67.1611 423.853H65.7734C65.7051 423.203 65.1787 422.8 64.3516 422.8C63.5518 422.8 63.0186 423.189 63.0186 423.757C63.0186 424.201 63.374 424.502 64.1191 424.687L65.3291 424.967C66.7783 425.315 67.3252 425.862 67.3252 426.922C67.3252 428.234 66.1016 429.137 64.3379 429.137C62.6357 429.137 61.5078 428.255 61.3916 426.936H62.8545C62.9707 427.626 63.5039 428.009 64.4062 428.009C65.2949 428.009 65.8418 427.64 65.8418 427.059C65.8418 426.601 65.5684 426.348 64.8164 426.156L63.5312 425.842C62.2324 425.527 61.5762 424.851 61.5762 423.846ZM68.9043 420.106H70.3877V421.809H71.7549V422.978H70.3877V426.942C70.3877 427.564 70.6611 427.845 71.2627 427.845C71.4131 427.845 71.6523 427.831 71.748 427.811V428.979C71.584 429.021 71.2559 429.048 70.9277 429.048C69.4717 429.048 68.9043 428.494 68.9043 427.106V422.978H67.8584V421.809H68.9043V420.106ZM75.8838 429.137C73.8262 429.137 72.4727 427.722 72.4727 425.404C72.4727 423.094 73.833 421.679 75.8838 421.679C77.9346 421.679 79.2949 423.094 79.2949 425.404C79.2949 427.722 77.9414 429.137 75.8838 429.137ZM75.8838 427.92C77.0459 427.92 77.791 427.004 77.791 425.404C77.791 423.812 77.0391 422.896 75.8838 422.896C74.7285 422.896 73.9766 423.812 73.9766 425.404C73.9766 427.004 74.7285 427.92 75.8838 427.92ZM80.4365 429V421.809H81.8447V423.032H81.8789C82.1182 422.191 82.7607 421.692 83.6084 421.692C83.8203 421.692 84.0049 421.727 84.1143 421.747V423.121C83.998 423.073 83.7383 423.039 83.4512 423.039C82.501 423.039 81.9131 423.675 81.9131 424.693V429H80.4365ZM85.0781 429V421.809H86.5547V429H85.0781ZM85.8164 420.756C85.3447 420.756 84.9619 420.38 84.9619 419.915C84.9619 419.443 85.3447 419.067 85.8164 419.067C86.2949 419.067 86.6777 419.443 86.6777 419.915C86.6777 420.38 86.2949 420.756 85.8164 420.756ZM90.5811 427.954C91.6133 427.954 92.4199 427.243 92.4199 426.307V425.739L90.6494 425.849C89.7676 425.91 89.2686 426.3 89.2686 426.915C89.2686 427.544 89.7881 427.954 90.5811 427.954ZM90.1709 429.123C88.7627 429.123 87.7783 428.248 87.7783 426.956C87.7783 425.698 88.7422 424.926 90.4512 424.83L92.4199 424.714V424.16C92.4199 423.36 91.8799 422.882 90.9775 422.882C90.123 422.882 89.5898 423.292 89.46 423.935H88.0654C88.1475 422.636 89.2549 421.679 91.0322 421.679C92.7754 421.679 93.8896 422.602 93.8896 424.044V429H92.4746V427.817H92.4404C92.0234 428.617 91.1143 429.123 90.1709 429.123ZM95.3799 429V419.136H96.8564V429H95.3799ZM103.918 429.123C102.1 429.123 100.896 427.674 100.896 425.404C100.896 423.135 102.1 421.692 103.904 421.692C104.937 421.692 105.757 422.212 106.16 423.005H106.188V419.136H107.671V429H106.235V427.776H106.208C105.784 428.597 104.964 429.123 103.918 429.123ZM104.308 422.937C103.139 422.937 102.407 423.894 102.407 425.404C102.407 426.922 103.139 427.872 104.308 427.872C105.442 427.872 106.201 426.908 106.201 425.404C106.201 423.914 105.442 422.937 104.308 422.937ZM112.196 422.868C111.164 422.868 110.439 423.654 110.364 424.741H113.96C113.926 423.641 113.229 422.868 112.196 422.868ZM113.953 426.888H115.354C115.149 428.2 113.905 429.137 112.258 429.137C110.146 429.137 108.867 427.708 108.867 425.438C108.867 423.183 110.166 421.679 112.196 421.679C114.192 421.679 115.437 423.087 115.437 425.268V425.773H110.357V425.862C110.357 427.113 111.109 427.94 112.292 427.94C113.133 427.94 113.755 427.517 113.953 426.888ZM121.138 429H119.606V419.136H125.766V420.455H121.138V423.579H125.376V424.871H121.138V429ZM126.969 429V421.809H128.445V429H126.969ZM127.707 420.756C127.235 420.756 126.853 420.38 126.853 419.915C126.853 419.443 127.235 419.067 127.707 419.067C128.186 419.067 128.568 419.443 128.568 419.915C128.568 420.38 128.186 420.756 127.707 420.756ZM129.956 429V421.809H131.364V423.012H131.398C131.788 422.191 132.554 421.686 133.661 421.686C135.247 421.686 136.156 422.697 136.156 424.345V429H134.673V424.632C134.673 423.552 134.167 422.957 133.142 422.957C132.103 422.957 131.433 423.695 131.433 424.81V429H129.956ZM140.101 427.954C141.133 427.954 141.939 427.243 141.939 426.307V425.739L140.169 425.849C139.287 425.91 138.788 426.3 138.788 426.915C138.788 427.544 139.308 427.954 140.101 427.954ZM139.69 429.123C138.282 429.123 137.298 428.248 137.298 426.956C137.298 425.698 138.262 424.926 139.971 424.83L141.939 424.714V424.16C141.939 423.36 141.399 422.882 140.497 422.882C139.643 422.882 139.109 423.292 138.979 423.935H137.585C137.667 422.636 138.774 421.679 140.552 421.679C142.295 421.679 143.409 422.602 143.409 424.044V429H141.994V427.817H141.96C141.543 428.617 140.634 429.123 139.69 429.123ZM144.845 429V421.809H146.253V423.012H146.287C146.677 422.191 147.442 421.686 148.55 421.686C150.136 421.686 151.045 422.697 151.045 424.345V429H149.562V424.632C149.562 423.552 149.056 422.957 148.03 422.957C146.991 422.957 146.321 423.695 146.321 424.81V429H144.845ZM158.646 424.283H157.238C157.088 423.518 156.514 422.909 155.55 422.909C154.408 422.909 153.656 423.859 153.656 425.404C153.656 426.983 154.415 427.899 155.563 427.899C156.473 427.899 157.067 427.4 157.238 426.566H158.66C158.503 428.098 157.279 429.137 155.55 429.137C153.492 429.137 152.152 427.729 152.152 425.404C152.152 423.121 153.492 421.679 155.536 421.679C157.389 421.679 158.517 422.868 158.646 424.283ZM159.754 429V421.809H161.23V429H159.754ZM160.492 420.756C160.021 420.756 159.638 420.38 159.638 419.915C159.638 419.443 160.021 419.067 160.492 419.067C160.971 419.067 161.354 419.443 161.354 419.915C161.354 420.38 160.971 420.756 160.492 420.756ZM165.257 427.954C166.289 427.954 167.096 427.243 167.096 426.307V425.739L165.325 425.849C164.443 425.91 163.944 426.3 163.944 426.915C163.944 427.544 164.464 427.954 165.257 427.954ZM164.847 429.123C163.438 429.123 162.454 428.248 162.454 426.956C162.454 425.698 163.418 424.926 165.127 424.83L167.096 424.714V424.16C167.096 423.36 166.556 422.882 165.653 422.882C164.799 422.882 164.266 423.292 164.136 423.935H162.741C162.823 422.636 163.931 421.679 165.708 421.679C167.451 421.679 168.565 422.602 168.565 424.044V429H167.15V427.817H167.116C166.699 428.617 165.79 429.123 164.847 429.123ZM170.001 429V421.809H171.409V423.019H171.443C171.765 422.219 172.517 421.686 173.487 421.686C174.485 421.686 175.21 422.198 175.497 423.094H175.531C175.9 422.219 176.748 421.686 177.773 421.686C179.195 421.686 180.125 422.629 180.125 424.058V429H178.642V424.413C178.642 423.483 178.143 422.95 177.268 422.95C176.393 422.95 175.784 423.6 175.784 424.509V429H174.335V424.304C174.335 423.477 173.809 422.95 172.975 422.95C172.1 422.95 171.478 423.634 171.478 424.557V429H170.001ZM181.602 429V421.809H183.078V429H181.602ZM182.34 420.756C181.868 420.756 181.485 420.38 181.485 419.915C181.485 419.443 181.868 419.067 182.34 419.067C182.818 419.067 183.201 419.443 183.201 419.915C183.201 420.38 182.818 420.756 182.34 420.756ZM187.597 422.868C186.564 422.868 185.84 423.654 185.765 424.741H189.36C189.326 423.641 188.629 422.868 187.597 422.868ZM189.354 426.888H190.755C190.55 428.2 189.306 429.137 187.658 429.137C185.546 429.137 184.268 427.708 184.268 425.438C184.268 423.183 185.566 421.679 187.597 421.679C189.593 421.679 190.837 423.087 190.837 425.268V425.773H185.758V425.862C185.758 427.113 186.51 427.94 187.692 427.94C188.533 427.94 189.155 427.517 189.354 426.888ZM191.985 429V421.809H193.394V423.012H193.428C193.817 422.191 194.583 421.686 195.69 421.686C197.276 421.686 198.186 422.697 198.186 424.345V429H196.702V424.632C196.702 423.552 196.196 422.957 195.171 422.957C194.132 422.957 193.462 423.695 193.462 424.81V429H191.985ZM200.045 420.106H201.528V421.809H202.896V422.978H201.528V426.942C201.528 427.564 201.802 427.845 202.403 427.845C202.554 427.845 202.793 427.831 202.889 427.811V428.979C202.725 429.021 202.396 429.048 202.068 429.048C200.612 429.048 200.045 428.494 200.045 427.106V422.978H198.999V421.809H200.045V420.106ZM207.024 429.137C204.967 429.137 203.613 427.722 203.613 425.404C203.613 423.094 204.974 421.679 207.024 421.679C209.075 421.679 210.436 423.094 210.436 425.404C210.436 427.722 209.082 429.137 207.024 429.137ZM207.024 427.92C208.187 427.92 208.932 427.004 208.932 425.404C208.932 423.812 208.18 422.896 207.024 422.896C205.869 422.896 205.117 423.812 205.117 425.404C205.117 427.004 205.869 427.92 207.024 427.92Z" fill="#0D0E0F"/>
</svg>
