<svg width="463" height="60" viewBox="0 0 463 60" fill="none" xmlns="http://www.w3.org/2000/svg">
<rect width="415" height="60" transform="translate(24)" fill="white"/>
<path d="M43.4902 31H40.541V19.3398H36.4688V16.9082H47.5723V19.3398H43.4902V31ZM47.6309 31V20.5312H50.3848V22.416H50.4434C50.8145 21.0879 51.7031 20.3652 52.9336 20.3652C53.2656 20.3652 53.5488 20.4141 53.7441 20.4727V22.9824C53.5098 22.8848 53.1191 22.8164 52.709 22.8164C51.3027 22.8164 50.4824 23.6758 50.4824 25.1504V31H47.6309ZM58.7051 29.1055C59.9453 29.1055 60.9707 28.2949 60.9707 27.1621V26.4004L58.7637 26.5371C57.6992 26.6152 57.0938 27.0938 57.0938 27.8359C57.0938 28.6172 57.7383 29.1055 58.7051 29.1055ZM57.7676 31.166C55.7754 31.166 54.2617 29.877 54.2617 27.9922C54.2617 26.0879 55.7266 24.9844 58.334 24.8281L60.9707 24.6719V23.9785C60.9707 23.002 60.2871 22.4355 59.2129 22.4355C58.1484 22.4355 57.4746 22.9629 57.3379 23.7344H54.7305C54.8379 21.7031 56.5664 20.3066 59.3398 20.3066C62.0254 20.3066 63.7734 21.6934 63.7734 23.8027V31H61.0195V29.3984H60.9609C60.375 30.5117 59.0762 31.166 57.7676 31.166ZM65.6191 31V20.5312H68.373V22.3965H68.4316C68.9883 21.0977 70.0918 20.3359 71.7031 20.3359C74.0273 20.3359 75.3359 21.8008 75.3359 24.252V31H72.4844V24.8477C72.4844 23.4805 71.8398 22.6992 70.5605 22.6992C69.2812 22.6992 68.4707 23.6367 68.4707 24.9941V31H65.6191ZM76.9668 23.6074C76.9668 21.6152 78.6953 20.3066 81.3809 20.3066C84.0078 20.3066 85.7168 21.6348 85.7559 23.666H83.1289C83.0703 22.8262 82.3965 22.3086 81.3418 22.3086C80.3555 22.3086 79.7109 22.7578 79.7109 23.4316C79.7109 23.9492 80.1602 24.3008 81.0781 24.5156L83.0801 24.9453C85.1797 25.4141 86.0293 26.2441 86.0293 27.8066C86.0293 29.8672 84.1348 31.2246 81.3711 31.2246C78.5781 31.2246 76.8594 29.877 76.7031 27.8359H79.4863C79.623 28.7148 80.3164 29.2227 81.4492 29.2227C82.5332 29.2227 83.1875 28.793 83.1875 28.1094C83.1875 27.582 82.8359 27.2891 81.8984 27.0645L79.9648 26.6348C77.9824 26.1855 76.9668 25.1504 76.9668 23.6074ZM88.2168 31V22.6797H86.791V20.5801H88.2168V19.7891C88.2168 17.7383 89.1836 16.7812 91.6641 16.7812C92.1914 16.7812 92.7871 16.8398 93.1191 16.9082V18.793C92.9141 18.7539 92.6309 18.7344 92.3477 18.7344C91.4102 18.7344 91 19.1445 91 19.8867V20.5801H93.0801V22.6797H91.0684V31H88.2168ZM98.9883 22.416C97.7383 22.416 96.8398 23.3633 96.7422 24.6719H101.186C101.127 23.334 100.258 22.416 98.9883 22.416ZM101.225 27.7969H103.842C103.529 29.8477 101.654 31.2246 99.0664 31.2246C95.8438 31.2246 93.9102 29.1641 93.9102 25.8145C93.9102 22.4746 95.8633 20.3066 98.959 20.3066C102.006 20.3066 103.93 22.3672 103.93 25.5508V26.4199H96.7129V26.5957C96.7129 28.0898 97.6602 29.1152 99.1152 29.1152C100.16 29.1152 100.961 28.5977 101.225 27.7969ZM105.404 31V20.5312H108.158V22.416H108.217C108.588 21.0879 109.477 20.3652 110.707 20.3652C111.039 20.3652 111.322 20.4141 111.518 20.4727V22.9824C111.283 22.8848 110.893 22.8164 110.482 22.8164C109.076 22.8164 108.256 23.6758 108.256 25.1504V31H105.404ZM117.035 22.416C115.785 22.416 114.887 23.3633 114.789 24.6719H119.232C119.174 23.334 118.305 22.416 117.035 22.416ZM119.271 27.7969H121.889C121.576 29.8477 119.701 31.2246 117.113 31.2246C113.891 31.2246 111.957 29.1641 111.957 25.8145C111.957 22.4746 113.91 20.3066 117.006 20.3066C120.053 20.3066 121.977 22.3672 121.977 25.5508V26.4199H114.76V26.5957C114.76 28.0898 115.707 29.1152 117.162 29.1152C118.207 29.1152 119.008 28.5977 119.271 27.7969ZM123.451 31V20.5312H126.205V22.3965H126.264C126.82 21.0977 127.924 20.3359 129.535 20.3359C131.859 20.3359 133.168 21.8008 133.168 24.252V31H130.316V24.8477C130.316 23.4805 129.672 22.6992 128.393 22.6992C127.113 22.6992 126.303 23.6367 126.303 24.9941V31H123.451ZM144.486 24.4277H141.84C141.674 23.3242 140.941 22.543 139.77 22.543C138.363 22.543 137.484 23.7344 137.484 25.7559C137.484 27.8164 138.363 28.9883 139.779 28.9883C140.922 28.9883 141.664 28.3047 141.84 27.1621H144.496C144.35 29.6328 142.504 31.2246 139.75 31.2246C136.596 31.2246 134.594 29.1738 134.594 25.7559C134.594 22.3965 136.596 20.3066 139.73 20.3066C142.562 20.3066 144.359 22.0547 144.486 24.4277ZM145.922 31V20.5312H148.773V31H145.922ZM147.348 19.3789C146.488 19.3789 145.824 18.7246 145.824 17.9043C145.824 17.0742 146.488 16.4297 147.348 16.4297C148.207 16.4297 148.871 17.0742 148.871 17.9043C148.871 18.7246 148.207 19.3789 147.348 19.3789ZM154.721 29.1055C155.961 29.1055 156.986 28.2949 156.986 27.1621V26.4004L154.779 26.5371C153.715 26.6152 153.109 27.0938 153.109 27.8359C153.109 28.6172 153.754 29.1055 154.721 29.1055ZM153.783 31.166C151.791 31.166 150.277 29.877 150.277 27.9922C150.277 26.0879 151.742 24.9844 154.35 24.8281L156.986 24.6719V23.9785C156.986 23.002 156.303 22.4355 155.229 22.4355C154.164 22.4355 153.49 22.9629 153.354 23.7344H150.746C150.854 21.7031 152.582 20.3066 155.355 20.3066C158.041 20.3066 159.789 21.6934 159.789 23.8027V31H157.035V29.3984H156.977C156.391 30.5117 155.092 31.166 153.783 31.166ZM169.486 31.166C166.869 31.166 165.219 29.0957 165.219 25.7461C165.219 22.4258 166.879 20.3652 169.506 20.3652C171.02 20.3652 172.191 21.166 172.699 22.3281H172.758V16.9082H175.609V31H172.797V29.2031H172.748C172.24 30.3555 171.029 31.166 169.486 31.166ZM170.453 22.6504C169.018 22.6504 168.139 23.8516 168.139 25.7656C168.139 27.6895 169.018 28.8711 170.453 28.8711C171.869 28.8711 172.777 27.6797 172.777 25.7656C172.777 23.8613 171.869 22.6504 170.453 22.6504ZM182.211 22.416C180.961 22.416 180.062 23.3633 179.965 24.6719H184.408C184.35 23.334 183.48 22.416 182.211 22.416ZM184.447 27.7969H187.064C186.752 29.8477 184.877 31.2246 182.289 31.2246C179.066 31.2246 177.133 29.1641 177.133 25.8145C177.133 22.4746 179.086 20.3066 182.182 20.3066C185.229 20.3066 187.152 22.3672 187.152 25.5508V26.4199H179.936V26.5957C179.936 28.0898 180.883 29.1152 182.338 29.1152C183.383 29.1152 184.184 28.5977 184.447 27.7969ZM196.479 31.166C193.861 31.166 192.211 29.0957 192.211 25.7461C192.211 22.4258 193.871 20.3652 196.498 20.3652C198.012 20.3652 199.184 21.166 199.691 22.3281H199.75V16.9082H202.602V31H199.789V29.2031H199.74C199.232 30.3555 198.021 31.166 196.479 31.166ZM197.445 22.6504C196.01 22.6504 195.131 23.8516 195.131 25.7656C195.131 27.6895 196.01 28.8711 197.445 28.8711C198.861 28.8711 199.77 27.6797 199.77 25.7656C199.77 23.8613 198.861 22.6504 197.445 22.6504ZM204.555 31V20.5312H207.406V31H204.555ZM205.98 19.3789C205.121 19.3789 204.457 18.7246 204.457 17.9043C204.457 17.0742 205.121 16.4297 205.98 16.4297C206.84 16.4297 207.504 17.0742 207.504 17.9043C207.504 18.7246 206.84 19.3789 205.98 19.3789ZM209.311 31V20.5312H212.064V22.3965H212.123C212.68 21.0977 213.783 20.3359 215.395 20.3359C217.719 20.3359 219.027 21.8008 219.027 24.252V31H216.176V24.8477C216.176 23.4805 215.531 22.6992 214.252 22.6992C212.973 22.6992 212.162 23.6367 212.162 24.9941V31H209.311ZM225.531 22.416C224.281 22.416 223.383 23.3633 223.285 24.6719H227.729C227.67 23.334 226.801 22.416 225.531 22.416ZM227.768 27.7969H230.385C230.072 29.8477 228.197 31.2246 225.609 31.2246C222.387 31.2246 220.453 29.1641 220.453 25.8145C220.453 22.4746 222.406 20.3066 225.502 20.3066C228.549 20.3066 230.473 22.3672 230.473 25.5508V26.4199H223.256V26.5957C223.256 28.0898 224.203 29.1152 225.658 29.1152C226.703 29.1152 227.504 28.5977 227.768 27.7969ZM231.947 31V20.5312H234.701V22.416H234.76C235.131 21.0879 236.02 20.3652 237.25 20.3652C237.582 20.3652 237.865 20.4141 238.061 20.4727V22.9824C237.826 22.8848 237.436 22.8164 237.025 22.8164C235.619 22.8164 234.799 23.6758 234.799 25.1504V31H231.947ZM243.686 31.2246C240.521 31.2246 238.5 29.1934 238.5 25.7559C238.5 22.3672 240.551 20.3066 243.686 20.3066C246.82 20.3066 248.871 22.3574 248.871 25.7559C248.871 29.2031 246.85 31.2246 243.686 31.2246ZM243.686 29.0469C245.082 29.0469 245.971 27.8652 245.971 25.7656C245.971 23.6855 245.072 22.4844 243.686 22.4844C242.299 22.4844 241.391 23.6855 241.391 25.7656C241.391 27.8652 242.279 29.0469 243.686 29.0469Z" fill="black"/>
<path d="M413 31L427 17" stroke="#969EAB" stroke-width="1.5" stroke-linecap="round"/>
<path d="M427 31L413 17" stroke="#969EAB" stroke-width="1.5" stroke-linecap="round"/>
<line x1="4.14456e-08" y1="59.5" x2="463" y2="59.5" stroke="#C4C4C4"/>
</svg>
