<svg width="874" height="135" viewBox="0 0 874 135" fill="none" xmlns="http://www.w3.org/2000/svg">
<path d="M7.17773 19H5.43945L0.244141 4.9082H2.08984L6.2793 16.8613H6.33789L10.5273 4.9082H12.373L7.17773 19ZM15.6055 17.7305C17.207 17.7305 18.4375 16.6074 18.4375 15.1426V14.3125L15.7227 14.4785C14.3555 14.5664 13.5742 15.1719 13.5742 16.1289C13.5742 17.0957 14.3848 17.7305 15.6055 17.7305ZM15.2246 19.1758C13.2031 19.1758 11.8457 17.9551 11.8457 16.1289C11.8457 14.3906 13.1836 13.2969 15.5273 13.1602L18.4375 12.9941V12.1445C18.4375 10.9043 17.6172 10.1621 16.2109 10.1621C14.9023 10.1621 14.082 10.7773 13.8672 11.7734H12.2266C12.3438 10.0156 13.8477 8.66797 16.25 8.66797C18.6328 8.66797 20.1367 9.95703 20.1367 11.9785V19H18.5254V17.252H18.4863C17.8809 18.4141 16.5918 19.1758 15.2246 19.1758ZM22.3828 19V4.9082H24.082V19H22.3828ZM30.5859 19.1758C27.7734 19.1758 25.8789 17.1543 25.8789 13.9219C25.8789 10.6797 27.7734 8.66797 30.5859 8.66797C33.3887 8.66797 35.2832 10.6797 35.2832 13.9219C35.2832 17.1543 33.3887 19.1758 30.5859 19.1758ZM30.5859 17.6816C32.3828 17.6816 33.5547 16.3145 33.5547 13.9219C33.5547 11.5293 32.3828 10.1621 30.5859 10.1621C28.7891 10.1621 27.6074 11.5293 27.6074 13.9219C27.6074 16.3145 28.7891 17.6816 30.5859 17.6816ZM37.002 19V8.84375H38.6035V10.5039H38.6426C38.9746 9.38086 39.9121 8.66797 41.1035 8.66797C41.3965 8.66797 41.6504 8.7168 41.7871 8.73633V10.3867C41.6504 10.3379 41.2891 10.2891 40.8789 10.2891C39.5605 10.2891 38.7012 11.2363 38.7012 12.6719V19H37.002ZM52.8613 19H51.1035V6.49023H46.6602V4.9082H57.3047V6.49023H52.8613V19ZM60.4688 19.1758C57.6562 19.1758 55.7617 17.1543 55.7617 13.9219C55.7617 10.6797 57.6562 8.66797 60.4688 8.66797C63.2715 8.66797 65.166 10.6797 65.166 13.9219C65.166 17.1543 63.2715 19.1758 60.4688 19.1758ZM60.4688 17.6816C62.2656 17.6816 63.4375 16.3145 63.4375 13.9219C63.4375 11.5293 62.2656 10.1621 60.4688 10.1621C58.6719 10.1621 57.4902 11.5293 57.4902 13.9219C57.4902 16.3145 58.6719 17.6816 60.4688 17.6816ZM67.4316 6.39258H69.1309V8.84375H71.1035V10.2402H69.1309V16.2754C69.1309 17.2031 69.5215 17.623 70.3906 17.623C70.5859 17.623 70.9766 17.5938 71.0938 17.5742V19C70.8887 19.0488 70.4199 19.0781 70.0195 19.0781C68.1543 19.0781 67.4316 18.3164 67.4316 16.3633V10.2402H65.918V8.84375H67.4316V6.39258ZM76.0742 17.7305C77.6758 17.7305 78.9062 16.6074 78.9062 15.1426V14.3125L76.1914 14.4785C74.8242 14.5664 74.043 15.1719 74.043 16.1289C74.043 17.0957 74.8535 17.7305 76.0742 17.7305ZM75.6934 19.1758C73.6719 19.1758 72.3145 17.9551 72.3145 16.1289C72.3145 14.3906 73.6523 13.2969 75.9961 13.1602L78.9062 12.9941V12.1445C78.9062 10.9043 78.0859 10.1621 76.6797 10.1621C75.3711 10.1621 74.5508 10.7773 74.3359 11.7734H72.6953C72.8125 10.0156 74.3164 8.66797 76.7188 8.66797C79.1016 8.66797 80.6055 9.95703 80.6055 11.9785V19H78.9941V17.252H78.9551C78.3496 18.4141 77.0605 19.1758 75.6934 19.1758ZM82.8516 19V4.9082H84.5508V19H82.8516Z" fill="#86909F"/>
<path d="M101.401 11.8428C101.401 12.1779 101.467 12.5098 101.595 12.8194C101.723 13.1289 101.911 13.4102 102.148 13.6472C102.385 13.8841 102.667 14.0721 102.976 14.2003C103.286 14.3286 103.618 14.3946 103.953 14.3946C104.288 14.3946 104.62 14.3286 104.929 14.2003C105.239 14.0721 105.52 13.8841 105.757 13.6472C105.994 13.4102 106.182 13.1289 106.31 12.8194C106.438 12.5098 106.504 12.1779 106.504 11.8428C106.504 11.1661 106.236 10.517 105.757 10.0385C105.279 9.55994 104.63 9.2911 103.953 9.2911C103.276 9.2911 102.627 9.55994 102.148 10.0385C101.67 10.517 101.401 11.1661 101.401 11.8428ZM113.844 11.2545C111.685 6.70469 108.42 4.41516 104.044 4.41516C99.6652 4.41516 96.4026 6.70469 94.241 11.2566C94.1543 11.4401 94.1094 11.6405 94.1094 11.8434C94.1094 12.0463 94.1543 12.2467 94.241 12.4301C96.4015 16.9799 99.6663 19.2694 104.043 19.2694C108.42 19.2694 111.684 16.9799 113.843 12.428C114.019 12.0595 114.019 11.6305 113.843 11.2545H113.844ZM103.952 15.8519C103.425 15.8519 102.904 15.7482 102.417 15.5467C101.931 15.3452 101.489 15.0499 101.116 14.6775C100.744 14.3052 100.449 13.8632 100.247 13.3767C100.046 12.8903 99.942 12.3689 99.942 11.8423C99.942 11.3157 100.046 10.7943 100.247 10.3079C100.449 9.8214 100.744 9.37938 101.116 9.00705C101.489 8.63472 101.931 8.33937 102.417 8.13787C102.904 7.93637 103.425 7.83265 103.952 7.83265C105.015 7.83265 106.035 8.2551 106.787 9.00705C107.539 9.75901 107.961 10.7789 107.961 11.8423C107.961 12.9057 107.539 13.9256 106.787 14.6775C106.035 15.4295 105.015 15.8519 103.952 15.8519Z" fill="#87909F"/>
<path d="M8.98242 69.8135V65.835H12.5508C15.5859 65.835 17.6572 63.9688 17.6572 61.3232C17.6572 58.7393 15.8525 57.0166 12.5303 57.0166C9.47461 57.0166 7.42383 58.8008 7.21875 61.5693H2.29688C2.58398 56.2578 6.66504 52.8125 12.7764 52.8125C18.6006 52.8125 22.7432 55.9912 22.7432 60.6055C22.7432 64.2764 20.2822 66.9219 16.6318 67.5576V67.6807C21.0615 68.0088 23.9326 70.7158 23.9326 74.8379C23.9326 80.0674 19.1748 83.5947 12.7148 83.5947C6.21387 83.5947 1.98926 80.0264 1.72266 74.7559H6.76758C7.01367 77.4629 9.22852 79.2676 12.7559 79.2676C16.1602 79.2676 18.5596 77.3604 18.5596 74.6328C18.5596 71.6387 16.3037 69.8135 12.6328 69.8135H8.98242ZM27.7881 62.1846C27.7881 56.7295 32.1562 52.8125 38.2881 52.8125C44.1943 52.8125 48.4189 56.4219 48.4189 61.2207C48.4189 64.748 46.3271 67.4141 42.4512 71.3311L35.1299 78.5703V78.6729H48.8701V83H28.0752V79.4316L38.9648 68.6035C42.3281 65.1787 43.251 63.6611 43.251 61.4463C43.251 59.0059 41.0566 57.0576 38.124 57.0576C35.0479 57.0576 32.751 59.2314 32.751 62.1641V62.2461H27.7881V62.1846ZM63.9229 83.5947C56.6631 83.5947 52.3359 77.668 52.3359 68.1729C52.3359 58.7188 56.7041 52.8125 63.9229 52.8125C71.1211 52.8125 75.4688 58.6777 75.4688 68.1523C75.4688 77.627 71.1621 83.5947 63.9229 83.5947ZM63.9229 79.2676C67.8398 79.2676 70.1162 75.1455 70.1162 68.1729C70.1162 61.2617 67.7988 57.1396 63.9229 57.1396C60.0264 57.1396 57.668 61.3027 57.668 68.1523C57.668 75.125 59.9854 79.2676 63.9229 79.2676ZM90.583 83.5947C83.3232 83.5947 78.9961 77.668 78.9961 68.1729C78.9961 58.7188 83.3643 52.8125 90.583 52.8125C97.7812 52.8125 102.129 58.6777 102.129 68.1523C102.129 77.627 97.8223 83.5947 90.583 83.5947ZM90.583 79.2676C94.5 79.2676 96.7764 75.1455 96.7764 68.1729C96.7764 61.2617 94.459 57.1396 90.583 57.1396C86.6865 57.1396 84.3281 61.3027 84.3281 68.1523C84.3281 75.125 86.6455 79.2676 90.583 79.2676ZM108.609 83.2256C106.948 83.2256 105.656 81.9336 105.656 80.2725C105.656 78.6318 106.948 77.3193 108.609 77.3193C110.25 77.3193 111.542 78.6318 111.542 80.2725C111.542 81.9336 110.25 83.2256 108.609 83.2256ZM127.538 83.6152C123.231 83.6152 119.725 81.5234 117.735 77.7295C116.341 75.3096 115.623 72.2129 115.623 68.542C115.623 58.6777 120.196 52.792 127.702 52.792C133.116 52.792 137.32 56.0117 138.202 60.79H132.952C132.275 58.5547 130.204 57.0986 127.661 57.0986C123.231 57.0986 120.627 61.2002 120.668 68.3369H120.771C122.021 65.4453 125.057 63.5176 128.789 63.5176C134.408 63.5176 138.592 67.6602 138.592 73.2793C138.592 79.2881 133.957 83.6152 127.538 83.6152ZM127.497 79.2881C130.778 79.2881 133.383 76.7041 133.383 73.4434C133.383 70.1006 130.922 67.6602 127.538 67.6602C124.134 67.6602 121.611 70.1006 121.611 73.3818C121.611 76.6836 124.195 79.2881 127.497 79.2881ZM143.985 83L156.967 57.8369V57.7344H141.586V53.4072H162.176V57.8164L149.522 83H143.985ZM180.161 53.4072V72.0898C180.161 76.1299 182.643 78.8779 187.031 78.8779C191.42 78.8779 193.922 76.1299 193.922 72.0898V53.4072H199.192V72.5615C199.192 79.0215 194.537 83.4922 187.031 83.4922C179.546 83.4922 174.87 79.0215 174.87 72.5615V53.4072H180.161ZM203.232 74.6738H208.359C208.688 77.4014 211.415 79.1855 215.024 79.1855C218.593 79.1855 221.074 77.4219 221.074 74.9609C221.074 72.8281 219.557 71.5977 215.824 70.7158L211.989 69.8135C206.534 68.5625 203.95 65.9375 203.95 61.7129C203.95 56.4629 208.523 52.915 214.963 52.915C221.484 52.915 225.791 56.4424 225.914 61.6514H220.869C220.623 58.8828 218.306 57.2217 214.922 57.2217C211.579 57.2217 209.323 58.8623 209.323 61.3232C209.323 63.292 210.82 64.4404 214.45 65.3018L217.854 66.0811C223.863 67.4551 226.406 69.9365 226.406 74.3457C226.406 79.9648 221.895 83.4922 214.737 83.4922C207.929 83.4922 203.458 80.1289 203.232 74.6738ZM230.405 53.4072H241.213C250.052 53.4072 255.281 58.7598 255.281 68.1318C255.281 77.5039 250.072 83 241.213 83H230.405V53.4072ZM235.696 57.8779V78.5293H240.659C246.606 78.5293 249.888 74.8994 249.888 68.1523C249.888 61.5283 246.565 57.8779 240.659 57.8779H235.696ZM270.272 83H265.002V57.8779H256.143V53.4072H279.111V57.8779H270.272V83Z" fill="black"/>
<path d="M295.889 64.3809C296.026 64.3812 296.16 64.4205 296.275 64.4943C296.39 64.5681 296.482 64.6733 296.54 64.7975C296.598 64.9218 296.619 65.0599 296.601 65.1956C296.583 65.3314 296.526 65.4592 296.438 65.5641L291.552 71.3637C291.484 71.4439 291.4 71.5085 291.305 71.5527C291.21 71.597 291.106 71.62 291.001 71.62C290.896 71.62 290.792 71.597 290.697 71.5527C290.602 71.5085 290.518 71.4439 290.45 71.3637L285.561 65.5641C285.473 65.4592 285.417 65.3314 285.399 65.1956C285.381 65.0599 285.402 64.9218 285.46 64.7975C285.517 64.6733 285.609 64.5681 285.725 64.4943C285.84 64.4205 285.974 64.3812 286.111 64.3809H295.889Z" fill="#87909F"/>
<path d="M6.84375 115.156C5.64062 115.156 4.98438 115.984 4.89062 117.625H2.6875C2.67188 114.688 4.26562 112.875 6.89062 112.875C8.0625 112.875 9.09375 113.391 10.2969 114.594C11.2344 115.578 11.8594 115.969 12.5 115.969C13.7031 115.969 14.375 115.141 14.4688 113.5H16.6719C16.6719 116.453 15.0781 118.25 12.4688 118.25C11.2812 118.25 10.25 117.734 9.04688 116.547C8.07812 115.531 7.48438 115.156 6.84375 115.156ZM6.84375 122C5.64062 122 4.98438 122.828 4.89062 124.469H2.6875C2.67188 121.531 4.26562 119.719 6.89062 119.719C8.0625 119.719 9.09375 120.234 10.2969 121.438C11.2344 122.422 11.8594 122.812 12.5 122.812C13.7031 122.812 14.375 121.984 14.4688 120.344H16.6719C16.6719 123.297 15.0781 125.094 12.4688 125.094C11.2812 125.094 10.25 124.578 9.04688 123.391C8.07812 122.375 7.48438 122 6.84375 122ZM35.5156 127.375C31.2031 127.375 28.0156 124.688 27.7812 120.844H30.5469C30.7969 123.25 32.8438 124.906 35.5469 124.906C38.6094 124.906 40.7344 122.781 40.7344 119.75C40.7344 116.719 38.5938 114.547 35.5938 114.547C33.4844 114.547 31.6875 115.5 30.7656 117.078H28.125L29.3594 104.453H42.2656V106.953H31.6719L30.9844 114.297H31.0469C32.0625 112.938 33.9375 112.125 36.0938 112.125C40.4219 112.125 43.5469 115.297 43.5469 119.672C43.5469 124.203 40.2188 127.375 35.5156 127.375ZM54.2344 127.375C49.9219 127.375 46.7344 124.688 46.5 120.844H49.2656C49.5156 123.25 51.5625 124.906 54.2656 124.906C57.3281 124.906 59.4531 122.781 59.4531 119.75C59.4531 116.719 57.3125 114.547 54.3125 114.547C52.2031 114.547 50.4062 115.5 49.4844 117.078H46.8438L48.0781 104.453H60.9844V106.953H50.3906L49.7031 114.297H49.7656C50.7812 112.938 52.6562 112.125 54.8125 112.125C59.1406 112.125 62.2656 115.297 62.2656 119.672C62.2656 124.203 58.9375 127.375 54.2344 127.375ZM67.4375 127.156C66.4375 127.156 65.6562 126.375 65.6562 125.375C65.6562 124.375 66.4375 123.594 67.4375 123.594C68.4375 123.594 69.2188 124.375 69.2188 125.375C69.2188 126.375 68.4375 127.156 67.4375 127.156ZM77.7969 116.594V114.219H80.5C83.0938 114.219 84.9062 112.547 84.9062 110.266C84.9062 108.031 83.3906 106.516 80.5312 106.516C77.9375 106.516 76.2188 108 75.9688 110.359H73.2656C73.5781 106.531 76.4219 104.078 80.6562 104.078C84.6875 104.078 87.7344 106.5 87.7344 109.891C87.7344 112.719 85.9219 114.75 83.1094 115.25V115.312C86.5156 115.516 88.7031 117.625 88.7031 120.797C88.7031 124.672 85.1719 127.375 80.75 127.375C76.0312 127.375 73.0156 124.766 72.8125 121.031H75.5156C75.7656 123.344 77.6875 124.938 80.7188 124.938C83.7031 124.938 85.8438 123.25 85.8438 120.891C85.8438 118.234 83.8438 116.594 80.625 116.594H77.7969ZM99.8906 127.375C95.5781 127.375 92.3906 124.688 92.1562 120.844H94.9219C95.1719 123.25 97.2188 124.906 99.9219 124.906C102.984 124.906 105.109 122.781 105.109 119.75C105.109 116.719 102.969 114.547 99.9688 114.547C97.8594 114.547 96.0625 115.5 95.1406 117.078H92.5L93.7344 104.453H106.641V106.953H96.0469L95.3594 114.297H95.4219C96.4375 112.938 98.3125 112.125 100.469 112.125C104.797 112.125 107.922 115.297 107.922 119.672C107.922 124.203 104.594 127.375 99.8906 127.375ZM118.609 127.375C114.297 127.375 111.109 124.688 110.875 120.844H113.641C113.891 123.25 115.938 124.906 118.641 124.906C121.703 124.906 123.828 122.781 123.828 119.75C123.828 116.719 121.688 114.547 118.688 114.547C116.578 114.547 114.781 115.5 113.859 117.078H111.219L112.453 104.453H125.359V106.953H114.766L114.078 114.297H114.141C115.156 112.938 117.031 112.125 119.188 112.125C123.516 112.125 126.641 115.297 126.641 119.672C126.641 124.203 123.312 127.375 118.609 127.375ZM158.719 127H156.094V109.625H155.984L148.797 126.844H146.422L139.234 109.625H139.125V127H136.5V104.453H139.766L147.547 123.266H147.672L155.453 104.453H158.719V127ZM161.609 127L169.281 115.703V115.594L161.703 104.453H165.094L171.109 113.516H171.219L177.312 104.453H180.516L172.734 115.734V115.828L180.344 127H176.969L170.984 118.016H170.875L164.797 127H161.609ZM186.188 127H183.406V104.453H186.141L198.484 122.156H198.625V104.453H201.406V127H198.672L186.328 109.359H186.188V127Z" fill="#87909F"/>
<path d="M218.889 112.381C219.026 112.381 219.16 112.421 219.275 112.494C219.39 112.568 219.482 112.673 219.54 112.798C219.598 112.922 219.619 113.06 219.601 113.196C219.583 113.331 219.526 113.459 219.438 113.564L214.552 119.364C214.484 119.444 214.4 119.508 214.305 119.553C214.21 119.597 214.106 119.62 214.001 119.62C213.896 119.62 213.792 119.597 213.697 119.553C213.602 119.508 213.518 119.444 213.45 119.364L208.561 113.564C208.473 113.459 208.417 113.331 208.399 113.196C208.381 113.06 208.402 112.922 208.46 112.798C208.517 112.673 208.609 112.568 208.725 112.494C208.84 112.421 208.974 112.381 209.111 112.381H218.889Z" fill="#87909F"/>
</svg>
