<svg width="1166" height="199" viewBox="0 0 1166 199" fill="none" xmlns="http://www.w3.org/2000/svg">
<rect width="1166" height="199" rx="16" fill="white"/>
<path d="M31.1777 51H29.4395L24.2441 36.9082H26.0898L30.2793 48.8613H30.3379L34.5273 36.9082H36.373L31.1777 51ZM39.6055 49.7305C41.207 49.7305 42.4375 48.6074 42.4375 47.1426V46.3125L39.7227 46.4785C38.3555 46.5664 37.5742 47.1719 37.5742 48.1289C37.5742 49.0957 38.3848 49.7305 39.6055 49.7305ZM39.2246 51.1758C37.2031 51.1758 35.8457 49.9551 35.8457 48.1289C35.8457 46.3906 37.1836 45.2969 39.5273 45.1602L42.4375 44.9941V44.1445C42.4375 42.9043 41.6172 42.1621 40.2109 42.1621C38.9023 42.1621 38.082 42.7773 37.8672 43.7734H36.2266C36.3438 42.0156 37.8477 40.668 40.25 40.668C42.6328 40.668 44.1367 41.957 44.1367 43.9785V51H42.5254V49.252H42.4863C41.8809 50.4141 40.5918 51.1758 39.2246 51.1758ZM46.3828 51V36.9082H48.082V51H46.3828ZM54.5859 51.1758C51.7734 51.1758 49.8789 49.1543 49.8789 45.9219C49.8789 42.6797 51.7734 40.668 54.5859 40.668C57.3887 40.668 59.2832 42.6797 59.2832 45.9219C59.2832 49.1543 57.3887 51.1758 54.5859 51.1758ZM54.5859 49.6816C56.3828 49.6816 57.5547 48.3145 57.5547 45.9219C57.5547 43.5293 56.3828 42.1621 54.5859 42.1621C52.7891 42.1621 51.6074 43.5293 51.6074 45.9219C51.6074 48.3145 52.7891 49.6816 54.5859 49.6816ZM61.002 51V40.8438H62.6035V42.5039H62.6426C62.9746 41.3809 63.9121 40.668 65.1035 40.668C65.3965 40.668 65.6504 40.7168 65.7871 40.7363V42.3867C65.6504 42.3379 65.2891 42.2891 64.8789 42.2891C63.5605 42.2891 62.7012 43.2363 62.7012 44.6719V51H61.002ZM76.8613 51H75.1035V38.4902H70.6602V36.9082H81.3047V38.4902H76.8613V51ZM84.4688 51.1758C81.6562 51.1758 79.7617 49.1543 79.7617 45.9219C79.7617 42.6797 81.6562 40.668 84.4688 40.668C87.2715 40.668 89.166 42.6797 89.166 45.9219C89.166 49.1543 87.2715 51.1758 84.4688 51.1758ZM84.4688 49.6816C86.2656 49.6816 87.4375 48.3145 87.4375 45.9219C87.4375 43.5293 86.2656 42.1621 84.4688 42.1621C82.6719 42.1621 81.4902 43.5293 81.4902 45.9219C81.4902 48.3145 82.6719 49.6816 84.4688 49.6816ZM91.4316 38.3926H93.1309V40.8438H95.1035V42.2402H93.1309V48.2754C93.1309 49.2031 93.5215 49.623 94.3906 49.623C94.5859 49.623 94.9766 49.5938 95.0938 49.5742V51C94.8887 51.0488 94.4199 51.0781 94.0195 51.0781C92.1543 51.0781 91.4316 50.3164 91.4316 48.3633V42.2402H89.918V40.8438H91.4316V38.3926ZM100.074 49.7305C101.676 49.7305 102.906 48.6074 102.906 47.1426V46.3125L100.191 46.4785C98.8242 46.5664 98.043 47.1719 98.043 48.1289C98.043 49.0957 98.8535 49.7305 100.074 49.7305ZM99.6934 51.1758C97.6719 51.1758 96.3145 49.9551 96.3145 48.1289C96.3145 46.3906 97.6523 45.2969 99.9961 45.1602L102.906 44.9941V44.1445C102.906 42.9043 102.086 42.1621 100.68 42.1621C99.3711 42.1621 98.5508 42.7773 98.3359 43.7734H96.6953C96.8125 42.0156 98.3164 40.668 100.719 40.668C103.102 40.668 104.605 41.957 104.605 43.9785V51H102.994V49.252H102.955C102.35 50.4141 101.061 51.1758 99.6934 51.1758ZM106.852 51V36.9082H108.551V51H106.852Z" fill="#86909F"/>
<path d="M125.401 43.8428C125.401 44.1779 125.467 44.5098 125.595 44.8194C125.723 45.1289 125.911 45.4102 126.148 45.6472C126.385 45.8841 126.667 46.0721 126.976 46.2003C127.286 46.3286 127.618 46.3946 127.953 46.3946C128.288 46.3946 128.62 46.3286 128.929 46.2003C129.239 46.0721 129.52 45.8841 129.757 45.6472C129.994 45.4102 130.182 45.1289 130.31 44.8194C130.438 44.5098 130.504 44.1779 130.504 43.8428C130.504 43.1661 130.236 42.517 129.757 42.0385C129.279 41.5599 128.63 41.2911 127.953 41.2911C127.276 41.2911 126.627 41.5599 126.148 42.0385C125.67 42.517 125.401 43.1661 125.401 43.8428ZM137.844 43.2545C135.685 38.7047 132.42 36.4152 128.044 36.4152C123.665 36.4152 120.403 38.7047 118.241 43.2566C118.154 43.4401 118.109 43.6405 118.109 43.8434C118.109 44.0463 118.154 44.2467 118.241 44.4301C120.402 48.9799 123.666 51.2694 128.043 51.2694C132.42 51.2694 135.684 48.9799 137.843 44.428C138.019 44.0595 138.019 43.6305 137.843 43.2545H137.844ZM127.952 47.8519C127.425 47.8519 126.904 47.7482 126.417 47.5467C125.931 47.3452 125.489 47.0499 125.116 46.6775C124.744 46.3052 124.449 45.8632 124.247 45.3767C124.046 44.8903 123.942 44.3689 123.942 43.8423C123.942 43.3157 124.046 42.7943 124.247 42.3079C124.449 41.8214 124.744 41.3794 125.116 41.0071C125.489 40.6347 125.931 40.3394 126.417 40.1379C126.904 39.9364 127.425 39.8327 127.952 39.8327C129.015 39.8327 130.035 40.2551 130.787 41.0071C131.539 41.759 131.961 42.7789 131.961 43.8423C131.961 44.9057 131.539 45.9256 130.787 46.6775C130.035 47.4295 129.015 47.8519 127.952 47.8519Z" fill="#87909F"/>
<path d="M32.9824 101.813V97.835H36.5508C39.5859 97.835 41.6572 95.9688 41.6572 93.3232C41.6572 90.7393 39.8525 89.0166 36.5303 89.0166C33.4746 89.0166 31.4238 90.8008 31.2188 93.5693H26.2969C26.584 88.2578 30.665 84.8125 36.7764 84.8125C42.6006 84.8125 46.7432 87.9912 46.7432 92.6055C46.7432 96.2764 44.2822 98.9219 40.6318 99.5576V99.6807C45.0615 100.009 47.9326 102.716 47.9326 106.838C47.9326 112.067 43.1748 115.595 36.7148 115.595C30.2139 115.595 25.9893 112.026 25.7227 106.756H30.7676C31.0137 109.463 33.2285 111.268 36.7559 111.268C40.1602 111.268 42.5596 109.36 42.5596 106.633C42.5596 103.639 40.3037 101.813 36.6328 101.813H32.9824ZM51.7881 94.1846C51.7881 88.7295 56.1562 84.8125 62.2881 84.8125C68.1943 84.8125 72.4189 88.4219 72.4189 93.2207C72.4189 96.748 70.3271 99.4141 66.4512 103.331L59.1299 110.57V110.673H72.8701V115H52.0752V111.432L62.9648 100.604C66.3281 97.1787 67.251 95.6611 67.251 93.4463C67.251 91.0059 65.0566 89.0576 62.124 89.0576C59.0479 89.0576 56.751 91.2314 56.751 94.1641V94.2461H51.7881V94.1846ZM87.9229 115.595C80.6631 115.595 76.3359 109.668 76.3359 100.173C76.3359 90.7188 80.7041 84.8125 87.9229 84.8125C95.1211 84.8125 99.4688 90.6777 99.4688 100.152C99.4688 109.627 95.1621 115.595 87.9229 115.595ZM87.9229 111.268C91.8398 111.268 94.1162 107.146 94.1162 100.173C94.1162 93.2617 91.7988 89.1396 87.9229 89.1396C84.0264 89.1396 81.668 93.3027 81.668 100.152C81.668 107.125 83.9854 111.268 87.9229 111.268ZM114.583 115.595C107.323 115.595 102.996 109.668 102.996 100.173C102.996 90.7188 107.364 84.8125 114.583 84.8125C121.781 84.8125 126.129 90.6777 126.129 100.152C126.129 109.627 121.822 115.595 114.583 115.595ZM114.583 111.268C118.5 111.268 120.776 107.146 120.776 100.173C120.776 93.2617 118.459 89.1396 114.583 89.1396C110.687 89.1396 108.328 93.3027 108.328 100.152C108.328 107.125 110.646 111.268 114.583 111.268ZM132.609 115.226C130.948 115.226 129.656 113.934 129.656 112.272C129.656 110.632 130.948 109.319 132.609 109.319C134.25 109.319 135.542 110.632 135.542 112.272C135.542 113.934 134.25 115.226 132.609 115.226ZM151.538 115.615C147.231 115.615 143.725 113.523 141.735 109.729C140.341 107.31 139.623 104.213 139.623 100.542C139.623 90.6777 144.196 84.792 151.702 84.792C157.116 84.792 161.32 88.0117 162.202 92.79H156.952C156.275 90.5547 154.204 89.0986 151.661 89.0986C147.231 89.0986 144.627 93.2002 144.668 100.337H144.771C146.021 97.4453 149.057 95.5176 152.789 95.5176C158.408 95.5176 162.592 99.6602 162.592 105.279C162.592 111.288 157.957 115.615 151.538 115.615ZM151.497 111.288C154.778 111.288 157.383 108.704 157.383 105.443C157.383 102.101 154.922 99.6602 151.538 99.6602C148.134 99.6602 145.611 102.101 145.611 105.382C145.611 108.684 148.195 111.288 151.497 111.288ZM167.985 115L180.967 89.8369V89.7344H165.586V85.4072H186.176V89.8164L173.522 115H167.985ZM204.161 85.4072V104.09C204.161 108.13 206.643 110.878 211.031 110.878C215.42 110.878 217.922 108.13 217.922 104.09V85.4072H223.192V104.562C223.192 111.021 218.537 115.492 211.031 115.492C203.546 115.492 198.87 111.021 198.87 104.562V85.4072H204.161ZM227.232 106.674H232.359C232.688 109.401 235.415 111.186 239.024 111.186C242.593 111.186 245.074 109.422 245.074 106.961C245.074 104.828 243.557 103.598 239.824 102.716L235.989 101.813C230.534 100.562 227.95 97.9375 227.95 93.7129C227.95 88.4629 232.523 84.915 238.963 84.915C245.484 84.915 249.791 88.4424 249.914 93.6514H244.869C244.623 90.8828 242.306 89.2217 238.922 89.2217C235.579 89.2217 233.323 90.8623 233.323 93.3232C233.323 95.292 234.82 96.4404 238.45 97.3018L241.854 98.0811C247.863 99.4551 250.406 101.937 250.406 106.346C250.406 111.965 245.895 115.492 238.737 115.492C231.929 115.492 227.458 112.129 227.232 106.674ZM254.405 85.4072H265.213C274.052 85.4072 279.281 90.7598 279.281 100.132C279.281 109.504 274.072 115 265.213 115H254.405V85.4072ZM259.696 89.8779V110.529H264.659C270.606 110.529 273.888 106.899 273.888 100.152C273.888 93.5283 270.565 89.8779 264.659 89.8779H259.696ZM294.272 115H289.002V89.8779H280.143V85.4072H303.111V89.8779H294.272V115Z" fill="black"/>
<path d="M319.889 96.3809C320.026 96.3812 320.16 96.4205 320.275 96.4943C320.39 96.5681 320.482 96.6733 320.54 96.7975C320.598 96.9218 320.619 97.0599 320.601 97.1956C320.583 97.3314 320.526 97.4592 320.438 97.5641L315.552 103.364C315.484 103.444 315.4 103.508 315.305 103.553C315.21 103.597 315.106 103.62 315.001 103.62C314.896 103.62 314.792 103.597 314.697 103.553C314.602 103.508 314.518 103.444 314.45 103.364L309.561 97.5641C309.473 97.4592 309.417 97.3314 309.399 97.1956C309.381 97.0599 309.402 96.9218 309.46 96.7975C309.517 96.6733 309.609 96.5681 309.725 96.4943C309.84 96.4205 309.974 96.3812 310.111 96.3809H319.889Z" fill="#87909F"/>
<path d="M30.8438 147.156C29.6406 147.156 28.9844 147.984 28.8906 149.625H26.6875C26.6719 146.688 28.2656 144.875 30.8906 144.875C32.0625 144.875 33.0938 145.391 34.2969 146.594C35.2344 147.578 35.8594 147.969 36.5 147.969C37.7031 147.969 38.375 147.141 38.4688 145.5H40.6719C40.6719 148.453 39.0781 150.25 36.4688 150.25C35.2812 150.25 34.25 149.734 33.0469 148.547C32.0781 147.531 31.4844 147.156 30.8438 147.156ZM30.8438 154C29.6406 154 28.9844 154.828 28.8906 156.469H26.6875C26.6719 153.531 28.2656 151.719 30.8906 151.719C32.0625 151.719 33.0938 152.234 34.2969 153.438C35.2344 154.422 35.8594 154.812 36.5 154.812C37.7031 154.812 38.375 153.984 38.4688 152.344H40.6719C40.6719 155.297 39.0781 157.094 36.4688 157.094C35.2812 157.094 34.25 156.578 33.0469 155.391C32.0781 154.375 31.4844 154 30.8438 154ZM59.5156 159.375C55.2031 159.375 52.0156 156.688 51.7812 152.844H54.5469C54.7969 155.25 56.8438 156.906 59.5469 156.906C62.6094 156.906 64.7344 154.781 64.7344 151.75C64.7344 148.719 62.5938 146.547 59.5938 146.547C57.4844 146.547 55.6875 147.5 54.7656 149.078H52.125L53.3594 136.453H66.2656V138.953H55.6719L54.9844 146.297H55.0469C56.0625 144.938 57.9375 144.125 60.0938 144.125C64.4219 144.125 67.5469 147.297 67.5469 151.672C67.5469 156.203 64.2188 159.375 59.5156 159.375ZM78.2344 159.375C73.9219 159.375 70.7344 156.688 70.5 152.844H73.2656C73.5156 155.25 75.5625 156.906 78.2656 156.906C81.3281 156.906 83.4531 154.781 83.4531 151.75C83.4531 148.719 81.3125 146.547 78.3125 146.547C76.2031 146.547 74.4062 147.5 73.4844 149.078H70.8438L72.0781 136.453H84.9844V138.953H74.3906L73.7031 146.297H73.7656C74.7812 144.938 76.6562 144.125 78.8125 144.125C83.1406 144.125 86.2656 147.297 86.2656 151.672C86.2656 156.203 82.9375 159.375 78.2344 159.375ZM91.4375 159.156C90.4375 159.156 89.6562 158.375 89.6562 157.375C89.6562 156.375 90.4375 155.594 91.4375 155.594C92.4375 155.594 93.2188 156.375 93.2188 157.375C93.2188 158.375 92.4375 159.156 91.4375 159.156ZM101.797 148.594V146.219H104.5C107.094 146.219 108.906 144.547 108.906 142.266C108.906 140.031 107.391 138.516 104.531 138.516C101.938 138.516 100.219 140 99.9688 142.359H97.2656C97.5781 138.531 100.422 136.078 104.656 136.078C108.688 136.078 111.734 138.5 111.734 141.891C111.734 144.719 109.922 146.75 107.109 147.25V147.312C110.516 147.516 112.703 149.625 112.703 152.797C112.703 156.672 109.172 159.375 104.75 159.375C100.031 159.375 97.0156 156.766 96.8125 153.031H99.5156C99.7656 155.344 101.688 156.938 104.719 156.938C107.703 156.938 109.844 155.25 109.844 152.891C109.844 150.234 107.844 148.594 104.625 148.594H101.797ZM123.891 159.375C119.578 159.375 116.391 156.688 116.156 152.844H118.922C119.172 155.25 121.219 156.906 123.922 156.906C126.984 156.906 129.109 154.781 129.109 151.75C129.109 148.719 126.969 146.547 123.969 146.547C121.859 146.547 120.062 147.5 119.141 149.078H116.5L117.734 136.453H130.641V138.953H120.047L119.359 146.297H119.422C120.438 144.938 122.312 144.125 124.469 144.125C128.797 144.125 131.922 147.297 131.922 151.672C131.922 156.203 128.594 159.375 123.891 159.375ZM142.609 159.375C138.297 159.375 135.109 156.688 134.875 152.844H137.641C137.891 155.25 139.938 156.906 142.641 156.906C145.703 156.906 147.828 154.781 147.828 151.75C147.828 148.719 145.688 146.547 142.688 146.547C140.578 146.547 138.781 147.5 137.859 149.078H135.219L136.453 136.453H149.359V138.953H138.766L138.078 146.297H138.141C139.156 144.938 141.031 144.125 143.188 144.125C147.516 144.125 150.641 147.297 150.641 151.672C150.641 156.203 147.312 159.375 142.609 159.375ZM182.719 159H180.094V141.625H179.984L172.797 158.844H170.422L163.234 141.625H163.125V159H160.5V136.453H163.766L171.547 155.266H171.672L179.453 136.453H182.719V159ZM185.609 159L193.281 147.703V147.594L185.703 136.453H189.094L195.109 145.516H195.219L201.312 136.453H204.516L196.734 147.734V147.828L204.344 159H200.969L194.984 150.016H194.875L188.797 159H185.609ZM210.188 159H207.406V136.453H210.141L222.484 154.156H222.625V136.453H225.406V159H222.672L210.328 141.359H210.188V159Z" fill="#87909F"/>
<path d="M242.889 144.381C243.026 144.381 243.16 144.421 243.275 144.494C243.39 144.568 243.482 144.673 243.54 144.798C243.598 144.922 243.619 145.06 243.601 145.196C243.583 145.331 243.526 145.459 243.438 145.564L238.552 151.364C238.484 151.444 238.4 151.508 238.305 151.553C238.21 151.597 238.106 151.62 238.001 151.62C237.896 151.62 237.792 151.597 237.697 151.553C237.602 151.508 237.518 151.444 237.45 151.364L232.561 145.564C232.473 145.459 232.417 145.331 232.399 145.196C232.381 145.06 232.402 144.922 232.46 144.798C232.517 144.673 232.609 144.568 232.725 144.494C232.84 144.421 232.974 144.381 233.111 144.381H242.889Z" fill="#87909F"/>
<rect x="941" y="32" width="48" height="48" rx="24" fill="#EBF2FF"/>
<path fill-rule="evenodd" clip-rule="evenodd" d="M969.39 46.3537C968.966 45.8972 968.262 45.8803 967.819 46.3162C967.375 46.752 967.358 47.4754 967.782 47.932L971.292 51.7143H956.111C955.497 51.7143 955 52.2259 955 52.8571C955 53.4883 955.497 54 956.111 54H973.889C974.334 54 974.735 53.7272 974.91 53.3067C975.085 52.8862 975 52.3989 974.693 52.068L969.39 46.3537Z" fill="#3E80FF"/>
<path fill-rule="evenodd" clip-rule="evenodd" d="M960.61 65.6463C961.034 66.1028 961.737 66.1196 962.181 65.6838C962.625 65.248 962.642 64.5246 962.218 64.068L958.708 60.2857H973.889C974.503 60.2857 975 59.7741 975 59.1429C975 58.5117 974.503 58 973.889 58H956.111C955.666 58 955.265 58.2727 955.09 58.6933C954.915 59.1138 955 59.6011 955.307 59.932L960.61 65.6463Z" fill="#3E80FF"/>
<path d="M942.551 109H941.32V100.243H938.21V99.1357H945.661V100.243H942.551V109ZM945.203 109V101.891H946.324V103.053H946.352C946.584 102.267 947.24 101.768 948.074 101.768C948.279 101.768 948.457 101.802 948.553 101.815V102.971C948.457 102.937 948.204 102.902 947.917 102.902C946.994 102.902 946.393 103.565 946.393 104.57V109H945.203ZM951.731 108.111C952.853 108.111 953.714 107.325 953.714 106.3V105.719L951.813 105.835C950.856 105.896 950.31 106.32 950.31 106.99C950.31 107.667 950.877 108.111 951.731 108.111ZM951.465 109.123C950.05 109.123 949.1 108.269 949.1 106.99C949.1 105.773 950.036 105.008 951.677 104.912L953.714 104.796V104.201C953.714 103.333 953.14 102.813 952.155 102.813C951.239 102.813 950.665 103.244 950.515 103.941H949.366C949.448 102.711 950.501 101.768 952.183 101.768C953.851 101.768 954.903 102.67 954.903 104.085V109H953.775V107.776H953.748C953.324 108.59 952.422 109.123 951.465 109.123ZM956.414 109V101.891H957.535V103.025H957.562C957.959 102.26 958.718 101.768 959.818 101.768C961.377 101.768 962.279 102.772 962.279 104.386V109H961.09V104.598C961.09 103.449 960.55 102.82 959.456 102.82C958.335 102.82 957.604 103.613 957.604 104.816V109H956.414ZM963.674 103.853C963.674 102.636 964.761 101.768 966.326 101.768C967.796 101.768 968.876 102.643 968.931 103.846H967.796C967.714 103.162 967.16 102.738 966.285 102.738C965.417 102.738 964.843 103.169 964.843 103.791C964.843 104.283 965.219 104.611 966.025 104.816L967.126 105.083C968.562 105.445 969.081 105.965 969.081 107.011C969.081 108.248 967.912 109.123 966.251 109.123C964.692 109.123 963.605 108.275 963.482 107.018H964.672C964.802 107.756 965.362 108.152 966.326 108.152C967.29 108.152 967.885 107.742 967.885 107.1C967.885 106.594 967.591 106.32 966.791 106.108L965.54 105.787C964.289 105.466 963.674 104.823 963.674 103.853ZM970.701 109V102.868H969.71V101.891H970.701V101.098C970.701 99.7305 971.337 99.0811 972.649 99.0811C972.916 99.0811 973.203 99.1084 973.374 99.1357V100.1C973.23 100.079 973.032 100.059 972.834 100.059C972.191 100.059 971.884 100.4 971.884 101.104V101.891H973.34V102.868H971.891V109H970.701ZM977.079 102.8C975.965 102.8 975.186 103.654 975.11 104.837H978.973C978.945 103.647 978.2 102.8 977.079 102.8ZM978.945 106.963H980.114C979.909 108.207 978.706 109.123 977.154 109.123C975.117 109.123 973.88 107.708 973.88 105.473C973.88 103.265 975.138 101.768 977.1 101.768C979.021 101.768 980.203 103.162 980.203 105.315V105.767H975.104V105.835C975.104 107.195 975.903 108.091 977.182 108.091C978.084 108.091 978.747 107.633 978.945 106.963ZM981.406 109V101.891H982.527V103.053H982.555C982.787 102.267 983.443 101.768 984.277 101.768C984.482 101.768 984.66 101.802 984.756 101.815V102.971C984.66 102.937 984.407 102.902 984.12 102.902C983.197 102.902 982.596 103.565 982.596 104.57V109H981.406ZM985.788 109V101.891H986.978V109H985.788ZM986.383 100.694C985.979 100.694 985.645 100.359 985.645 99.9561C985.645 99.5459 985.979 99.2178 986.383 99.2178C986.793 99.2178 987.128 99.5459 987.128 99.9561C987.128 100.359 986.793 100.694 986.383 100.694ZM988.584 109V101.891H989.705V103.053H989.732C989.965 102.267 990.621 101.768 991.455 101.768C991.66 101.768 991.838 101.802 991.934 101.815V102.971C991.838 102.937 991.585 102.902 991.298 102.902C990.375 102.902 989.773 103.565 989.773 104.57V109H988.584Z" fill="#0D0E0F"/>
<rect x="1063.5" y="32.5" width="47" height="47" rx="23.5" fill="#FCFDFF"/>
<rect x="1063.5" y="32.5" width="47" height="47" rx="23.5" stroke="#ECEEF2"/>
<path d="M1083.67 53.5013C1083.67 53.0411 1084.04 52.668 1084.5 52.668H1089.5C1089.96 52.668 1090.33 53.0411 1090.33 53.5013C1090.33 53.9615 1089.96 54.3346 1089.5 54.3346H1084.5C1084.04 54.3346 1083.67 53.9615 1083.67 53.5013Z" fill="#232425"/>
<path d="M1084.5 56.0013C1084.04 56.0013 1083.67 56.3744 1083.67 56.8346C1083.67 57.2949 1084.04 57.668 1084.5 57.668H1087.83C1088.29 57.668 1088.67 57.2949 1088.67 56.8346C1088.67 56.3744 1088.29 56.0013 1087.83 56.0013H1084.5Z" fill="#232425"/>
<path fill-rule="evenodd" clip-rule="evenodd" d="M1093.67 51.8486V62.668C1093.67 63.5884 1092.92 64.3346 1092 64.3346H1082C1081.08 64.3346 1080.33 63.5884 1080.33 62.668V49.3346C1080.33 48.4142 1081.08 47.668 1082 47.668H1089.5L1093.67 51.8486ZM1082 62.668V49.3346H1088.81L1092 52.5373V62.668H1082Z" fill="#232425"/>
<path d="M1063.09 109H1061.86V104.509H1056.44V109H1055.21V99.1357H1056.44V103.401H1061.86V99.1357H1063.09V109ZM1064.88 109V101.891H1066.07V109H1064.88ZM1065.47 100.694C1065.07 100.694 1064.74 100.359 1064.74 99.9561C1064.74 99.5459 1065.07 99.2178 1065.47 99.2178C1065.88 99.2178 1066.22 99.5459 1066.22 99.9561C1066.22 100.359 1065.88 100.694 1065.47 100.694ZM1067.55 103.853C1067.55 102.636 1068.64 101.768 1070.2 101.768C1071.67 101.768 1072.75 102.643 1072.81 103.846H1071.67C1071.59 103.162 1071.04 102.738 1070.16 102.738C1069.29 102.738 1068.72 103.169 1068.72 103.791C1068.72 104.283 1069.1 104.611 1069.9 104.816L1071 105.083C1072.44 105.445 1072.96 105.965 1072.96 107.011C1072.96 108.248 1071.79 109.123 1070.13 109.123C1068.57 109.123 1067.48 108.275 1067.36 107.018H1068.55C1068.68 107.756 1069.24 108.152 1070.2 108.152C1071.17 108.152 1071.76 107.742 1071.76 107.1C1071.76 106.594 1071.47 106.32 1070.67 106.108L1069.42 105.787C1068.17 105.466 1067.55 104.823 1067.55 103.853ZM1074.58 100.175H1075.77V101.891H1077.15V102.868H1075.77V107.093C1075.77 107.742 1076.04 108.036 1076.65 108.036C1076.79 108.036 1077.06 108.016 1077.14 108.002V109C1077 109.034 1076.67 109.055 1076.39 109.055C1075.08 109.055 1074.58 108.521 1074.58 107.154V102.868H1073.52V101.891H1074.58V100.175ZM1081.16 109.123C1079.19 109.123 1077.87 107.708 1077.87 105.445C1077.87 103.176 1079.19 101.768 1081.16 101.768C1083.12 101.768 1084.45 103.176 1084.45 105.445C1084.45 107.708 1083.12 109.123 1081.16 109.123ZM1081.16 108.077C1082.42 108.077 1083.24 107.12 1083.24 105.445C1083.24 103.771 1082.42 102.813 1081.16 102.813C1079.9 102.813 1079.08 103.771 1079.08 105.445C1079.08 107.12 1079.9 108.077 1081.16 108.077ZM1085.65 109V101.891H1086.77V103.053H1086.8C1087.03 102.267 1087.69 101.768 1088.52 101.768C1088.73 101.768 1088.91 101.802 1089 101.815V102.971C1088.91 102.937 1088.65 102.902 1088.37 102.902C1087.44 102.902 1086.84 103.565 1086.84 104.57V109H1085.65ZM1090.04 109V101.891H1091.22V109H1090.04ZM1090.63 100.694C1090.23 100.694 1089.89 100.359 1089.89 99.9561C1089.89 99.5459 1090.23 99.2178 1090.63 99.2178C1091.04 99.2178 1091.38 99.5459 1091.38 99.9561C1091.38 100.359 1091.04 100.694 1090.63 100.694ZM1095.18 108.111C1096.3 108.111 1097.16 107.325 1097.16 106.3V105.719L1095.26 105.835C1094.3 105.896 1093.75 106.32 1093.75 106.99C1093.75 107.667 1094.32 108.111 1095.18 108.111ZM1094.91 109.123C1093.49 109.123 1092.54 108.269 1092.54 106.99C1092.54 105.773 1093.48 105.008 1095.12 104.912L1097.16 104.796V104.201C1097.16 103.333 1096.58 102.813 1095.6 102.813C1094.68 102.813 1094.11 103.244 1093.96 103.941H1092.81C1092.89 102.711 1093.95 101.768 1095.63 101.768C1097.29 101.768 1098.35 102.67 1098.35 104.085V109H1097.22V107.776H1097.19C1096.77 108.59 1095.87 109.123 1094.91 109.123ZM1099.92 109V99.1357H1101.11V109H1099.92ZM1108.28 109.123C1106.47 109.123 1105.24 107.674 1105.24 105.445C1105.24 103.217 1106.46 101.768 1108.25 101.768C1109.27 101.768 1110.09 102.267 1110.52 103.046H1110.54V99.1357H1111.73V109H1110.6V107.797H1110.58C1110.12 108.617 1109.31 109.123 1108.28 109.123ZM1108.51 102.813C1107.25 102.813 1106.46 103.839 1106.46 105.445C1106.46 107.059 1107.25 108.077 1108.51 108.077C1109.73 108.077 1110.55 107.038 1110.55 105.445C1110.55 103.859 1109.73 102.813 1108.51 102.813ZM1116.19 102.8C1115.08 102.8 1114.3 103.654 1114.22 104.837H1118.08C1118.06 103.647 1117.31 102.8 1116.19 102.8ZM1118.06 106.963H1119.22C1119.02 108.207 1117.82 109.123 1116.26 109.123C1114.23 109.123 1112.99 107.708 1112.99 105.473C1112.99 103.265 1114.25 101.768 1116.21 101.768C1118.13 101.768 1119.31 103.162 1119.31 105.315V105.767H1114.21V105.835C1114.21 107.195 1115.01 108.091 1116.29 108.091C1117.19 108.091 1117.86 107.633 1118.06 106.963ZM1044.65 126H1043.42V116.136H1049.41V117.243H1044.65V120.634H1049.02V121.728H1044.65V126ZM1050.69 126V118.891H1051.88V126H1050.69ZM1051.29 117.694C1050.89 117.694 1050.55 117.359 1050.55 116.956C1050.55 116.546 1050.89 116.218 1051.29 116.218C1051.7 116.218 1052.03 116.546 1052.03 116.956C1052.03 117.359 1051.7 117.694 1051.29 117.694ZM1053.49 126V118.891H1054.61V120.025H1054.64C1055.04 119.26 1055.79 118.768 1056.89 118.768C1058.45 118.768 1059.36 119.772 1059.36 121.386V126H1058.17V121.598C1058.17 120.449 1057.63 119.82 1056.53 119.82C1055.41 119.82 1054.68 120.613 1054.68 121.816V126H1053.49ZM1063.22 125.111C1064.34 125.111 1065.2 124.325 1065.2 123.3V122.719L1063.3 122.835C1062.34 122.896 1061.8 123.32 1061.8 123.99C1061.8 124.667 1062.36 125.111 1063.22 125.111ZM1062.95 126.123C1061.54 126.123 1060.59 125.269 1060.59 123.99C1060.59 122.773 1061.52 122.008 1063.16 121.912L1065.2 121.796V121.201C1065.2 120.333 1064.63 119.813 1063.64 119.813C1062.73 119.813 1062.15 120.244 1062 120.941H1060.85C1060.93 119.711 1061.99 118.768 1063.67 118.768C1065.34 118.768 1066.39 119.67 1066.39 121.085V126H1065.26V124.776H1065.23C1064.81 125.59 1063.91 126.123 1062.95 126.123ZM1067.9 126V118.891H1069.02V120.025H1069.05C1069.45 119.26 1070.2 118.768 1071.3 118.768C1072.86 118.768 1073.77 119.772 1073.77 121.386V126H1072.58V121.598C1072.58 120.449 1072.04 119.82 1070.94 119.82C1069.82 119.82 1069.09 120.613 1069.09 121.816V126H1067.9ZM1081.19 121.222H1080.03C1079.86 120.449 1079.25 119.813 1078.21 119.813C1076.98 119.813 1076.14 120.832 1076.14 122.445C1076.14 124.1 1076.99 125.077 1078.22 125.077C1079.19 125.077 1079.83 124.564 1080.03 123.71H1081.2C1081.02 125.125 1079.83 126.123 1078.22 126.123C1076.25 126.123 1074.93 124.735 1074.93 122.445C1074.93 120.203 1076.24 118.768 1078.2 118.768C1079.98 118.768 1081.04 119.943 1081.19 121.222ZM1082.36 126V118.891H1083.55V126H1082.36ZM1082.95 117.694C1082.55 117.694 1082.21 117.359 1082.21 116.956C1082.21 116.546 1082.55 116.218 1082.95 116.218C1083.36 116.218 1083.7 116.546 1083.7 116.956C1083.7 117.359 1083.36 117.694 1082.95 117.694ZM1087.5 125.111C1088.62 125.111 1089.48 124.325 1089.48 123.3V122.719L1087.58 122.835C1086.62 122.896 1086.08 123.32 1086.08 123.99C1086.08 124.667 1086.64 125.111 1087.5 125.111ZM1087.23 126.123C1085.82 126.123 1084.87 125.269 1084.87 123.99C1084.87 122.773 1085.8 122.008 1087.44 121.912L1089.48 121.796V121.201C1089.48 120.333 1088.91 119.813 1087.92 119.813C1087.01 119.813 1086.43 120.244 1086.28 120.941H1085.13C1085.22 119.711 1086.27 118.768 1087.95 118.768C1089.62 118.768 1090.67 119.67 1090.67 121.085V126H1089.54V124.776H1089.52C1089.09 125.59 1088.19 126.123 1087.23 126.123ZM1092.18 126V118.891H1093.3V120.025H1093.33C1093.67 119.273 1094.39 118.768 1095.35 118.768C1096.32 118.768 1097.04 119.26 1097.34 120.121H1097.37C1097.77 119.273 1098.6 118.768 1099.6 118.768C1101.01 118.768 1101.92 119.684 1101.92 121.092V126H1100.73V121.365C1100.73 120.395 1100.19 119.82 1099.25 119.82C1098.31 119.82 1097.64 120.518 1097.64 121.481V126H1096.45V121.235C1096.45 120.381 1095.88 119.82 1095 119.82C1094.05 119.82 1093.37 120.559 1093.37 121.543V126H1092.18ZM1103.5 126V118.891H1104.68V126H1103.5ZM1104.09 117.694C1103.69 117.694 1103.35 117.359 1103.35 116.956C1103.35 116.546 1103.69 116.218 1104.09 116.218C1104.5 116.218 1104.83 116.546 1104.83 116.956C1104.83 117.359 1104.5 117.694 1104.09 117.694ZM1109.14 119.8C1108.03 119.8 1107.25 120.654 1107.17 121.837H1111.04C1111.01 120.647 1110.26 119.8 1109.14 119.8ZM1111.01 123.963H1112.18C1111.97 125.207 1110.77 126.123 1109.22 126.123C1107.18 126.123 1105.94 124.708 1105.94 122.473C1105.94 120.265 1107.2 118.768 1109.16 118.768C1111.08 118.768 1112.27 120.162 1112.27 122.315V122.767H1107.17V122.835C1107.17 124.195 1107.97 125.091 1109.24 125.091C1110.15 125.091 1110.81 124.633 1111.01 123.963ZM1113.47 126V118.891H1114.59V120.025H1114.62C1115.01 119.26 1115.77 118.768 1116.87 118.768C1118.43 118.768 1119.33 119.772 1119.33 121.386V126H1118.14V121.598C1118.14 120.449 1117.6 119.82 1116.51 119.82C1115.39 119.82 1114.66 120.613 1114.66 121.816V126H1113.47ZM1121.23 117.175H1122.42V118.891H1123.8V119.868H1122.42V124.093C1122.42 124.742 1122.7 125.036 1123.31 125.036C1123.44 125.036 1123.72 125.016 1123.8 125.002V126C1123.65 126.034 1123.33 126.055 1123.05 126.055C1121.74 126.055 1121.23 125.521 1121.23 124.154V119.868H1120.17V118.891H1121.23V117.175ZM1127.82 126.123C1125.85 126.123 1124.52 124.708 1124.52 122.445C1124.52 120.176 1125.85 118.768 1127.82 118.768C1129.78 118.768 1131.11 120.176 1131.11 122.445C1131.11 124.708 1129.78 126.123 1127.82 126.123ZM1127.82 125.077C1129.08 125.077 1129.9 124.12 1129.9 122.445C1129.9 120.771 1129.08 119.813 1127.82 119.813C1126.56 119.813 1125.73 120.771 1125.73 122.445C1125.73 124.12 1126.56 125.077 1127.82 125.077Z" fill="#0D0E0F"/>
</svg>
