<svg width="110" height="108" viewBox="0 0 110 108" fill="none" xmlns="http://www.w3.org/2000/svg">
<rect x="31" width="48" height="48" rx="24" fill="#EBF2FF"/>
<path fill-rule="evenodd" clip-rule="evenodd" d="M59.3896 14.3537C58.9658 13.8972 58.2625 13.8803 57.8186 14.3162C57.3747 14.752 57.3584 15.4754 57.7821 15.932L61.2922 19.7143H46.1111C45.4975 19.7143 45 20.2259 45 20.8571C45 21.4883 45.4975 22 46.1111 22H63.8888C64.3336 22 64.7355 21.7272 64.9103 21.3067C65.0853 20.8862 64.9997 20.3989 64.6926 20.068L59.3896 14.3537Z" fill="#3E80FF"/>
<path fill-rule="evenodd" clip-rule="evenodd" d="M50.6104 33.6463C51.0342 34.1028 51.7375 34.1196 52.1814 33.6838C52.6253 33.248 52.6416 32.5246 52.2179 32.068L48.7078 28.2857H63.8889C64.5026 28.2857 65 27.7741 65 27.1429C65 26.5117 64.5026 26 63.8889 26H46.1111C45.6664 26 45.2646 26.2727 45.0896 26.6933C44.9147 27.1138 45.0004 27.6011 45.3074 27.932L50.6104 33.6463Z" fill="#3E80FF"/>
<path d="M32.5508 77H31.3203V68.2432H28.21V67.1357H35.6611V68.2432H32.5508V77ZM35.2031 77V69.8906H36.3242V71.0527H36.3516C36.584 70.2666 37.2402 69.7676 38.0742 69.7676C38.2793 69.7676 38.457 69.8018 38.5527 69.8154V70.9707C38.457 70.9365 38.2041 70.9023 37.917 70.9023C36.9941 70.9023 36.3926 71.5654 36.3926 72.5703V77H35.2031ZM41.7314 76.1113C42.8525 76.1113 43.7139 75.3252 43.7139 74.2998V73.7188L41.8135 73.835C40.8564 73.8965 40.3096 74.3203 40.3096 74.9902C40.3096 75.667 40.877 76.1113 41.7314 76.1113ZM41.4648 77.123C40.0498 77.123 39.0996 76.2686 39.0996 74.9902C39.0996 73.7734 40.0361 73.0078 41.6768 72.9121L43.7139 72.7959V72.2012C43.7139 71.333 43.1396 70.8135 42.1553 70.8135C41.2393 70.8135 40.665 71.2441 40.5146 71.9414H39.3662C39.4482 70.7109 40.501 69.7676 42.1826 69.7676C43.8506 69.7676 44.9033 70.6699 44.9033 72.085V77H43.7754V75.7764H43.748C43.3242 76.5898 42.4219 77.123 41.4648 77.123ZM46.4141 77V69.8906H47.5352V71.0254H47.5625C47.959 70.2598 48.7178 69.7676 49.8184 69.7676C51.377 69.7676 52.2793 70.7725 52.2793 72.3857V77H51.0898V72.5977C51.0898 71.4492 50.5498 70.8203 49.4561 70.8203C48.335 70.8203 47.6035 71.6133 47.6035 72.8164V77H46.4141ZM53.6738 71.8525C53.6738 70.6357 54.7607 69.7676 56.3262 69.7676C57.7959 69.7676 58.876 70.6426 58.9307 71.8457H57.7959C57.7139 71.1621 57.1602 70.7383 56.2852 70.7383C55.417 70.7383 54.8428 71.1689 54.8428 71.791C54.8428 72.2832 55.2188 72.6113 56.0254 72.8164L57.126 73.083C58.5615 73.4453 59.0811 73.9648 59.0811 75.0107C59.0811 76.248 57.9121 77.123 56.251 77.123C54.6924 77.123 53.6055 76.2754 53.4824 75.0176H54.6719C54.8018 75.7559 55.3623 76.1523 56.3262 76.1523C57.29 76.1523 57.8848 75.7422 57.8848 75.0996C57.8848 74.5938 57.5908 74.3203 56.791 74.1084L55.54 73.7871C54.2891 73.4658 53.6738 72.8232 53.6738 71.8525ZM60.7012 77V70.8682H59.71V69.8906H60.7012V69.0977C60.7012 67.7305 61.3369 67.0811 62.6494 67.0811C62.916 67.0811 63.2031 67.1084 63.374 67.1357V68.0996C63.2305 68.0791 63.0322 68.0586 62.834 68.0586C62.1914 68.0586 61.8838 68.4004 61.8838 69.1045V69.8906H63.3398V70.8682H61.8906V77H60.7012ZM67.0791 70.7998C65.9648 70.7998 65.1855 71.6543 65.1104 72.8369H68.9727C68.9453 71.6475 68.2002 70.7998 67.0791 70.7998ZM68.9453 74.9629H70.1143C69.9092 76.207 68.7061 77.123 67.1543 77.123C65.1172 77.123 63.8799 75.708 63.8799 73.4727C63.8799 71.2646 65.1377 69.7676 67.0996 69.7676C69.0205 69.7676 70.2031 71.1621 70.2031 73.3154V73.7666H65.1035V73.835C65.1035 75.1953 65.9033 76.0908 67.1816 76.0908C68.084 76.0908 68.7471 75.6328 68.9453 74.9629ZM71.4062 77V69.8906H72.5273V71.0527H72.5547C72.7871 70.2666 73.4434 69.7676 74.2773 69.7676C74.4824 69.7676 74.6602 69.8018 74.7559 69.8154V70.9707C74.6602 70.9365 74.4072 70.9023 74.1201 70.9023C73.1973 70.9023 72.5957 71.5654 72.5957 72.5703V77H71.4062ZM75.7881 77V69.8906H76.9775V77H75.7881ZM76.3828 68.6943C75.9795 68.6943 75.6445 68.3594 75.6445 67.9561C75.6445 67.5459 75.9795 67.2178 76.3828 67.2178C76.793 67.2178 77.1279 67.5459 77.1279 67.9561C77.1279 68.3594 76.793 68.6943 76.3828 68.6943ZM78.584 77V69.8906H79.7051V71.0527H79.7324C79.9648 70.2666 80.6211 69.7676 81.4551 69.7676C81.6602 69.7676 81.8379 69.8018 81.9336 69.8154V70.9707C81.8379 70.9365 81.585 70.9023 81.2979 70.9023C80.375 70.9023 79.7734 71.5654 79.7734 72.5703V77H78.584Z" fill="#0D0E0F"/>
</svg>
