<svg width="110" height="135" viewBox="0 0 110 135" fill="none" xmlns="http://www.w3.org/2000/svg">
<rect x="31.5" y="0.5" width="47" height="47" rx="23.5" fill="#FCFDFF"/>
<rect x="31.5" y="0.5" width="47" height="47" rx="23.5" stroke="#ECEEF2"/>
<path d="M51.666 21.5013C51.666 21.0411 52.0391 20.668 52.4993 20.668H57.4993C57.9596 20.668 58.3327 21.0411 58.3327 21.5013C58.3327 21.9615 57.9596 22.3346 57.4993 22.3346H52.4993C52.0391 22.3346 51.666 21.9615 51.666 21.5013Z" fill="#232425"/>
<path d="M52.4993 24.0013C52.0391 24.0013 51.666 24.3744 51.666 24.8346C51.666 25.2949 52.0391 25.668 52.4993 25.668H55.8327C56.2929 25.668 56.666 25.2949 56.666 24.8346C56.666 24.3744 56.2929 24.0013 55.8327 24.0013H52.4993Z" fill="#232425"/>
<path fill-rule="evenodd" clip-rule="evenodd" d="M61.6664 19.8486V30.668C61.6664 31.5884 60.9202 32.3346 59.9997 32.3346H49.9997C49.0792 32.3346 48.333 31.5884 48.333 30.668V17.3346C48.333 16.4142 49.0792 15.668 49.9997 15.668H57.4997L61.6664 19.8486ZM49.9997 30.668V17.3346H56.8077L59.9997 20.5373V30.668H49.9997Z" fill="#232425"/>
<path d="M31.0879 77H29.8574V72.5088H24.4434V77H23.2129V67.1357H24.4434V71.4014H29.8574V67.1357H31.0879V77ZM32.8789 77V69.8906H34.0684V77H32.8789ZM33.4736 68.6943C33.0703 68.6943 32.7354 68.3594 32.7354 67.9561C32.7354 67.5459 33.0703 67.2178 33.4736 67.2178C33.8838 67.2178 34.2188 67.5459 34.2188 67.9561C34.2188 68.3594 33.8838 68.6943 33.4736 68.6943ZM35.5518 71.8525C35.5518 70.6357 36.6387 69.7676 38.2041 69.7676C39.6738 69.7676 40.7539 70.6426 40.8086 71.8457H39.6738C39.5918 71.1621 39.0381 70.7383 38.1631 70.7383C37.2949 70.7383 36.7207 71.1689 36.7207 71.791C36.7207 72.2832 37.0967 72.6113 37.9033 72.8164L39.0039 73.083C40.4395 73.4453 40.959 73.9648 40.959 75.0107C40.959 76.248 39.79 77.123 38.1289 77.123C36.5703 77.123 35.4834 76.2754 35.3604 75.0176H36.5498C36.6797 75.7559 37.2402 76.1523 38.2041 76.1523C39.168 76.1523 39.7627 75.7422 39.7627 75.0996C39.7627 74.5938 39.4688 74.3203 38.6689 74.1084L37.418 73.7871C36.167 73.4658 35.5518 72.8232 35.5518 71.8525ZM42.5791 68.1748H43.7686V69.8906H45.1494V70.8682H43.7686V75.0928C43.7686 75.7422 44.042 76.0361 44.6504 76.0361C44.7871 76.0361 45.0605 76.0156 45.1426 76.002V77C44.999 77.0342 44.6709 77.0547 44.3906 77.0547C43.085 77.0547 42.5791 76.5215 42.5791 75.1543V70.8682H41.5195V69.8906H42.5791V68.1748ZM49.1621 77.123C47.1934 77.123 45.8672 75.708 45.8672 73.4453C45.8672 71.1758 47.1934 69.7676 49.1621 69.7676C51.124 69.7676 52.4502 71.1758 52.4502 73.4453C52.4502 75.708 51.124 77.123 49.1621 77.123ZM49.1621 76.0771C50.4199 76.0771 51.2402 75.1201 51.2402 73.4453C51.2402 71.7705 50.4199 70.8135 49.1621 70.8135C47.9043 70.8135 47.0771 71.7705 47.0771 73.4453C47.0771 75.1201 47.9043 76.0771 49.1621 76.0771ZM53.6533 77V69.8906H54.7744V71.0527H54.8018C55.0342 70.2666 55.6904 69.7676 56.5244 69.7676C56.7295 69.7676 56.9072 69.8018 57.0029 69.8154V70.9707C56.9072 70.9365 56.6543 70.9023 56.3672 70.9023C55.4443 70.9023 54.8428 71.5654 54.8428 72.5703V77H53.6533ZM58.0352 77V69.8906H59.2246V77H58.0352ZM58.6299 68.6943C58.2266 68.6943 57.8916 68.3594 57.8916 67.9561C57.8916 67.5459 58.2266 67.2178 58.6299 67.2178C59.04 67.2178 59.375 67.5459 59.375 67.9561C59.375 68.3594 59.04 68.6943 58.6299 68.6943ZM63.1758 76.1113C64.2969 76.1113 65.1582 75.3252 65.1582 74.2998V73.7188L63.2578 73.835C62.3008 73.8965 61.7539 74.3203 61.7539 74.9902C61.7539 75.667 62.3213 76.1113 63.1758 76.1113ZM62.9092 77.123C61.4941 77.123 60.5439 76.2686 60.5439 74.9902C60.5439 73.7734 61.4805 73.0078 63.1211 72.9121L65.1582 72.7959V72.2012C65.1582 71.333 64.584 70.8135 63.5996 70.8135C62.6836 70.8135 62.1094 71.2441 61.959 71.9414H60.8105C60.8926 70.7109 61.9453 69.7676 63.627 69.7676C65.2949 69.7676 66.3477 70.6699 66.3477 72.085V77H65.2197V75.7764H65.1924C64.7686 76.5898 63.8662 77.123 62.9092 77.123ZM67.9199 77V67.1357H69.1094V77H67.9199ZM76.2803 77.123C74.4688 77.123 73.2383 75.6738 73.2383 73.4453C73.2383 71.2168 74.4619 69.7676 76.2529 69.7676C77.2715 69.7676 78.0918 70.2666 78.5156 71.0459H78.543V67.1357H79.7324V77H78.5977V75.7969H78.5771C78.1191 76.6172 77.3057 77.123 76.2803 77.123ZM76.5059 70.8135C75.248 70.8135 74.4551 71.8389 74.4551 73.4453C74.4551 75.0586 75.248 76.0771 76.5059 76.0771C77.7295 76.0771 78.5498 75.0381 78.5498 73.4453C78.5498 71.8594 77.7295 70.8135 76.5059 70.8135ZM84.1895 70.7998C83.0752 70.7998 82.2959 71.6543 82.2207 72.8369H86.083C86.0557 71.6475 85.3105 70.7998 84.1895 70.7998ZM86.0557 74.9629H87.2246C87.0195 76.207 85.8164 77.123 84.2646 77.123C82.2275 77.123 80.9902 75.708 80.9902 73.4727C80.9902 71.2646 82.248 69.7676 84.21 69.7676C86.1309 69.7676 87.3135 71.1621 87.3135 73.3154V73.7666H82.2139V73.835C82.2139 75.1953 83.0137 76.0908 84.292 76.0908C85.1943 76.0908 85.8574 75.6328 86.0557 74.9629ZM12.6514 94H11.4209V84.1357H17.4092V85.2432H12.6514V88.6338H17.0195V89.7275H12.6514V94ZM18.6943 94V86.8906H19.8838V94H18.6943ZM19.2891 85.6943C18.8857 85.6943 18.5508 85.3594 18.5508 84.9561C18.5508 84.5459 18.8857 84.2178 19.2891 84.2178C19.6992 84.2178 20.0342 84.5459 20.0342 84.9561C20.0342 85.3594 19.6992 85.6943 19.2891 85.6943ZM21.4902 94V86.8906H22.6113V88.0254H22.6387C23.0352 87.2598 23.7939 86.7676 24.8945 86.7676C26.4531 86.7676 27.3555 87.7725 27.3555 89.3857V94H26.166V89.5977C26.166 88.4492 25.626 87.8203 24.5322 87.8203C23.4111 87.8203 22.6797 88.6133 22.6797 89.8164V94H21.4902ZM31.2178 93.1113C32.3389 93.1113 33.2002 92.3252 33.2002 91.2998V90.7188L31.2998 90.835C30.3428 90.8965 29.7959 91.3203 29.7959 91.9902C29.7959 92.667 30.3633 93.1113 31.2178 93.1113ZM30.9512 94.123C29.5361 94.123 28.5859 93.2686 28.5859 91.9902C28.5859 90.7734 29.5225 90.0078 31.1631 89.9121L33.2002 89.7959V89.2012C33.2002 88.333 32.626 87.8135 31.6416 87.8135C30.7256 87.8135 30.1514 88.2441 30.001 88.9414H28.8525C28.9346 87.7109 29.9873 86.7676 31.6689 86.7676C33.3369 86.7676 34.3896 87.6699 34.3896 89.085V94H33.2617V92.7764H33.2344C32.8105 93.5898 31.9082 94.123 30.9512 94.123ZM35.9004 94V86.8906H37.0215V88.0254H37.0488C37.4453 87.2598 38.2041 86.7676 39.3047 86.7676C40.8633 86.7676 41.7656 87.7725 41.7656 89.3857V94H40.5762V89.5977C40.5762 88.4492 40.0361 87.8203 38.9424 87.8203C37.8213 87.8203 37.0898 88.6133 37.0898 89.8164V94H35.9004ZM49.1895 89.2217H48.0273C47.8564 88.4492 47.2549 87.8135 46.209 87.8135C44.9785 87.8135 44.1445 88.832 44.1445 90.4453C44.1445 92.0996 44.9922 93.0771 46.2227 93.0771C47.1934 93.0771 47.8291 92.5645 48.0342 91.71H49.2031C49.0186 93.125 47.8291 94.123 46.2158 94.123C44.2471 94.123 42.9346 92.7354 42.9346 90.4453C42.9346 88.2031 44.2402 86.7676 46.2021 86.7676C47.9795 86.7676 49.0391 87.9434 49.1895 89.2217ZM50.3584 94V86.8906H51.5479V94H50.3584ZM50.9531 85.6943C50.5498 85.6943 50.2148 85.3594 50.2148 84.9561C50.2148 84.5459 50.5498 84.2178 50.9531 84.2178C51.3633 84.2178 51.6982 84.5459 51.6982 84.9561C51.6982 85.3594 51.3633 85.6943 50.9531 85.6943ZM55.499 93.1113C56.6201 93.1113 57.4814 92.3252 57.4814 91.2998V90.7188L55.5811 90.835C54.624 90.8965 54.0771 91.3203 54.0771 91.9902C54.0771 92.667 54.6445 93.1113 55.499 93.1113ZM55.2324 94.123C53.8174 94.123 52.8672 93.2686 52.8672 91.9902C52.8672 90.7734 53.8037 90.0078 55.4443 89.9121L57.4814 89.7959V89.2012C57.4814 88.333 56.9072 87.8135 55.9229 87.8135C55.0068 87.8135 54.4326 88.2441 54.2822 88.9414H53.1338C53.2158 87.7109 54.2686 86.7676 55.9502 86.7676C57.6182 86.7676 58.6709 87.6699 58.6709 89.085V94H57.543V92.7764H57.5156C57.0918 93.5898 56.1895 94.123 55.2324 94.123ZM60.1816 94V86.8906H61.3027V88.0254H61.3301C61.665 87.2734 62.3896 86.7676 63.3467 86.7676C64.3174 86.7676 65.0352 87.2598 65.3428 88.1211H65.3701C65.7666 87.2734 66.6006 86.7676 67.5986 86.7676C69.0068 86.7676 69.916 87.6836 69.916 89.0918V94H68.7266V89.3652C68.7266 88.3945 68.1865 87.8203 67.25 87.8203C66.3066 87.8203 65.6436 88.5176 65.6436 89.4814V94H64.4541V89.2354C64.4541 88.3809 63.8799 87.8203 62.998 87.8203C62.0547 87.8203 61.3711 88.5586 61.3711 89.543V94H60.1816ZM71.4951 94V86.8906H72.6846V94H71.4951ZM72.0898 85.6943C71.6865 85.6943 71.3516 85.3594 71.3516 84.9561C71.3516 84.5459 71.6865 84.2178 72.0898 84.2178C72.5 84.2178 72.835 84.5459 72.835 84.9561C72.835 85.3594 72.5 85.6943 72.0898 85.6943ZM77.1416 87.7998C76.0273 87.7998 75.248 88.6543 75.1729 89.8369H79.0352C79.0078 88.6475 78.2627 87.7998 77.1416 87.7998ZM79.0078 91.9629H80.1768C79.9717 93.207 78.7686 94.123 77.2168 94.123C75.1797 94.123 73.9424 92.708 73.9424 90.4727C73.9424 88.2646 75.2002 86.7676 77.1621 86.7676C79.083 86.7676 80.2656 88.1621 80.2656 90.3154V90.7666H75.166V90.835C75.166 92.1953 75.9658 93.0908 77.2441 93.0908C78.1465 93.0908 78.8096 92.6328 79.0078 91.9629ZM81.4688 94V86.8906H82.5898V88.0254H82.6172C83.0137 87.2598 83.7725 86.7676 84.873 86.7676C86.4316 86.7676 87.334 87.7725 87.334 89.3857V94H86.1445V89.5977C86.1445 88.4492 85.6045 87.8203 84.5107 87.8203C83.3896 87.8203 82.6582 88.6133 82.6582 89.8164V94H81.4688ZM89.2344 85.1748H90.4238V86.8906H91.8047V87.8682H90.4238V92.0928C90.4238 92.7422 90.6973 93.0361 91.3057 93.0361C91.4424 93.0361 91.7158 93.0156 91.7979 93.002V94C91.6543 94.0342 91.3262 94.0547 91.0459 94.0547C89.7402 94.0547 89.2344 93.5215 89.2344 92.1543V87.8682H88.1748V86.8906H89.2344V85.1748ZM95.8174 94.123C93.8486 94.123 92.5225 92.708 92.5225 90.4453C92.5225 88.1758 93.8486 86.7676 95.8174 86.7676C97.7793 86.7676 99.1055 88.1758 99.1055 90.4453C99.1055 92.708 97.7793 94.123 95.8174 94.123ZM95.8174 93.0771C97.0752 93.0771 97.8955 92.1201 97.8955 90.4453C97.8955 88.7705 97.0752 87.8135 95.8174 87.8135C94.5596 87.8135 93.7324 88.7705 93.7324 90.4453C93.7324 92.1201 94.5596 93.0771 95.8174 93.0771Z" fill="#0D0E0F"/>
</svg>
